<?xml version="1.0" standalone="no"?>
<!DOCTYPE svg PUBLIC "-//W3C//DTD SVG 20010904//EN"
 "http://www.w3.org/TR/2001/REC-SVG-20010904/DTD/svg10.dtd">
<svg version="1.0" xmlns="http://www.w3.org/2000/svg"
 width="820.000000pt" height="1060.000000pt" viewBox="0 0 820.000000 1060.000000"
 preserveAspectRatio="xMidYMid meet">

<g transform="translate(0.000000,1060.000000) scale(0.100000,-0.100000)"
fill="#000000" stroke="none">
<path d="M5670 9665 l0 -535 620 0 620 0 0 535 0 535 -620 0 -620 0 0 -535z"/>
<path d="M5668 8279 l-3 -501 -99 -54 c-128 -70 -223 -142 -334 -253 -207
-207 -371 -483 -417 -702 -36 -172 -38 -296 -42 -3362 l-4 -3007 1511 0 1511
0 -4 3118 c-4 3418 1 3160 -61 3347 -126 374 -396 690 -743 870 l-73 37 0 504
0 504 -620 0 -620 0 -2 -501z m1877 -4864 l0 -1480 -1242 -3 -1243 -2 0 1485
0 1485 1243 -2 1242 -3 0 -1480z"/>
<path d="M672 6357 c-94 -175 -149 -316 -202 -527 -46 -180 -52 -229 -57 -478
-8 -354 15 -551 96 -797 73 -225 169 -419 301 -608 85 -120 307 -343 430 -430
162 -114 369 -207 603 -272 l57 -16 0 -1203 0 -1203 -137 -6 c-253 -11 -569
-69 -659 -122 -101 -59 -30 -119 193 -164 470 -96 1294 -94 1734 4 225 50 293
108 189 161 -112 57 -483 123 -695 124 -33 0 -70 3 -83 6 l-22 6 2 1201 3
1200 87 23 c458 122 853 438 1102 883 187 334 286 717 286 1112 0 375 -66 663
-232 1014 -44 94 -86 175 -92 181 -8 8 -397 13 -1427 18 l-1416 6 -61 -113z
m2692 -212 c35 -10 65 -72 125 -259 68 -214 82 -294 88 -531 9 -357 -25 -577
-127 -833 -97 -242 -226 -437 -401 -607 -262 -254 -566 -385 -894 -385 -597 0
-1131 442 -1348 1115 -148 458 -116 1041 78 1438 l38 78 1206 -4 c663 -2 1219
-8 1235 -12z"/>
<path d="M793 5158 c8 -80 55 -266 113 -437 119 -359 326 -662 579 -849 76
-56 210 -124 328 -165 l92 -32 240 0 c190 0 256 4 317 17 326 73 580 293 765
663 118 235 195 507 228 808 l6 57 -749 0 -749 0 -5 -63 c-11 -127 -110 -259
-220 -292 -68 -20 -153 -19 -218 2 -110 35 -208 165 -218 289 l-5 64 -255 0
-255 0 6 -62z"/>
</g>
</svg>
