<?xml version="1.0" standalone="no"?>
<!DOCTYPE svg PUBLIC "-//W3C//DTD SVG 20010904//EN"
 "http://www.w3.org/TR/2001/REC-SVG-20010904/DTD/svg10.dtd">
<svg version="1.0" xmlns="http://www.w3.org/2000/svg"
 width="512.000000pt" height="512.000000pt" viewBox="0 0 512.000000 512.000000"
 preserveAspectRatio="xMidYMid meet">

<g transform="translate(0.000000,512.000000) scale(0.100000,-0.100000)"
fill="#000000" stroke="none">
<path d="M2315 5109 c-637 -65 -1215 -355 -1647 -826 -621 -679 -828 -1645
-538 -2523 127 -387 332 -720 621 -1009 405 -405 902 -649 1494 -733 118 -17
512 -17 630 0 591 84 1089 329 1494 733 404 405 649 903 733 1494 17 118 17
512 0 630 -84 592 -328 1088 -733 1494 -396 395 -881 638 -1449 726 -125 19
-477 28 -605 14z m435 -639 c669 -70 1247 -475 1539 -1080 460 -953 58 -2098
-899 -2559 -953 -460 -2098 -58 -2559 899 -328 679 -226 1484 261 2065 404
483 1035 739 1658 675z"/>
<path d="M2240 3360 l0 -480 -480 0 -480 0 0 -320 0 -320 480 0 480 0 0 -480
0 -480 320 0 320 0 0 480 0 480 480 0 480 0 0 320 0 320 -480 0 -480 0 0 480
0 480 -320 0 -320 0 0 -480z"/>
</g>
</svg>
