<?xml version="1.0" standalone="no"?>
<!DOCTYPE svg PUBLIC "-//W3C//DTD SVG 20010904//EN"
 "http://www.w3.org/TR/2001/REC-SVG-20010904/DTD/svg10.dtd">
<svg version="1.0" xmlns="http://www.w3.org/2000/svg"
 width="512.000000pt" height="512.000000pt" viewBox="0 0 512.000000 512.000000"
 preserveAspectRatio="xMidYMid meet">

<g transform="translate(0.000000,512.000000) scale(0.100000,-0.100000)"
fill="#000000" stroke="none">
<path d="M555 5100 c-251 -66 -435 -238 -522 -485 -25 -73 -28 -92 -28 -225 0
-125 3 -154 23 -214 41 -123 95 -216 171 -294 77 -80 41 -107 593 446 552 552
525 515 445 593 -89 86 -217 154 -344 183 -97 22 -249 20 -338 -4z m366 -172
c37 -14 88 -37 114 -52 l47 -28 -30 -31 -31 -31 -48 26 c-26 15 -74 34 -107
43 -80 23 -229 17 -306 -13 -117 -46 -236 -165 -282 -282 -30 -77 -36 -226
-13 -306 9 -33 28 -81 43 -107 l26 -48 -31 -31 -31 -31 -31 54 c-57 100 -76
172 -76 294 0 81 5 125 19 165 66 195 214 338 407 390 100 27 236 22 330 -12z
m-56 -242 c19 -8 35 -17 35 -18 0 -2 -22 -26 -50 -53 l-50 -49 0 67 c0 75 4
78 65 53z m-225 -51 c0 -30 -1 -55 -3 -55 -2 0 -20 18 -41 39 l-38 39 28 16
c48 26 54 21 54 -39z m-165 -153 c-46 -4 -51 1 -36 34 l12 27 30 -29 31 -29
-37 -3z m75 -165 c0 -1 -22 -25 -50 -52 l-49 -49 -16 37 c-26 63 -23 67 50 67
36 0 65 -1 65 -3z"/>
<path d="M4910 5104 c-209 -45 -373 -204 -415 -401 -34 -158 -11 -223 77 -223
128 1 289 65 386 155 95 88 147 202 158 352 7 78 6 82 -19 107 -31 30 -81 33
-187 10z m35 -186 c-25 -116 -147 -235 -268 -262 -28 -7 -29 -6 -22 26 13 58
51 122 102 169 55 52 79 67 138 85 57 18 57 18 50 -18z"/>
<path d="M1625 4695 c-30 -29 -33 -91 -10 -198 42 -200 207 -357 420 -402 107
-23 151 -20 182 11 25 25 26 29 20 107 -8 97 -25 156 -68 238 -63 118 -212
222 -364 254 -106 22 -151 20 -180 -10z m253 -183 c86 -41 168 -142 187 -230
7 -32 6 -33 -22 -26 -124 29 -243 146 -268 262 -7 32 -6 33 22 26 15 -4 52
-18 81 -32z"/>
<path d="M1040 4480 l0 -80 80 0 80 0 0 80 0 80 -80 0 -80 0 0 -80z"/>
<path d="M3665 4466 c-51 -19 -120 -92 -134 -142 -6 -21 -11 -67 -11 -101 l0
-62 -52 -5 c-29 -3 -93 -8 -143 -11 -492 -31 -1049 -168 -1336 -329 -42 -24
-113 -55 -159 -70 -164 -53 -283 -114 -424 -219 -46 -33 -147 -91 -235 -134
-194 -93 -325 -179 -442 -290 -282 -269 -423 -616 -406 -998 4 -71 11 -150 17
-175 6 -25 12 -55 15 -67 l5 -23 -155 0 c-152 0 -156 -1 -180 -25 -23 -22 -25
-31 -25 -123 0 -194 37 -240 258 -329 l147 -59 62 -489 c34 -269 67 -509 74
-533 17 -62 81 -156 131 -193 24 -17 68 -43 98 -58 l55 -26 1735 0 1735 0 50
23 c28 13 68 35 89 50 51 35 120 129 140 190 9 26 43 265 76 532 33 267 62
490 64 495 2 6 69 37 149 69 219 87 257 135 257 327 0 128 -10 142 -108 149
l-71 5 44 65 c81 118 135 304 135 463 0 48 -4 62 -25 82 -29 30 -64 32 -191
10 -218 -38 -408 -130 -533 -259 -49 -50 -61 -47 -61 12 0 61 -41 235 -72 310
-17 41 -46 97 -65 124 -33 49 -33 51 -16 72 10 11 101 111 202 221 101 110
187 204 191 208 5 5 33 -12 64 -37 161 -131 386 -83 477 102 33 65 34 196 2
264 -28 61 -91 121 -157 149 -52 21 -54 23 -59 70 -14 117 -100 202 -217 216
-74 9 -136 -13 -191 -66 -53 -52 -69 -94 -69 -188 l0 -61 -62 -6 c-35 -3 -97
-8 -138 -11 -41 -3 -154 -15 -251 -26 l-177 -22 -34 27 c-20 14 -58 39 -86 54
l-52 28 39 38 39 38 56 -46 c198 -161 483 -42 504 210 10 132 -51 241 -167
296 -68 33 -69 33 -74 80 -10 85 -59 153 -140 195 -44 22 -143 27 -192 9z
m146 -175 c26 -26 29 -36 29 -93 0 -39 6 -71 14 -84 8 -11 47 -33 88 -49 40
-15 81 -35 92 -44 86 -75 46 -228 -67 -256 -57 -15 -96 3 -178 81 -109 104
-112 103 -248 -30 l-106 -103 -60 19 c-169 52 -446 93 -717 104 -180 8 -181 7
27 54 231 52 532 91 814 106 181 9 181 10 181 165 0 102 2 115 22 136 30 32
72 30 109 -6z m880 -560 c26 -26 29 -36 29 -93 0 -39 6 -71 14 -84 8 -11 47
-33 88 -49 40 -15 81 -35 92 -44 86 -75 46 -228 -67 -256 -57 -15 -96 3 -178
81 -90 85 -118 93 -168 47 -53 -51 -529 -570 -546 -597 -24 -36 -14 -67 39
-118 77 -76 134 -221 154 -390 l8 -68 -60 58 c-93 89 -185 146 -308 192 -80
29 -214 59 -300 66 -73 6 -77 6 -102 -19 -22 -22 -26 -35 -26 -84 0 -53 12
-153 26 -211 l5 -24 -30 21 c-17 12 -56 34 -88 49 -50 23 -71 27 -154 27 -90
0 -99 -2 -170 -37 -84 -42 -135 -90 -177 -166 l-29 -53 -31 48 c-92 143 -141
301 -149 478 -6 134 8 219 51 303 171 337 799 567 1708 624 247 16 238 9 238
169 0 102 2 115 22 136 30 32 72 30 109 -6z m-2022 -55 c-2 -2 -60 -23 -129
-45 -248 -81 -433 -174 -550 -276 -100 -88 -150 -109 -440 -185 -163 -43 -225
-67 -319 -125 -124 -74 -281 -238 -387 -400 -66 -103 -118 -205 -107 -215 11
-9 135 -61 138 -58 1 2 15 28 30 58 74 148 196 306 315 407 82 71 219 143 310
163 133 30 341 94 405 125 39 18 96 56 128 84 79 69 127 101 232 153 233 117
543 203 825 230 l128 11 103 -32 c57 -18 124 -43 148 -56 l45 -22 -55 -13
c-30 -7 -106 -28 -169 -46 -453 -130 -753 -334 -865 -587 -112 -255 -51 -659
141 -935 24 -35 44 -65 44 -67 0 -3 -37 -5 -83 -5 l-82 0 -145 213 c-79 116
-162 232 -184 255 -58 63 -118 90 -239 107 -335 46 -538 67 -633 63 -95 -3
-106 -6 -187 -46 -187 -93 -297 -291 -285 -515 l5 -78 -141 3 -141 3 -18 70
c-27 104 -32 297 -13 424 63 411 325 726 766 920 93 41 171 88 274 164 175
129 436 219 714 246 90 9 429 14 421 7z m-995 -1391 c191 -24 292 -42 316 -54
26 -13 66 -63 162 -202 l127 -184 -651 -3 c-358 -1 -654 1 -657 4 -3 3 -6 47
-6 97 0 143 47 249 139 315 102 74 171 77 570 27z m2121 -49 c140 -66 255
-177 310 -301 34 -76 38 -95 23 -95 -7 0 -112 99 -233 221 -145 145 -211 219
-195 214 14 -4 57 -21 95 -39z m790 -176 c-190 -190 -245 -238 -245 -215 0 3
11 33 25 66 44 110 118 198 234 279 34 24 178 90 196 90 5 0 -89 -99 -210
-220z m-865 -55 l165 -165 -55 0 -54 0 -77 78 c-56 57 -86 98 -112 153 -32 66
-44 99 -34 99 1 0 76 -74 167 -165z m1174 68 c-27 -58 -57 -98 -113 -155 l-77
-78 -54 0 -55 0 165 165 c91 91 166 161 168 155 2 -5 -13 -45 -34 -87z m-1700
-5 c55 -16 138 -99 154 -154 23 -80 40 -74 -228 -74 -268 0 -251 -6 -228 74
15 51 99 137 148 153 48 15 105 15 154 1z m340 -213 c3 -8 1 -15 -4 -15 -6 0
-10 7 -10 15 0 8 2 15 4 15 2 0 6 -7 10 -15z m1426 -214 c0 -22 -7 -48 -17
-60 -10 -12 -85 -48 -167 -81 l-150 -60 -313 0 -313 0 0 -80 0 -80 275 0 276
0 -6 -32 c-3 -18 -30 -232 -60 -476 -59 -470 -63 -488 -122 -544 -15 -15 -48
-36 -73 -47 -45 -20 -56 -21 -1730 -21 -1674 0 -1685 1 -1730 21 -25 11 -58
32 -73 47 -59 56 -63 74 -122 544 -30 244 -57 458 -60 476 l-6 32 236 0 235 0
0 80 0 80 -273 0 -273 0 -150 60 c-82 33 -157 69 -166 81 -11 12 -18 38 -18
60 l0 39 2400 0 2400 0 0 -39z"/>
<path d="M1200 1360 l0 -80 80 0 80 0 0 80 0 80 -80 0 -80 0 0 -80z"/>
<path d="M3360 1360 l0 -80 80 0 80 0 0 80 0 80 -80 0 -80 0 0 -80z"/>
<path d="M3680 1360 l0 -80 80 0 80 0 0 80 0 80 -80 0 -80 0 0 -80z"/>
<path d="M800 4160 l0 -80 80 0 80 0 0 80 0 80 -80 0 -80 0 0 -80z"/>
<path d="M1040 4160 l0 -80 80 0 80 0 0 80 0 80 -80 0 -80 0 0 -80z"/>
<path d="M560 3840 l0 -80 80 0 80 0 0 80 0 80 -80 0 -80 0 0 -80z"/>
<path d="M800 3840 l0 -80 80 0 80 0 0 80 0 80 -80 0 -80 0 0 -80z"/>
<path d="M560 3520 l0 -80 80 0 80 0 0 80 0 80 -80 0 -80 0 0 -80z"/>
</g>
</svg>
