<?xml version="1.0" standalone="no"?>
<!DOCTYPE svg PUBLIC "-//W3C//DTD SVG 20010904//EN"
 "http://www.w3.org/TR/2001/REC-SVG-20010904/DTD/svg10.dtd">
<svg version="1.0" xmlns="http://www.w3.org/2000/svg"
 width="320.000000pt" height="300.000000pt" viewBox="0 0 320.000000 300.000000"
 preserveAspectRatio="xMidYMid meet">

<g transform="translate(0.000000,300.000000) scale(0.100000,-0.100000)"
fill="#000000" stroke="none">
<path d="M880 2889 c-86 -35 -131 -107 -138 -221 l-5 -78 -311 -2 -311 -3 -3
-829 c-2 -657 0 -831 10 -838 7 -4 131 -8 276 -8 l262 0 0 -93 c0 -144 36
-247 102 -295 18 -13 16 -16 -25 -53 -56 -49 -77 -93 -77 -161 0 -71 32 -133
89 -173 l43 -30 683 0 683 0 44 30 c124 88 123 276 -2 347 -22 13 -40 27 -40
31 0 4 63 96 141 203 l141 194 317 0 c233 0 320 3 329 12 19 19 17 1641 -1
1657 -10 7 -135 12 -398 13 l-384 3 -5 87 c-5 77 -9 91 -37 130 -17 24 -50 53
-74 65 -83 45 -217 22 -269 -45 l-21 -25 -32 30 c-49 47 -89 63 -157 63 -68 0
-108 -16 -157 -63 l-32 -30 -21 25 c-31 41 -98 68 -163 68 -69 0 -112 -16
-155 -60 l-32 -32 -41 36 c-22 21 -51 41 -65 46 -32 13 -132 12 -164 -1z m168
-76 c53 -39 66 -68 66 -145 l1 -73 -154 -3 -153 -3 3 78 c4 89 25 128 81 157
42 21 120 16 156 -11z m362 7 c55 -28 80 -80 80 -165 l0 -66 -152 3 -153 3 0
72 c0 57 4 77 21 100 53 71 129 91 204 53z m364 6 c65 -27 101 -104 90 -190
l-7 -46 -148 0 -149 0 0 74 c0 59 4 79 23 107 41 62 120 85 191 55z m386 -8
c58 -40 74 -71 78 -154 l4 -74 -156 0 -156 0 0 66 c0 49 6 76 21 104 42 75
143 103 209 58z m-1639 -323 c-16 -143 -167 -297 -306 -313 l-45 -5 0 170 c0
93 3 173 7 177 4 3 84 5 177 4 l171 -3 -4 -30z m2509 -141 l0 -177 -39 6
c-141 19 -285 161 -307 305 l-7 42 177 0 176 0 0 -176z m-432 95 c39 -170 202
-331 358 -355 l44 -6 0 -332 0 -331 -73 -23 c-163 -51 -286 -180 -329 -344 -8
-33 -17 -48 -28 -48 -15 0 -15 5 2 57 31 91 20 124 -145 425 -136 248 -144
267 -150 331 -9 94 -55 221 -111 305 -121 183 -341 301 -559 302 -442 1 -764
-406 -665 -840 6 -25 30 -87 55 -139 38 -79 59 -108 127 -176 135 -135 290
-198 481 -198 143 0 266 37 375 111 72 49 67 35 -37 -106 l-54 -72 -636 2
-637 3 -11 45 c-43 167 -166 294 -332 343 l-73 21 2 329 3 330 54 14 c162 41
298 174 341 333 7 25 14 51 16 58 3 9 209 12 987 12 l984 0 11 -51z m-841
-133 c162 -43 310 -170 379 -324 31 -69 30 -82 -3 -49 -109 104 -303 53 -342
-90 -22 -79 -17 -94 112 -332 75 -139 97 -188 90 -200 -17 -28 -129 -98 -195
-121 -88 -31 -249 -38 -338 -15 -256 66 -440 297 -442 555 -1 47 5 110 12 140
51 225 246 409 473 450 64 11 184 4 254 -14z m286 -390 c18 -7 41 -24 53 -37
12 -13 105 -177 208 -365 165 -302 186 -346 186 -387 0 -49 15 -26 -334 -510
l-77 -107 -592 0 c-666 0 -641 -2 -705 76 -43 52 -52 89 -52 212 l0 102 561 0
561 0 -21 -34 c-25 -40 -27 -64 -6 -73 23 -8 40 11 185 213 l133 185 -15 32
c-9 18 -73 138 -144 267 -124 227 -128 237 -128 297 -1 52 3 65 24 88 47 51
105 66 163 41z m-1736 -636 c107 -49 185 -147 211 -267 l10 -43 -179 0 -179 0
0 176 0 176 38 -6 c20 -4 65 -20 99 -36z m2723 -135 l0 -175 -176 0 -176 0 7
38 c17 98 95 208 184 260 40 23 116 50 149 51 9 1 12 -40 12 -174z m-882 -719
c55 -29 77 -63 77 -121 0 -62 -23 -100 -76 -127 -31 -17 -84 -18 -672 -18
-722 0 -686 -4 -734 77 -40 68 -20 141 50 183 31 19 55 20 680 20 537 0 653
-2 675 -14z"/>
<path d="M520 1975 c-100 -32 -160 -115 -160 -221 0 -180 177 -288 338 -208
170 85 170 327 1 414 -51 26 -125 33 -179 15z m147 -105 c89 -54 82 -200 -11
-244 -70 -33 -146 -10 -186 56 -37 62 -16 152 44 189 41 25 112 25 153 -1z"/>
<path d="M2542 1976 c-62 -20 -106 -59 -136 -118 -44 -89 -32 -189 32 -260 48
-53 102 -78 175 -78 207 -1 310 240 168 393 -57 62 -159 89 -239 63z m145
-106 c45 -27 66 -64 66 -115 0 -113 -123 -183 -214 -122 -89 59 -89 185 1 241
35 22 108 20 147 -4z"/>
<path d="M1582 2228 c-7 -7 -12 -42 -12 -85 l0 -73 -30 0 c-89 0 -174 -111
-155 -203 20 -96 93 -146 213 -147 89 0 128 -18 149 -67 20 -48 10 -92 -28
-129 l-30 -29 -149 -3 c-123 -3 -149 -6 -154 -19 -13 -32 13 -43 100 -43 l83
0 3 -77 c3 -76 4 -78 28 -78 24 0 25 2 28 78 3 74 4 77 27 77 58 0 126 48 151
107 33 78 2 176 -70 218 -34 20 -57 25 -107 25 -128 0 -179 34 -179 117 0 38
5 50 34 79 l34 34 138 0 c77 0 145 4 152 9 8 5 12 17 10 27 -3 16 -15 20 -93
24 l-90 5 -3 75 c-3 83 -20 108 -50 78z"/>
</g>
</svg>
