<?xml version="1.0" standalone="no"?>
<!DOCTYPE svg PUBLIC "-//W3C//DTD SVG 20010904//EN"
 "http://www.w3.org/TR/2001/REC-SVG-20010904/DTD/svg10.dtd">
<svg version="1.0" xmlns="http://www.w3.org/2000/svg"
 width="900.000000pt" height="900.000000pt" viewBox="0 0 900.000000 900.000000"
 preserveAspectRatio="xMidYMid meet">

<g transform="translate(0.000000,900.000000) scale(0.100000,-0.100000)"
fill="#000000" stroke="none">
<path d="M1525 8195 c-50 -18 -110 -81 -124 -131 -15 -52 -14 -536 0 -589 14
-50 84 -120 136 -134 21 -6 72 -11 114 -11 45 0 80 -5 87 -12 8 -8 12 -58 12
-159 0 -174 -25 -291 -90 -428 -85 -176 -187 -288 -395 -428 -231 -157 -394
-405 -452 -689 -17 -84 -18 -204 -18 -2184 0 -1743 2 -2104 14 -2150 46 -184
183 -332 368 -397 l78 -28 419 -3 c276 -2 422 0 429 7 6 6 16 7 27 1 10 -5
102 -9 205 -8 178 1 187 2 194 21 8 20 8 20 13 -1 l6 -22 2799 3 2798 2 0
2235 0 2235 -1064 3 c-766 1 -1068 5 -1078 13 -20 17 -20 1481 0 1498 10 8
218 12 718 13 l704 3 0 315 0 315 -795 0 c-868 0 -844 1 -970 -59 -85 -41
-204 -157 -244 -241 -63 -130 -60 -83 -63 -994 -3 -581 -7 -839 -15 -848 -15
-19 -761 -19 -776 0 -5 6 -13 55 -17 107 -21 289 -114 510 -295 704 -61 65
-101 97 -249 202 -210 148 -334 330 -391 574 -24 101 -29 367 -8 388 7 7 42
12 87 12 106 0 148 14 198 66 62 64 65 87 61 398 -3 232 -6 276 -20 302 -24
45 -82 92 -126 104 -26 7 -406 10 -1138 9 -909 0 -1106 -3 -1139 -14z m2253
-158 c18 -21 17 -516 0 -533 -18 -19 -2192 -21 -2214 -3 -19 16 -21 518 -2
537 18 18 2201 17 2216 -1z m3479 -719 c18 -14 18 -279 1 -296 -17 -17 -1119
-17 -1136 0 -18 18 -17 282 1 297 25 20 1109 20 1134 -1z m-3839 0 c8 -8 12
-47 12 -107 0 -127 15 -259 39 -353 65 -252 227 -478 456 -635 187 -129 278
-226 360 -384 64 -123 96 -241 102 -374 5 -89 3 -113 -9 -122 -8 -7 -57 -13
-119 -15 l-104 -3 -2 -225 c-3 -215 -4 -226 -24 -242 -20 -17 -108 -18 -1539
-18 -1513 0 -1518 0 -1513 -20 5 -17 14 -20 64 -20 32 0 70 -4 84 -10 24 -9
26 -13 20 -54 -5 -28 -3 -46 4 -50 8 -5 11 12 11 53 l0 61 94 0 c116 0 154 -7
155 -29 0 -9 4 -95 9 -191 4 -96 5 -187 1 -201 -5 -21 -5 -197 0 -496 1 -33 5
-43 17 -43 14 0 15 -7 10 -45 -4 -27 -3 -45 2 -45 14 0 22 25 23 68 0 20 4 46
9 57 7 14 9 -2 7 -52 -1 -39 2 -69 6 -66 9 6 8 193 -2 193 -3 0 -15 -18 -25
-40 -11 -22 -23 -40 -29 -40 -10 0 1 96 14 122 12 23 11 61 -1 53 -6 -4 -10
13 -10 44 0 28 -4 51 -10 51 -18 0 -12 70 7 77 14 6 15 28 9 238 -4 128 -10
255 -15 283 l-8 50 31 5 c17 3 396 6 843 6 l811 1 -5 -267 c-3 -148 -7 -270
-9 -272 -7 -8 -33 22 -27 32 3 6 1 7 -5 3 -6 -4 -29 2 -51 13 -233 119 -563
137 -785 42 -27 -12 -57 -19 -67 -16 -13 4 -19 1 -19 -8 0 -8 -7 -17 -15 -20
-33 -13 -160 -103 -211 -149 -66 -61 -165 -191 -205 -269 -74 -147 -105 -280
-102 -442 2 -198 50 -360 154 -517 72 -110 133 -176 222 -243 186 -140 356
-197 588 -197 165 0 306 32 437 99 l37 19 -2 -264 c-2 -166 1 -265 7 -269 7
-4 10 89 10 268 l0 275 34 20 c28 16 36 18 40 7 3 -9 0 -12 -8 -9 -11 4 -13
-43 -13 -248 -1 -306 2 -328 31 -328 12 0 16 3 10 8 -17 11 -23 218 -6 215 8
-2 12 10 13 35 0 20 2 73 5 117 3 44 1 106 -4 137 -5 31 -5 63 -1 70 4 7 3 18
-2 24 -7 9 5 25 42 56 28 23 57 42 63 40 6 -2 8 -1 4 3 -3 4 16 35 44 68 63
79 121 175 153 258 88 221 90 480 6 706 -47 126 -160 287 -265 377 -31 26 -55
50 -55 54 1 4 0 39 -1 77 -2 54 -4 62 -9 35 -6 -34 -6 -33 -20 28 -10 47 -12
102 -7 225 4 89 10 172 13 185 l5 22 372 0 c204 0 381 -3 393 -6 18 -5 23 -15
26 -58 l3 -51 2 58 2 57 35 0 35 0 1 -177 c0 -98 1 -711 2 -1363 l2 -1185 23
-22 22 -23 1 -397 c1 -544 0 -596 -15 -611 -10 -10 -172 -12 -790 -12 l-778 0
-6 -22 -5 -22 -8 21 c-8 21 -11 21 -438 21 -269 0 -433 -3 -437 -9 -4 -7 -10
-7 -17 0 -7 5 -102 11 -212 13 -195 3 -202 4 -261 31 -78 36 -164 122 -201
202 l-28 60 -3 360 c-3 360 -3 360 19 378 l22 17 1 1391 1 1390 -23 15 -23 15
4 352 c4 396 8 420 86 583 83 174 176 278 355 402 354 243 526 580 515 1006
-2 58 1 90 10 100 12 14 92 16 750 16 560 0 740 -3 749 -12z m2520 0 c8 -8 12
-49 12 -120 0 -103 -1 -108 -24 -123 -32 -21 -44 -15 -133 78 -73 75 -89 111
-60 135 42 34 180 55 205 30z m-251 -270 c93 -90 99 -102 78 -134 -15 -23 -20
-24 -123 -24 -71 0 -112 4 -120 12 -24 24 -4 162 31 206 22 29 59 12 134 -60z
m131 -330 c17 -17 17 -1359 0 -1376 -8 -8 -56 -12 -148 -12 -92 0 -140 4 -148
12 -17 17 -17 1359 0 1376 8 8 56 12 148 12 92 0 140 -4 148 -12z m960 -1560
c17 -17 17 -519 0 -536 -17 -17 -2439 -17 -2456 0 -17 17 -17 519 0 536 17 17
2439 17 2456 0z m1056 -4 c25 -24 19 -47 -22 -95 -21 -24 -60 -71 -88 -105
-197 -242 -227 -274 -254 -274 -23 0 -53 31 -204 213 -97 116 -176 220 -176
229 0 9 7 24 16 32 13 14 60 16 364 16 304 0 351 -2 364 -16z m-793 -231 c34
-36 61 -68 267 -316 l82 -100 0 -1736 c0 -1338 -3 -1740 -12 -1749 -19 -19
-402 -17 -417 2 -11 13 -13 739 -11 3779 0 104 2 119 20 137 27 27 30 26 71
-17z m939 7 c15 -28 14 -3888 -1 -3906 -16 -20 -401 -20 -417 -1 -12 14 -13
308 -12 2533 l0 951 136 164 c223 269 233 279 259 279 14 0 29 -9 35 -20z
m-1201 -493 c17 -22 16 -2436 -2 -2454 -18 -18 -2431 -21 -2453 -2 -12 10 -14
191 -14 1228 0 933 3 1220 12 1229 19 19 2441 17 2457 -1z m-3880 -310 c81
-29 146 -64 204 -110 39 -32 47 -60 26 -98 -6 -13 -7 -25 -1 -32 5 -7 12 -216
15 -490 l5 -477 -33 -28 c-56 -46 -136 -90 -215 -119 -68 -25 -88 -27 -220
-27 -134 -1 -152 1 -234 28 -199 65 -374 233 -445 426 -68 189 -56 387 37 579
51 107 184 240 299 299 129 67 203 83 358 78 109 -3 142 -7 204 -29z m311
-225 c-6 -2 -10 -37 -10 -85 1 -62 3 -78 11 -64 9 15 13 16 26 5 13 -11 15 -5
12 45 -2 31 -2 57 1 57 10 0 50 -70 75 -132 41 -101 55 -169 55 -269 -1 -190
-56 -337 -183 -489 -15 -18 -29 -31 -31 -29 -2 2 -6 235 -9 517 l-4 513 34
-33 c18 -18 29 -34 23 -36z m1514 -2051 c-5 -6 -33 31 -33 44 -1 6 8 -1 19
-15 10 -14 17 -27 14 -29z m920 -38 c814 -2 1122 -6 1132 -14 19 -16 21 -758
2 -777 -19 -19 -2441 -17 -2457 1 -17 21 -16 768 1 778 7 5 52 9 101 9 l87 0
1 28 1 27 7 -25 7 -25 1118 -2z m-3507 -880 c-4 -17 -4 -17 -12 0 -4 9 -4 25
0 35 8 16 8 16 12 0 3 -10 3 -26 0 -35z m1660 25 c-3 -8 -6 -5 -6 6 -1 11 2
17 5 13 3 -3 4 -12 1 -19z m-2108 -36 c1 -7 -3 -10 -9 -7 -5 3 -10 18 -9 33 0
24 1 25 9 7 5 -11 9 -26 9 -33z m178 -34 c-3 -8 -6 -5 -6 6 -1 11 2 17 5 13 3
-3 4 -12 1 -19z"/>
<path d="M1590 7769 l1 -240 27 3 27 3 3 208 2 207 1050 0 1050 0 0 30 0 30
-1080 0 -1080 0 0 -241z"/>
<path d="M6150 7169 l0 -120 28 3 c27 3 27 3 30 91 l3 87 509 0 510 0 0 30 0
30 -540 0 -540 0 0 -121z"/>
<path d="M1950 7161 c0 -424 -174 -745 -543 -1000 -161 -111 -251 -214 -327
-373 -78 -162 -84 -200 -87 -571 l-3 -328 28 3 27 3 6 310 c5 280 8 317 27
380 68 218 193 388 380 514 178 121 274 216 374 371 115 179 177 409 178 658
l0 102 690 0 690 0 0 30 0 30 -720 0 -720 0 0 -129z"/>
<path d="M3796 6253 c87 -75 290 -219 255 -180 -13 14 -56 47 -95 73 -39 26
-89 61 -111 79 -45 35 -81 57 -49 28z"/>
<path d="M1614 5856 c19 -31 39 -63 46 -71 9 -11 -1 -26 -54 -78 -100 -98
-136 -197 -136 -374 l0 -82 -111 -3 -111 -3 26 -27 c24 -27 28 -28 139 -28
l115 0 4 133 c4 125 6 136 37 200 22 45 53 89 93 127 l60 59 -29 43 c-16 24
-41 64 -56 89 -14 25 -33 51 -41 59 -9 7 -1 -13 18 -44z"/>
<path d="M1445 5829 c-116 -123 -181 -301 -173 -471 l3 -63 75 0 75 0 6 110
c9 151 43 237 128 320 23 21 41 45 41 52 0 17 -68 123 -79 123 -5 0 -39 -32
-76 -71z"/>
<path d="M1026 4796 c3 -8 12 -12 20 -9 21 8 17 23 -6 23 -13 0 -18 -5 -14
-14z"/>
<path d="M1586 4749 c-10 -49 -7 -317 3 -324 6 -3 10 67 11 175 0 99 -1 180
-4 180 -2 0 -6 -14 -10 -31z"/>
<path d="M3330 4750 c0 -11 2 -20 4 -20 2 0 6 9 9 20 3 11 1 20 -4 20 -5 0 -9
-9 -9 -20z"/>
<path d="M1048 4753 c-9 -19 -9 -123 0 -123 11 0 21 120 10 126 -4 2 -8 1 -10
-3z"/>
<path d="M2370 4744 c0 -8 5 -12 10 -9 6 3 10 10 10 16 0 5 -4 9 -10 9 -5 0
-10 -7 -10 -16z"/>
<path d="M1672 4720 c0 -19 2 -27 5 -17 2 9 2 25 0 35 -3 9 -5 1 -5 -18z"/>
<path d="M3154 4660 c0 -52 1 -74 3 -47 2 26 2 68 0 95 -2 26 -3 4 -3 -48z"/>
<path d="M3027 4622 c3 -40 9 -87 14 -105 5 -20 6 0 2 53 -3 47 -9 94 -14 105
-5 12 -6 -9 -2 -53z"/>
<path d="M3381 4664 c0 -11 3 -14 6 -6 3 7 2 16 -1 19 -3 4 -6 -2 -5 -13z"/>
<path d="M3913 4610 c0 -41 2 -58 4 -37 2 20 2 54 0 75 -2 20 -4 3 -4 -38z"/>
<path d="M1210 4624 c0 -10 5 -26 10 -34 8 -11 9 -7 4 15 -8 37 -14 45 -14 19z"/>
<path d="M1404 4525 c0 -66 1 -92 3 -57 2 34 2 88 0 120 -2 31 -3 3 -3 -63z"/>
<path d="M3631 4614 c0 -11 3 -14 6 -6 3 7 2 16 -1 19 -3 4 -6 -2 -5 -13z"/>
<path d="M1862 4590 c0 -19 2 -27 5 -17 2 9 2 25 0 35 -3 9 -5 1 -5 -18z"/>
<path d="M3372 4600 c0 -14 2 -19 5 -12 2 6 2 18 0 25 -3 6 -5 1 -5 -13z"/>
<path d="M1060 4560 c0 -5 5 -10 10 -10 6 0 10 5 10 10 0 6 -4 10 -10 10 -5 0
-10 -4 -10 -10z"/>
<path d="M3256 4554 c-3 -8 -11 -12 -18 -8 -8 5 -9 0 -5 -17 4 -13 7 -53 8
-89 0 -36 3 -58 6 -50 2 8 7 22 10 30 5 13 11 150 7 150 -1 0 -5 -7 -8 -16z"/>
<path d="M4032 4490 c-1 -47 -5 -103 -8 -125 -5 -30 -4 -37 5 -29 8 7 11 47 8
125 -2 102 -3 105 -5 29z"/>
<path d="M1216 4479 c3 -41 8 -76 10 -78 2 -2 4 28 4 67 0 39 -5 74 -11 77 -7
5 -8 -15 -3 -66z"/>
<path d="M2052 4520 c0 -19 2 -27 5 -17 2 9 2 25 0 35 -3 9 -5 1 -5 -18z"/>
<path d="M3362 4520 c0 -19 2 -27 5 -17 2 9 2 25 0 35 -3 9 -5 1 -5 -18z"/>
<path d="M1163 4465 c0 -33 2 -45 4 -27 2 18 2 45 0 60 -2 15 -4 0 -4 -33z"/>
<path d="M1754 4405 c0 -66 1 -92 3 -57 2 34 2 88 0 120 -2 31 -3 3 -3 -63z"/>
<path d="M3801 4504 c0 -11 3 -14 6 -6 3 7 2 16 -1 19 -3 4 -6 -2 -5 -13z"/>
<path d="M1462 4250 c0 -124 3 -274 9 -335 5 -60 10 -158 12 -217 1 -60 5
-108 8 -108 14 0 19 137 9 210 -6 41 -15 203 -20 360 -5 157 -12 292 -14 300
-2 8 -4 -86 -4 -210z"/>
<path d="M3353 4410 c0 -30 2 -43 4 -27 2 15 2 39 0 55 -2 15 -4 2 -4 -28z"/>
<path d="M3155 4420 c-8 -13 -2 -110 8 -110 4 0 7 27 7 60 0 59 -3 69 -15 50z"/>
<path d="M2230 4386 c0 -9 5 -16 10 -16 6 0 10 4 10 9 0 6 -4 13 -10 16 -5 3
-10 -1 -10 -9z"/>
<path d="M1222 4340 c0 -14 2 -19 5 -12 2 6 2 18 0 25 -3 6 -5 1 -5 -13z"/>
<path d="M1251 4344 c0 -11 3 -14 6 -6 3 7 2 16 -1 19 -3 4 -6 -2 -5 -13z"/>
<path d="M1801 4324 c0 -11 3 -14 6 -6 3 7 2 16 -1 19 -3 4 -6 -2 -5 -13z"/>
<path d="M1404 4240 c0 -52 1 -74 3 -47 2 26 2 68 0 95 -2 26 -3 4 -3 -48z"/>
<path d="M3562 4300 c0 -14 2 -19 5 -12 2 6 2 18 0 25 -3 6 -5 1 -5 -13z"/>
<path d="M1603 4210 c0 -25 2 -35 4 -22 2 12 2 32 0 45 -2 12 -4 2 -4 -23z"/>
<path d="M4022 4230 c0 -14 2 -19 5 -12 2 6 2 18 0 25 -3 6 -5 1 -5 -13z"/>
<path d="M1080 4200 c0 -5 5 -10 11 -10 5 0 7 5 4 10 -3 6 -8 10 -11 10 -2 0
-4 -4 -4 -10z"/>
<path d="M1226 4145 c3 -38 6 -79 6 -90 0 -13 7 -21 19 -21 16 0 19 7 17 46
l-1 45 -5 -40 c-5 -38 -6 -35 -23 45 l-19 85 6 -70z"/>
<path d="M3662 4175 c0 -16 2 -22 5 -12 2 9 2 23 0 30 -3 6 -5 -1 -5 -18z"/>
<path d="M3731 4154 c0 -11 3 -14 6 -6 3 7 2 16 -1 19 -3 4 -6 -2 -5 -13z"/>
<path d="M1732 4135 c0 -16 2 -22 5 -12 2 9 2 23 0 30 -3 6 -5 -1 -5 -18z"/>
<path d="M4034 4015 c0 -71 1 -99 3 -62 2 37 2 96 0 130 -2 34 -3 4 -3 -68z"/>
<path d="M1141 4068 c1 -68 6 -61 11 15 2 26 0 47 -4 47 -5 0 -7 -28 -7 -62z"/>
<path d="M1403 4080 c0 -25 2 -35 4 -22 2 12 2 32 0 45 -2 12 -4 2 -4 -23z"/>
<path d="M1663 4075 c0 -22 2 -30 4 -17 2 12 2 30 0 40 -3 9 -5 -1 -4 -23z"/>
<path d="M1100 3853 c1 -109 -3 -231 -9 -271 -6 -42 -7 -80 -3 -89 13 -23 32
238 30 410 -1 81 -6 147 -11 147 -4 0 -7 -89 -7 -197z"/>
<path d="M1731 4014 c0 -11 3 -14 6 -6 3 7 2 16 -1 19 -3 4 -6 -2 -5 -13z"/>
<path d="M1403 3975 c0 -22 2 -30 4 -17 2 12 2 30 0 40 -3 9 -5 -1 -4 -23z"/>
<path d="M1255 3990 c-3 -6 -17 -7 -31 -4 -27 7 -32 -7 -9 -26 11 -9 15 -9 15
-1 0 7 4 10 9 7 14 -9 41 4 41 20 0 16 -16 19 -25 4z"/>
<path d="M1595 3979 c-11 -16 -1 -19 13 -3 7 8 8 14 3 14 -5 0 -13 -5 -16 -11z"/>
<path d="M1143 3910 c0 -36 2 -50 4 -32 2 17 2 47 0 65 -2 17 -4 3 -4 -33z"/>
<path d="M1172 3891 c-1 -47 2 -81 6 -75 5 5 5 43 2 84 l-7 75 -1 -84z"/>
<path d="M3784 3885 c0 -49 1 -71 3 -48 2 23 2 64 0 90 -2 26 -3 8 -3 -42z"/>
<path d="M1210 3891 c0 -6 5 -13 10 -16 6 -3 10 1 10 9 0 9 -4 16 -10 16 -5 0
-10 -4 -10 -9z"/>
<path d="M1018 3813 c-4 -56 -2 -71 6 -62 10 10 18 119 8 119 -6 0 -12 -26
-14 -57z"/>
<path d="M1249 3860 c0 -8 0 -102 0 -207 1 -116 -2 -193 -8 -193 -16 0 -19 22
-15 145 2 74 0 106 -5 84 -4 -20 -19 -48 -34 -63 -17 -17 -27 -37 -26 -54 l0
-27 12 25 c14 30 29 42 40 31 9 -9 -1 -61 -12 -61 -4 0 -8 -25 -9 -56 -1 -30
-3 -58 -3 -62 -3 -20 2 -32 11 -27 6 3 10 -2 11 -12 1 -10 3 -62 5 -117 4
-120 14 -139 15 -30 1 78 1 78 10 29 10 -57 4 -287 -11 -385 -12 -82 -12 -82
0 -75 6 3 10 2 10 -4 0 -5 -6 -12 -12 -15 -10 -5 -10 -7 0 -12 6 -3 10 -10 6
-15 -3 -5 2 -9 11 -9 13 0 16 9 14 43 -6 83 13 367 25 367 21 0 23 248 2 349
-11 52 -11 61 1 57 9 -4 13 3 13 19 0 26 -14 34 -24 13 -3 -7 -4 46 -3 119 1
94 -2 136 -11 145 -9 9 -12 9 -13 -2z m31 -660 c0 -5 -4 -10 -10 -10 -5 0 -10
5 -10 10 0 6 5 10 10 10 6 0 10 -4 10 -10z"/>
<path d="M1219 3828 c-4 -46 -3 -81 4 -85 4 -2 7 19 7 46 0 28 -2 51 -5 51 -3
0 -6 -6 -6 -12z"/>
<path d="M1651 3814 c0 -11 3 -14 6 -6 3 7 2 16 -1 19 -3 4 -6 -2 -5 -13z"/>
<path d="M1712 3794 c0 -25 3 -33 9 -23 11 18 12 59 0 59 -5 0 -9 -16 -9 -36z"/>
<path d="M1394 3470 c0 -184 2 -260 3 -167 2 92 2 242 0 335 -1 92 -3 16 -3
-168z"/>
<path d="M3733 3725 c0 -44 2 -61 4 -37 2 23 2 59 0 80 -2 20 -4 1 -4 -43z"/>
<path d="M1463 3705 c0 -27 2 -38 4 -22 2 15 2 37 0 50 -2 12 -4 0 -4 -28z"/>
<path d="M1011 3670 c0 -33 1 -34 10 -11 6 16 6 28 -1 35 -7 7 -10 -1 -9 -24z"/>
<path d="M1578 3678 c0 -13 -1 -29 -1 -35 1 -7 -3 -11 -7 -8 -4 2 -15 -1 -25
-9 -14 -10 -16 -20 -10 -54 8 -48 25 -56 25 -13 0 56 19 42 23 -16 3 -53 3
-52 5 18 1 42 5 91 8 108 4 20 3 31 -5 31 -6 0 -12 -10 -13 -22z"/>
<path d="M4071 3477 c1 -96 5 -192 9 -213 5 -23 8 46 9 168 1 130 -3 209 -9
213 -7 4 -10 -52 -9 -168z"/>
<path d="M1633 3595 c0 -27 2 -38 4 -22 2 15 2 37 0 50 -2 12 -4 0 -4 -28z"/>
<path d="M4030 3463 c0 -65 -2 -206 -5 -313 -7 -224 -6 -321 3 -405 4 -33 8
141 10 388 2 246 1 447 -2 447 -4 0 -6 -53 -6 -117z"/>
<path d="M1480 3535 c0 -8 5 -15 10 -15 6 0 10 7 10 15 0 8 -4 15 -10 15 -5 0
-10 -7 -10 -15z"/>
<path d="M1485 3471 c-3 -5 -1 -12 5 -16 5 -3 10 1 10 9 0 18 -6 21 -15 7z"/>
<path d="M1611 3464 c0 -11 3 -14 6 -6 3 7 2 16 -1 19 -3 4 -6 -2 -5 -13z"/>
<path d="M1530 3404 c0 -12 6 -36 14 -54 13 -31 13 -31 19 -9 8 28 8 80 0 61
-4 -10 -8 -9 -19 5 -13 17 -13 17 -14 -3z"/>
<path d="M1072 3380 c0 -14 2 -19 5 -12 2 6 2 18 0 25 -3 6 -5 1 -5 -13z"/>
<path d="M1613 3350 c0 -30 2 -43 4 -27 2 15 2 39 0 55 -2 15 -4 2 -4 -28z"/>
<path d="M3796 3303 c-4 -9 -2 -21 4 -27 7 -7 10 -2 10 17 0 31 -5 34 -14 10z"/>
<path d="M1580 3226 c0 -36 5 -68 10 -71 6 -4 10 18 10 59 0 36 -4 68 -10 71
-6 4 -10 -18 -10 -59z"/>
<path d="M1626 3221 c-4 -7 -5 -15 -2 -18 9 -9 19 4 14 18 -4 11 -6 11 -12 0z"/>
<path d="M1191 3204 c0 -11 3 -14 6 -6 3 7 2 16 -1 19 -3 4 -6 -2 -5 -13z"/>
<path d="M1202 3038 c-20 -189 -21 -202 -30 -243 -8 -41 -1 -98 10 -79 4 6 12
62 18 125 6 63 15 154 21 203 6 51 6 93 1 98 -5 5 -14 -39 -20 -104z"/>
<path d="M1388 3073 c-2 -21 -1 -67 2 -103 7 -61 7 -59 8 38 2 105 -2 130 -10
65z"/>
<path d="M1538 3045 c-6 -74 1 -152 13 -133 5 7 9 35 9 62 0 58 11 55 17 -6 3
-24 9 -47 15 -53 9 -10 7 12 -11 105 -4 19 -11 33 -16 30 -6 -3 -12 9 -15 25
-5 24 -7 17 -12 -30z"/>
<path d="M3836 3077 c3 -10 9 -15 12 -12 3 3 0 11 -7 18 -10 9 -11 8 -5 -6z"/>
<path d="M3851 3040 c0 -8 4 -22 9 -30 12 -18 12 -2 0 25 -6 13 -9 15 -9 5z"/>
<path d="M1492 2990 c0 -14 2 -19 5 -12 2 6 2 18 0 25 -3 6 -5 1 -5 -13z"/>
<path d="M3594 2987 c-3 -10 -1 -24 6 -32 6 -8 9 -19 5 -25 -4 -6 -4 -23 0
-38 7 -25 8 -25 15 -7 9 23 2 95 -11 109 -5 6 -11 2 -15 -7z"/>
<path d="M1486 2893 c9 -78 14 -79 14 -5 0 35 -4 62 -10 62 -6 0 -8 -21 -4
-57z"/>
<path d="M1272 2838 c-1 -46 2 -77 7 -70 11 17 13 152 3 152 -5 0 -9 -37 -10
-82z"/>
<path d="M1591 2874 c0 -11 3 -14 6 -6 3 7 2 16 -1 19 -3 4 -6 -2 -5 -13z"/>
<path d="M1380 2686 c0 -101 -2 -205 -5 -232 -4 -45 -4 -46 5 -14 15 57 26
430 12 430 -9 0 -12 -51 -12 -184z"/>
<path d="M3626 2837 c3 -10 9 -15 12 -12 3 3 0 11 -7 18 -10 9 -11 8 -5 -6z"/>
<path d="M1082 2795 c0 -16 2 -22 5 -12 2 9 2 23 0 30 -3 6 -5 -1 -5 -18z"/>
<path d="M1492 2790 c0 -19 2 -27 5 -17 2 9 2 25 0 35 -3 9 -5 1 -5 -18z"/>
<path d="M3550 2812 c0 -21 13 -43 32 -53 18 -10 19 -9 7 13 -15 28 -39 53
-39 40z"/>
<path d="M3991 2755 l1 -60 9 44 c5 26 5 50 -1 60 -7 11 -9 -2 -9 -44z"/>
<path d="M1463 2755 c0 -22 2 -30 4 -17 2 12 2 30 0 40 -3 9 -5 -1 -4 -23z"/>
<path d="M1027 2767 c-3 -8 -8 -40 -11 -73 l-5 -59 13 70 c13 67 14 91 3 62z"/>
<path d="M1533 2740 c0 -25 2 -35 4 -22 2 12 2 32 0 45 -2 12 -4 2 -4 -23z"/>
<path d="M1070 2723 c-3 -23 -2 -39 3 -34 5 5 7 24 5 42 -3 33 -4 33 -8 -8z"/>
<path d="M3370 2742 c0 -5 7 -17 16 -28 14 -17 15 -17 10 -1 -3 10 -6 23 -6
28 0 5 -4 9 -10 9 -5 0 -10 -4 -10 -8z"/>
<path d="M3600 2732 c0 -12 56 -98 69 -106 20 -13 12 8 -24 62 -34 50 -45 61
-45 44z"/>
<path d="M1255 2688 c-8 -43 -8 -43 -15 -13 -5 23 -8 26 -14 14 -13 -30 -3
-92 16 -95 9 -1 15 3 12 10 -2 7 2 31 11 55 17 49 19 71 6 71 -5 0 -12 -19
-16 -42z"/>
<path d="M1488 2705 c-3 -14 -1 -25 3 -25 5 0 9 11 9 25 0 14 -2 25 -4 25 -2
0 -6 -11 -8 -25z"/>
<path d="M1170 2675 c0 -14 4 -25 9 -25 12 0 19 21 13 38 -8 21 -22 13 -22
-13z"/>
<path d="M1350 2667 c0 -14 -4 -36 -9 -50 -5 -13 -6 -29 -1 -36 4 -8 10 10 15
44 3 31 4 59 1 63 -3 3 -6 -6 -6 -21z"/>
<path d="M3406 2677 c3 -10 9 -15 12 -12 3 3 0 11 -7 18 -10 9 -11 8 -5 -6z"/>
<path d="M1463 2620 c0 -36 2 -50 4 -32 2 17 2 47 0 65 -2 17 -4 3 -4 -33z"/>
<path d="M1521 2664 c0 -11 3 -14 6 -6 3 7 2 16 -1 19 -3 4 -6 -2 -5 -13z"/>
<path d="M3600 2621 c0 -6 4 -13 10 -16 6 -3 7 1 4 9 -7 18 -14 21 -14 7z"/>
<path d="M1151 2602 c-1 -13 3 -21 7 -18 4 2 7 -39 5 -92 -2 -83 -1 -89 6 -42
21 135 22 174 7 161 -11 -9 -15 -9 -19 1 -3 7 -6 3 -6 -10z"/>
<path d="M3710 2585 c0 -3 7 -17 16 -30 9 -14 21 -48 28 -77 6 -28 17 -53 25
-56 10 -3 11 0 1 17 -6 12 -12 47 -14 77 -3 54 -14 73 -43 74 -7 0 -13 -2 -13
-5z"/>
<path d="M1048 2530 c-7 -24 -3 -38 8 -28 3 4 4 17 2 30 l-3 23 -7 -25z"/>
<path d="M1207 2504 c5 -13 7 -13 14 -2 6 8 9 -1 9 -26 0 -30 -3 -37 -15 -32
-12 4 -15 -3 -15 -33 0 -32 26 -118 30 -101 1 3 5 43 9 90 4 47 11 93 15 103
7 14 3 17 -23 17 -24 0 -29 -4 -24 -16z"/>
<path d="M1334 2360 c0 -91 2 -128 3 -82 2 45 2 119 0 165 -1 45 -3 8 -3 -83z"/>
<path d="M2353 2480 c0 -25 2 -35 4 -22 2 12 2 32 0 45 -2 12 -4 2 -4 -23z"/>
<path d="M4077 2503 c-3 -10 -2 -52 2 -93 l8 -75 2 93 c1 89 -3 111 -12 75z"/>
<path d="M1461 2325 c1 -104 -2 -207 -6 -227 l-7 -38 51 0 c28 0 51 1 51 3 -1
1 -7 24 -14 52 l-13 49 -7 -47 c-11 -72 -29 -59 -24 18 3 36 1 68 -4 71 -4 3
-8 67 -8 142 0 75 -5 144 -10 152 -7 10 -10 -45 -9 -175z"/>
<path d="M1133 2420 c0 -36 2 -50 4 -32 2 17 2 47 0 65 -2 17 -4 3 -4 -33z"/>
<path d="M1507 2464 c-4 -4 -7 -14 -7 -23 0 -11 3 -12 11 -4 6 6 10 16 7 23
-2 6 -7 8 -11 4z"/>
<path d="M2751 2454 c0 -11 3 -14 6 -6 3 7 2 16 -1 19 -3 4 -6 -2 -5 -13z"/>
<path d="M3525 2450 c3 -5 10 -10 16 -10 5 0 9 5 9 10 0 6 -7 10 -16 10 -8 0
-12 -4 -9 -10z"/>
<path d="M1663 2375 c0 -38 2 -53 4 -32 2 20 2 52 0 70 -2 17 -4 1 -4 -38z"/>
<path d="M1593 2360 c0 -36 2 -50 4 -32 2 17 2 47 0 65 -2 17 -4 3 -4 -33z"/>
<path d="M4011 2388 c5 -18 9 -92 7 -165 -1 -73 0 -135 3 -138 4 -3 9 47 12
112 5 112 -6 223 -24 223 -4 0 -3 -15 2 -32z"/>
<path d="M2352 2385 c0 -16 2 -22 5 -12 2 9 2 23 0 30 -3 6 -5 -1 -5 -18z"/>
<path d="M1061 2343 c-1 -34 4 -65 9 -68 12 -8 12 81 0 110 -6 14 -9 2 -9 -42z"/>
<path d="M1157 2363 c-4 -3 -7 -13 -7 -22 1 -13 3 -13 11 2 11 19 8 33 -4 20z"/>
<path d="M1506 2327 c-4 -20 -4 -58 0 -85 l9 -47 3 43 c2 23 2 61 0 85 l-4 42
-8 -38z"/>
<path d="M1371 2334 c0 -11 3 -14 6 -6 3 7 2 16 -1 19 -3 4 -6 -2 -5 -13z"/>
<path d="M1191 2298 c-1 -53 -9 -80 -22 -73 -8 5 -39 -56 -39 -76 0 -22 17 -6
29 26 13 37 36 38 28 1 -18 -77 -18 -86 -4 -86 17 0 30 152 17 215 l-8 40 -1
-47z"/>
<path d="M2362 2305 c0 -16 2 -22 5 -12 2 9 2 23 0 30 -3 6 -5 -1 -5 -18z"/>
<path d="M1158 2314 c-5 -4 -8 -16 -8 -28 0 -14 3 -17 11 -9 6 6 9 19 7 28 -1
9 -6 13 -10 9z"/>
<path d="M1221 2284 c0 -11 3 -14 6 -6 3 7 2 16 -1 19 -3 4 -6 -2 -5 -13z"/>
<path d="M1371 2260 c0 -14 4 -34 9 -45 8 -18 9 -18 9 5 0 14 -4 34 -9 45 -8
18 -9 18 -9 -5z"/>
<path d="M1654 2190 c0 -52 1 -74 3 -47 2 26 2 68 0 95 -2 26 -3 4 -3 -48z"/>
<path d="M1592 2220 c0 -14 2 -19 5 -12 2 6 2 18 0 25 -3 6 -5 1 -5 -13z"/>
<path d="M3257 2163 c6 -104 13 -106 13 -5 0 45 -4 82 -8 82 -5 0 -7 -35 -5
-77z"/>
<path d="M1230 2195 c0 -22 4 -34 10 -30 6 3 10 17 10 30 0 13 -4 27 -10 30
-6 4 -10 -8 -10 -30z"/>
<path d="M1268 2223 c-7 -16 4 -163 12 -163 5 0 7 36 3 83 -6 83 -8 95 -15 80z"/>
<path d="M2552 2190 c0 -19 2 -27 5 -17 2 9 2 25 0 35 -3 9 -5 1 -5 -18z"/>
<path d="M1056 2184 c-9 -25 -7 -64 4 -64 6 0 10 18 10 40 0 43 -4 50 -14 24z"/>
<path d="M1381 2134 c0 -11 3 -14 6 -6 3 7 2 16 -1 19 -3 4 -6 -2 -5 -13z"/>
<path d="M1185 2070 c-17 -7 -14 -9 13 -9 20 -1 31 3 27 9 -7 12 -13 12 -40 0z"/>
<path d="M992 1712 c-3 -354 3 -406 59 -492 21 -33 40 -60 43 -60 2 0 -7 26
-20 58 -23 56 -24 63 -24 395 l0 337 1530 0 1530 0 0 30 0 30 -1557 0 -1558 0
-3 -298z"/>
<path d="M5821 7276 c-54 -14 -59 -25 -27 -55 23 -22 26 -22 67 -8 38 13 44
19 47 46 3 27 0 31 -20 30 -13 -1 -43 -6 -67 -13z"/>
<path d="M5576 7062 c-3 -5 -9 -35 -14 -66 -7 -45 -6 -59 4 -63 29 -11 47 3
60 47 12 41 12 46 -8 67 -23 24 -34 28 -42 15z"/>
<path d="M5551 6029 l0 -660 27 3 27 3 3 628 2 627 90 0 90 0 0 30 0 30 -120
0 -119 0 0 -661z"/>
<path d="M4350 4900 c0 -220 1 -230 20 -240 27 -15 40 -5 40 31 0 29 -14 40
-23 17 -4 -8 -6 -7 -6 3 -1 9 6 22 14 29 12 10 15 42 15 171 l0 159 1170 0
1170 0 0 30 0 30 -1200 0 -1200 0 0 -230z"/>
<path d="M7140 5122 c0 -5 10 -18 23 -30 23 -22 29 -22 308 -22 285 0 286 0
307 23 12 13 22 26 22 30 0 4 -148 7 -330 7 -181 0 -330 -4 -330 -8z"/>
<path d="M6990 2974 l0 -1925 28 3 27 3 2 1893 3 1893 -22 30 c-12 16 -25 29
-30 29 -4 0 -7 -867 -8 -1926z"/>
<path d="M7763 4692 l-172 -207 0 -1717 0 -1718 29 0 30 0 0 1690 0 1691 97
116 c54 64 122 145 151 179 49 59 52 65 52 118 0 31 -3 56 -7 56 -5 0 -85 -94
-180 -208z"/>
<path d="M4350 3210 l1 -1200 30 0 29 0 0 543 c0 298 0 824 0 1170 l0 627
1170 0 1170 0 0 30 0 30 -1200 0 -1200 0 0 -1200z"/>
<path d="M5382 4109 c-273 -46 -543 -260 -665 -528 -53 -118 -69 -186 -74
-332 -4 -107 -2 -154 12 -215 29 -138 74 -243 150 -350 51 -72 93 -110 47 -42
-67 98 -117 246 -134 398 -14 131 -3 246 25 244 20 -2 23 12 3 23 -18 10 -16
94 3 109 7 5 15 31 18 57 3 26 11 47 17 47 7 0 24 25 39 55 56 115 155 228
279 318 44 31 53 34 39 10 -6 -11 -5 -26 1 -42 5 -15 6 -98 2 -211 -7 -201 2
-460 18 -460 5 0 6 56 2 148 -12 251 -4 543 17 600 11 30 29 28 29 -3 0 -14 7
-37 16 -50 9 -14 13 -32 10 -41 -3 -8 1 -29 10 -45 12 -24 13 -33 3 -45 -7 -8
-18 -13 -26 -10 -9 4 -13 -5 -12 -32 0 -20 3 -31 6 -24 14 36 23 -14 23 -136
0 -92 3 -132 10 -122 5 8 10 25 10 38 0 12 4 22 8 22 4 0 9 108 10 239 2 219
1 239 -15 246 -15 5 -12 10 17 25 20 10 61 25 92 33 l57 15 -5 -27 c-2 -14 -5
-94 -7 -178 -2 -84 -6 -155 -9 -158 -12 -13 -48 16 -48 38 0 17 2 19 9 8 7
-11 10 -10 13 5 3 10 -3 27 -11 38 -9 10 -19 43 -22 75 -5 48 -6 40 -9 -49 -1
-58 -5 -208 -9 -335 l-6 -230 -24 0 c-17 0 -29 10 -42 35 l-19 35 1 -45 c0
-25 3 -40 5 -33 4 8 12 8 32 -3 34 -17 72 -18 73 -1 1 6 0 23 -1 37 -3 41 12
14 17 -29 5 -38 3 -41 -31 -55 -45 -19 -46 -24 -2 -20 41 5 48 -12 41 -96 -5
-49 -2 -52 10 -13 3 8 16 2 36 -16 38 -35 32 -53 -14 -40 -17 5 -33 9 -34 9
-2 0 -3 -20 -3 -45 0 -33 4 -45 15 -45 8 0 15 -4 15 -10 0 -5 -7 -7 -15 -4
-18 7 -21 -21 -4 -32 8 -4 7 -9 -2 -15 -26 -16 -30 -9 -27 54 2 70 -4 87 -33
87 -14 0 -19 -7 -19 -24 0 -14 5 -28 10 -31 7 -4 7 -11 2 -18 -5 -7 -12 -27
-16 -45 -5 -28 -3 -35 14 -39 23 -6 27 -23 6 -23 -27 0 -27 -20 -1 -55 15 -19
24 -39 20 -45 -4 -6 -8 -24 -10 -38 -2 -15 -5 -37 -8 -50 -3 -12 -2 -20 3 -17
4 3 6 -12 5 -32 -2 -20 -1 -41 2 -47 4 -5 7 -32 7 -60 1 -30 6 -51 14 -54 15
-5 16 32 2 59 -6 11 -7 25 -3 32 4 6 6 49 5 94 -5 119 6 142 54 109 19 -13 20
-20 12 -78 -4 -35 -10 -120 -13 -190 l-5 -128 32 1 c25 1 28 3 13 7 -17 6 -21
17 -23 70 -2 40 0 62 7 62 9 0 15 -39 14 -87 -1 -7 3 -10 8 -7 5 3 9 52 9 110
0 101 1 105 20 99 11 -4 20 -2 20 4 0 6 -9 15 -20 21 -15 8 -20 21 -20 50 0
45 17 54 23 13 3 -21 4 -17 6 12 0 23 -4 46 -10 52 -17 17 -25 153 -10 153 7
0 12 -12 11 -27 -4 -53 0 -103 8 -103 12 0 1 174 -12 182 -8 6 -8 13 2 28 19
31 16 214 -4 234 -16 17 -11 56 8 56 6 0 8 20 5 53 -17 163 -27 336 -22 365 6
35 21 42 28 15 3 -10 5 -3 6 15 0 17 -3 32 -8 32 -5 0 -12 12 -15 26 -5 20
-10 23 -21 14 -7 -6 -15 -7 -18 -3 -2 4 -2 72 1 150 l5 141 43 11 c72 18 72
19 69 -56 -3 -65 -3 -66 4 -13 7 67 17 83 42 75 11 -4 19 -2 19 5 0 9 17 10
58 6 31 -3 84 -8 118 -11 33 -2 69 -7 80 -10 10 -3 1 3 -22 14 -97 45 -324 65
-472 40z m33 -484 c0 -17 -3 -37 -7 -46 -4 -9 -8 -35 -9 -57 -3 -42 -15 -52
-37 -30 -18 18 -15 119 4 146 22 32 49 24 49 -13z m25 -72 c0 -10 -5 -25 -10
-33 -7 -11 -10 -7 -10 18 0 17 5 32 10 32 6 0 10 -8 10 -17z m-22 -115 c-3 -7
-14 -14 -26 -16 -14 -2 -22 -11 -22 -22 0 -13 5 -17 15 -14 11 4 15 0 15 -16
0 -18 3 -20 13 -11 11 9 16 -3 25 -66 6 -43 8 -81 5 -86 -3 -5 -6 -37 -7 -72
-4 -110 -16 -84 -17 36 -1 94 -14 207 -18 162 0 -7 -8 -13 -16 -13 -7 0 -18
-7 -23 -17 -9 -15 -10 -14 -15 3 -3 10 -5 47 -5 82 l0 62 40 0 c27 0 38 -4 36
-12z m-48 -629 c0 -5 -4 -9 -10 -9 -5 0 -10 7 -10 16 0 8 5 12 10 9 6 -3 10
-10 10 -16z"/>
<path d="M5597 4003 c-5 -49 -24 -126 -37 -153 -8 -16 -50 -27 -50 -13 0 14
23 40 40 46 12 4 11 6 -3 6 -20 1 -37 39 -37 83 0 17 -3 28 -7 24 -5 -5 -8
-29 -8 -54 0 -41 -3 -47 -23 -50 -27 -4 -24 -27 4 -27 28 0 25 -39 -3 -43 -26
-4 -29 -14 -10 -31 11 -8 18 -6 32 9 22 24 88 29 79 6 -3 -8 5 -25 17 -37 l22
-22 -22 -18 c-28 -23 -10 -35 28 -18 26 12 27 15 13 25 -14 10 -14 14 -3 28 8
9 10 26 6 45 -3 17 -2 32 4 36 17 10 13 25 -5 18 -14 -5 -16 3 -14 68 4 97 2
119 -9 119 -5 0 -11 -21 -14 -47z"/>
<path d="M5342 3950 c0 -14 2 -19 5 -12 2 6 2 18 0 25 -3 6 -5 1 -5 -13z"/>
<path d="M5775 3465 c0 -280 1 -397 2 -258 2 138 2 368 0 510 -1 142 -2 29 -2
-252z"/>
<path d="M5645 3950 c-3 -5 -1 -10 4 -10 6 0 11 5 11 10 0 6 -2 10 -4 10 -3 0
-8 -4 -11 -10z"/>
<path d="M5701 3863 c-1 -6 -4 -20 -7 -30 -5 -17 -5 -17 6 0 6 10 9 23 6 30
-3 9 -5 9 -5 0z"/>
<path d="M5080 3806 c0 -9 5 -16 10 -16 6 0 10 4 10 9 0 6 -4 13 -10 16 -5 3
-10 -1 -10 -9z"/>
<path d="M5695 3770 c3 -5 8 -10 11 -10 2 0 4 5 4 10 0 6 -5 10 -11 10 -5 0
-7 -4 -4 -10z"/>
<path d="M6061 3754 c0 -11 3 -14 6 -6 3 7 2 16 -1 19 -3 4 -6 -2 -5 -13z"/>
<path d="M5084 3706 c-3 -8 -1 -23 5 -33 9 -15 10 -13 11 15 0 34 -7 42 -16
18z"/>
<path d="M6406 3653 c80 -159 109 -299 101 -482 -10 -248 -94 -444 -265 -623
-178 -186 -395 -284 -657 -295 -217 -10 -410 47 -589 174 -75 53 -43 18 38
-41 82 -61 233 -136 321 -159 379 -101 779 33 1008 336 124 163 183 319 201
527 12 137 -32 358 -96 484 -20 39 -88 146 -93 146 -2 0 12 -30 31 -67z m14
-923 c0 -5 -4 -10 -10 -10 -5 0 -10 5 -10 10 0 6 5 10 10 10 6 0 10 -4 10 -10z"/>
<path d="M5214 3450 c0 -124 2 -174 3 -112 2 61 2 163 0 225 -1 61 -3 11 -3
-113z"/>
<path d="M5680 3596 c0 -14 5 -28 10 -31 6 -4 10 7 10 24 0 17 -4 31 -10 31
-5 0 -10 -11 -10 -24z"/>
<path d="M5545 3589 c-10 -15 3 -25 16 -12 7 7 7 13 1 17 -6 3 -14 1 -17 -5z"/>
<path d="M5023 3520 c0 -41 2 -58 4 -37 2 20 2 54 0 75 -2 20 -4 3 -4 -38z"/>
<path d="M5931 3399 c0 -74 4 -143 9 -154 5 -11 6 44 3 130 -3 83 -7 152 -9
154 -2 2 -4 -56 -3 -130z"/>
<path d="M5698 3468 c-2 -7 -1 -26 3 -43 6 -28 7 -26 8 13 1 42 -3 53 -11 30z"/>
<path d="M5027 3365 c3 -38 9 -77 14 -85 13 -23 11 13 -6 90 l-14 65 6 -70z"/>
<path d="M6053 3355 c0 -22 2 -30 4 -17 2 12 2 30 0 40 -3 9 -5 -1 -4 -23z"/>
<path d="M5241 3354 c0 -11 3 -14 6 -6 3 7 2 16 -1 19 -3 4 -6 -2 -5 -13z"/>
<path d="M5686 3354 c-3 -11 -9 -25 -12 -31 -3 -8 1 -13 10 -13 21 0 30 24 18
46 -8 15 -10 15 -16 -2z"/>
<path d="M5577 3333 c-5 -4 -14 -8 -20 -8 -18 0 -30 -121 -19 -185 6 -30 7
-62 2 -70 -4 -8 -4 -46 1 -85 4 -38 5 -85 2 -104 -5 -30 -4 -33 15 -27 16 5
22 1 30 -21 7 -19 11 -22 11 -10 1 11 -8 32 -20 48 -19 28 -20 31 -5 54 11 17
15 46 14 104 0 45 4 86 10 93 21 26 49 158 33 158 -5 0 -13 -26 -16 -57 -6
-45 -14 -64 -36 -87 -21 -20 -29 -24 -29 -13 0 9 9 22 20 30 19 13 21 23 18
102 -2 48 -7 83 -11 78z"/>
<path d="M5071 3244 c0 -11 3 -14 6 -6 3 7 2 16 -1 19 -3 4 -6 -2 -5 -13z"/>
<path d="M5040 3215 c0 -8 2 -15 4 -15 2 0 6 7 10 15 3 8 1 15 -4 15 -6 0 -10
-7 -10 -15z"/>
<path d="M5671 3213 c1 -10 5 -31 9 -48 7 -29 8 -29 15 -7 4 12 11 22 16 22
17 0 9 29 -10 40 -27 14 -31 13 -30 -7z"/>
<path d="M5209 3183 c-1 -10 -3 -76 -4 -148 -1 -71 -5 -244 -9 -384 -7 -264
-6 -270 36 -292 29 -15 21 5 -9 23 -17 11 -22 18 -12 18 8 0 20 -5 27 -12 6
-6 15 -9 18 -5 12 12 12 331 0 339 -29 20 -31 6 -10 -76 5 -19 2 -26 -9 -26
-8 0 -18 6 -20 13 -3 6 -2 137 1 290 3 152 2 277 -1 277 -4 0 -8 -8 -8 -17z
m21 -763 c0 -5 -2 -10 -4 -10 -3 0 -8 5 -11 10 -3 6 -1 10 4 10 6 0 11 -4 11
-10z"/>
<path d="M5831 3174 c0 -11 3 -14 6 -6 3 7 2 16 -1 19 -3 4 -6 -2 -5 -13z"/>
<path d="M5235 2981 c-5 -138 -4 -195 5 -211 6 -12 14 -19 17 -16 7 6 17 151
16 206 -6 187 -9 210 -19 210 -8 0 -14 -58 -19 -189z"/>
<path d="M5030 3148 c0 -7 5 -20 10 -28 8 -12 10 -11 10 7 0 12 -4 25 -10 28
-5 3 -10 0 -10 -7z"/>
<path d="M6306 3125 c8 -50 14 -58 14 -19 0 16 -5 36 -11 44 -7 11 -8 4 -3
-25z"/>
<path d="M5833 3090 c0 -30 2 -43 4 -27 2 15 2 39 0 55 -2 15 -4 2 -4 -28z"/>
<path d="M5329 3128 c-5 -23 -3 -90 2 -104 5 -12 8 6 8 44 1 34 -1 62 -4 62
-3 0 -5 -1 -6 -2z"/>
<path d="M5701 3114 c0 -11 3 -14 6 -6 3 7 2 16 -1 19 -3 4 -6 -2 -5 -13z"/>
<path d="M5148 2938 c-2 -84 0 -157 5 -163 4 -5 7 21 7 58 0 38 7 84 15 104 8
19 15 42 15 49 0 8 -7 14 -15 14 -17 0 -19 14 -5 40 5 10 7 26 4 34 -16 42
-23 3 -26 -136z"/>
<path d="M5680 3076 c0 -24 12 -46 21 -40 15 9 10 54 -6 54 -8 0 -15 -6 -15
-14z"/>
<path d="M5042 3060 c-1 -15 -5 -30 -9 -35 -5 -6 -6 -84 -3 -175 5 -154 6
-160 13 -90 5 41 7 131 5 200 -2 69 -5 114 -6 100z"/>
<path d="M5296 3067 c-5 -9 -5 -29 0 -45 7 -25 8 -26 11 -4 3 12 3 32 0 45 -3
19 -4 20 -11 4z"/>
<path d="M5832 2728 c0 -170 4 -308 8 -308 18 0 19 432 1 555 -6 41 -9 -35 -9
-247z"/>
<path d="M5697 2993 c-10 -16 -7 -203 3 -203 6 0 10 41 10 105 0 99 -2 116
-13 98z"/>
<path d="M5770 2810 c-2 -69 -3 -163 -3 -210 1 -47 2 -124 2 -172 1 -49 4 -88
9 -88 4 0 6 105 4 232 -3 316 -7 392 -12 238z"/>
<path d="M5537 2833 c-3 -5 -5 -126 -6 -270 l-2 -263 35 0 c43 0 64 28 44 59
-10 16 -9 23 5 39 23 25 22 29 -13 59 -28 23 -40 53 -22 53 4 0 7 57 5 128 -1
70 0 118 3 107 10 -34 24 -41 24 -11 0 19 -6 29 -19 33 -12 3 -23 17 -26 34
-7 30 -20 45 -28 32z"/>
<path d="M5686 2764 c-9 -24 -7 -54 4 -54 6 0 10 9 10 19 0 11 3 26 6 35 3 9
2 16 -4 16 -5 0 -13 -7 -16 -16z"/>
<path d="M4923 2685 c0 -44 2 -61 4 -37 2 23 2 59 0 80 -2 20 -4 1 -4 -43z"/>
<path d="M5088 2695 c-3 -14 -1 -25 3 -25 5 0 9 11 9 25 0 14 -2 25 -4 25 -2
0 -6 -11 -8 -25z"/>
<path d="M5023 2595 c0 -33 2 -45 4 -27 2 18 2 45 0 60 -2 15 -4 0 -4 -33z"/>
<path d="M5690 2628 c0 -7 5 -20 10 -28 8 -12 10 -9 10 13 0 15 -4 27 -10 27
-5 0 -10 -6 -10 -12z"/>
<path d="M4953 2595 c0 -22 2 -30 4 -17 2 12 2 30 0 40 -3 9 -5 -1 -4 -23z"/>
<path d="M5077 2618 c-2 -7 -1 -33 2 -58 l7 -45 7 34 c10 46 9 81 -2 81 -5 0
-11 -6 -14 -12z"/>
<path d="M5623 2578 c-23 -30 -24 -41 -2 -21 12 12 20 25 17 28 -3 3 -10 0
-15 -7z"/>
<path d="M5692 2540 c0 -14 4 -38 8 -55 l8 -30 0 30 c0 17 -4 41 -8 55 l-8 25
0 -25z"/>
<path d="M5370 2523 c0 -13 5 -23 10 -23 13 0 13 11 0 30 -8 12 -10 11 -10 -7z"/>
<path d="M5282 2414 c3 -66 4 -68 33 -76 40 -11 55 -4 55 25 0 30 -10 40 -27
26 -10 -9 -13 -7 -13 9 0 11 -7 25 -15 32 -8 7 -15 18 -15 26 0 7 -5 16 -11
20 -7 4 -10 -15 -7 -62z m35 -60 c-3 -3 -12 -4 -19 -1 -8 3 -5 6 6 6 11 1 17
-2 13 -5z"/>
<path d="M2740 4036 c0 -22 34 -105 41 -101 4 3 -1 27 -12 53 -20 47 -29 61
-29 48z"/>
<path d="M2593 3920 c0 -25 2 -35 4 -22 2 12 2 32 0 45 -2 12 -4 2 -4 -23z"/>
<path d="M2354 3835 c0 -66 1 -92 3 -57 2 34 2 88 0 120 -2 31 -3 3 -3 -63z"/>
<path d="M2780 3908 c0 -16 51 -202 56 -207 11 -10 -6 78 -27 143 -19 56 -29
78 -29 64z"/>
<path d="M2402 3810 c0 -19 2 -27 5 -17 2 9 2 25 0 35 -3 9 -5 1 -5 -18z"/>
<path d="M2106 3783 c-11 -11 -6 -23 9 -23 8 0 15 4 15 9 0 13 -16 22 -24 14z"/>
<path d="M2391 3744 c0 -11 3 -14 6 -6 3 7 2 16 -1 19 -3 4 -6 -2 -5 -13z"/>
<path d="M2822 3669 l-24 -19 25 -9 c14 -6 27 -18 29 -28 3 -15 5 -15 9 -3 4
8 1 29 -5 47 l-11 31 -23 -19z"/>
<path d="M2347 3563 c-4 -3 -7 -31 -7 -61 0 -72 12 -60 14 13 0 30 1 55 0 55
0 0 -4 -3 -7 -7z"/>
<path d="M2801 3524 c0 -11 3 -14 6 -6 3 7 2 16 -1 19 -3 4 -6 -2 -5 -13z"/>
<path d="M2530 3513 c0 -4 5 -15 10 -23 8 -13 10 -13 10 2 0 9 -4 20 -10 23
-5 3 -10 3 -10 -2z"/>
<path d="M2686 3385 c4 -8 8 -15 10 -15 2 0 4 7 4 15 0 8 -4 15 -10 15 -5 0
-7 -7 -4 -15z"/>
<path d="M2705 3330 c42 -178 64 -251 65 -215 0 22 -49 205 -60 222 -10 16
-11 15 -5 -7z"/>
<path d="M2611 3330 c0 -8 6 -28 14 -45 10 -23 13 -25 14 -10 0 11 -6 31 -14
45 -8 14 -14 19 -14 10z"/>
<path d="M2580 3300 c0 -5 5 -10 11 -10 5 0 7 5 4 10 -3 6 -8 10 -11 10 -2 0
-4 -4 -4 -10z"/>
<path d="M2403 3225 c0 -38 2 -53 4 -32 2 20 2 52 0 70 -2 17 -4 1 -4 -38z"/>
<path d="M2363 3215 c0 -33 2 -45 4 -27 2 18 2 45 0 60 -2 15 -4 0 -4 -33z"/>
<path d="M2620 3179 c0 -8 7 -24 15 -35 11 -15 14 -16 15 -3 0 8 -7 24 -15 35
-11 15 -14 16 -15 3z"/>
<path d="M2681 3155 c0 -5 6 -37 13 -70 9 -38 14 -49 14 -30 0 27 -25 123 -27
100z"/>
<path d="M2470 3123 c0 -4 5 -15 10 -23 8 -13 10 -13 10 2 0 9 -4 20 -10 23
-5 3 -10 3 -10 -2z"/>
<path d="M2403 3045 c0 -33 2 -45 4 -27 2 18 2 45 0 60 -2 15 -4 0 -4 -33z"/>
<path d="M2501 3034 c0 -11 3 -14 6 -6 3 7 2 16 -1 19 -3 4 -6 -2 -5 -13z"/>
<path d="M2352 3000 c0 -14 2 -19 5 -12 2 6 2 18 0 25 -3 6 -5 1 -5 -13z"/>
<path d="M2351 2944 c0 -11 3 -14 6 -6 3 7 2 16 -1 19 -3 4 -6 -2 -5 -13z"/>
<path d="M2561 2874 c0 -11 3 -14 6 -6 3 7 2 16 -1 19 -3 4 -6 -2 -5 -13z"/>
<path d="M3225 3724 c-19 -14 -20 -26 -20 -250 0 -197 2 -236 15 -245 11 -8
12 -12 3 -16 -7 -2 -12 -17 -12 -31 1 -17 3 -21 6 -9 10 38 23 14 23 -42 0
-33 4 -62 9 -66 14 -8 25 60 16 98 -4 18 -10 154 -14 304 -6 269 -6 271 -26
257z m2 -106 c-3 -8 -6 -5 -6 6 -1 11 2 17 5 13 3 -3 4 -12 1 -19z"/>
<path d="M3320 3500 c0 -8 5 -22 10 -30 9 -13 10 -13 10 0 0 8 -5 22 -10 30
-9 13 -10 13 -10 0z"/>
<path d="M3291 3234 c0 -11 3 -14 6 -6 3 7 2 16 -1 19 -3 4 -6 -2 -5 -13z"/>
<path d="M3202 3105 c0 -16 2 -22 5 -12 2 9 2 23 0 30 -3 6 -5 -1 -5 -18z"/>
<path d="M4350 1410 l0 -360 30 0 30 0 0 330 0 330 1170 0 1170 0 0 30 0 30
-1200 0 -1200 0 0 -360z"/>
<path d="M3981 8087 c6 -23 9 -156 7 -335 -3 -327 -3 -325 -70 -391 -54 -54
-84 -64 -192 -69 l-99 -4 6 -142 c10 -215 58 -376 153 -509 46 -64 65 -84 35
-37 -29 46 -68 131 -91 201 -29 83 -40 171 -40 307 l0 122 75 0 c142 0 236 60
269 171 13 42 16 106 16 309 0 278 -7 327 -54 385 l-25 30 10 -38z"/>
<path d="M7470 7155 l0 -345 -720 0 -720 0 0 -721 0 -720 28 3 27 3 3 688 2
687 720 0 720 0 0 353 0 354 -23 21 c-13 12 -26 22 -30 22 -4 0 -7 -155 -7
-345z"/>
<path d="M1487 7298 c31 -34 95 -60 160 -66 l63 -5 0 32 0 31 -82 0 c-46 1
-100 7 -121 15 -38 13 -38 13 -20 -7z"/>
<path d="M4380 6066 c0 -2 8 -10 18 -17 15 -13 16 -12 3 4 -13 16 -21 21 -21
13z"/>
<path d="M4459 5940 c82 -158 130 -344 131 -502 0 -65 1 -68 24 -68 14 0 27 4
30 8 3 5 -1 55 -9 113 -22 164 -66 294 -142 424 -66 113 -87 129 -34 25z"/>
<path d="M8190 4354 c0 -549 0 -1572 0 -2271 l0 -1273 -3448 0 c-2451 0 -3465
3 -3507 11 -64 12 -165 54 -218 90 l-32 23 20 -23 c35 -40 139 -101 220 -129
l80 -27 3473 -3 3472 -2 0 994 c0 654 -3 997 -10 1001 -7 4 -7 12 0 25 7 12
10 453 10 1272 l0 1254 -30 29 -30 29 0 -1000z m30 -1234 c0 -5 -2 -10 -4 -10
-3 0 -8 5 -11 10 -3 6 -1 10 4 10 6 0 11 -4 11 -10z"/>
</g>
</svg>
