<?xml version="1.0" standalone="no"?>
<!DOCTYPE svg PUBLIC "-//W3C//DTD SVG 20010904//EN"
 "http://www.w3.org/TR/2001/REC-SVG-20010904/DTD/svg10.dtd">
<svg version="1.0" xmlns="http://www.w3.org/2000/svg"
 width="512.000000pt" height="512.000000pt" viewBox="0 0 512.000000 512.000000"
 preserveAspectRatio="xMidYMid meet">

<g transform="translate(0.000000,512.000000) scale(0.100000,-0.100000)"
fill="#000000" stroke="none">
<path d="M1004 5030 c-11 -4 -34 -25 -51 -47 -23 -30 -647 -928 -806 -1162
-23 -33 -37 -65 -37 -85 0 -63 27 -90 229 -231 166 -115 200 -135 232 -135 47
0 82 13 109 40 26 26 -40 67 502 -312 235 -164 439 -303 453 -308 45 -17 154
-12 307 15 l27 4 -21 -46 c-56 -127 61 -285 212 -285 68 0 460 178 513 233
l38 40 27 -19 c15 -11 295 -208 622 -439 327 -231 605 -425 618 -432 13 -7 37
-11 55 -9 29 3 46 23 209 255 427 608 752 1079 762 1105 8 22 7 35 -4 55 -16
28 -2098 1498 -2135 1507 -43 11 -65 -7 -132 -103 -36 -53 -69 -100 -74 -105
-4 -4 -34 19 -66 52 -89 91 -71 89 -561 63 -521 -27 -502 -27 -502 0 0 64 -52
109 -374 326 -50 34 -105 42 -152 23z m227 -257 c76 -54 137 -103 135 -109 -3
-7 -777 -1116 -791 -1132 -5 -6 -288 204 -287 213 4 20 784 1125 794 1125 6 0
73 -44 149 -97z m2617 -874 c526 -370 961 -676 966 -680 12 -10 -55 -110 -71
-106 -11 2 -1874 1306 -1927 1348 -21 17 -20 17 14 68 21 30 40 49 48 46 7 -3
444 -307 970 -676z m-1384 645 c23 -9 89 -131 80 -146 -4 -7 -131 -190 -283
-405 -264 -377 -276 -393 -306 -393 -36 0 -80 -30 -90 -60 -9 -28 19 -75 52
-88 15 -6 211 -26 435 -45 359 -31 411 -37 441 -56 41 -25 57 -58 57 -119 0
-97 -44 -121 -294 -162 -321 -52 -835 -130 -854 -130 -19 0 -904 612 -910 628
-2 6 615 899 642 929 4 4 832 50 923 52 50 0 99 -2 107 -5z m1217 -885 c530
-370 966 -674 968 -676 7 -5 -83 -133 -91 -131 -12 4 -1939 1351 -1943 1358
-7 12 79 130 91 126 7 -3 445 -307 975 -677z m-178 -263 c532 -372 967 -680
967 -684 -1 -12 -465 -665 -475 -669 -11 -3 -1268 871 -1273 885 -1 4 24 13
57 20 149 31 243 158 228 307 -8 75 -38 137 -92 189 -72 70 -109 80 -453 112
-166 15 -301 31 -300 34 2 3 81 117 177 253 111 157 179 243 185 238 6 -5 446
-313 979 -685z m-983 -512 c74 -49 58 -63 -173 -163 -103 -45 -194 -81 -201
-81 -22 0 -66 40 -66 60 0 35 36 61 175 127 118 56 167 74 218 82 4 0 25 -11
47 -25z"/>
<path d="M3230 3040 c-23 -23 -27 -78 -7 -102 6 -8 55 -45 108 -82 104 -71
151 -84 181 -48 49 57 30 93 -97 180 -112 78 -149 88 -185 52z"/>
<path d="M3712 2730 c-27 -12 -45 -54 -37 -91 6 -26 28 -44 189 -153 47 -31
75 -33 110 -5 29 23 36 73 14 101 -18 21 -185 137 -215 149 -29 11 -31 11 -61
-1z"/>
<path d="M1750 1705 c-113 -29 -295 -117 -365 -176 -151 -127 -466 -282 -940
-463 -104 -40 -214 -81 -242 -90 -65 -22 -97 -58 -89 -101 7 -36 39 -65 71
-65 28 0 355 121 578 214 350 146 561 254 676 347 129 104 280 174 431 199 95
16 178 8 310 -30 274 -80 466 -109 790 -120 258 -8 314 -16 390 -55 65 -32
110 -88 110 -135 0 -56 -68 -118 -150 -136 -19 -4 -235 -8 -480 -8 -393 -1
-452 -3 -505 -19 -69 -20 -95 -45 -95 -92 0 -62 48 -86 120 -59 60 22 428 30
680 16 204 -13 292 -6 382 28 107 40 186 137 196 242 2 26 6 48 7 48 2 0 227
69 502 154 274 84 512 157 530 160 50 11 113 -11 156 -55 31 -34 37 -47 37
-83 0 -27 -7 -52 -17 -65 -25 -28 -1432 -789 -1513 -818 -78 -27 -142 -28
-365 -8 -231 22 -723 30 -935 16 -540 -37 -909 -151 -1079 -336 -48 -52 -52
-85 -16 -120 36 -37 64 -31 140 30 127 101 279 164 509 210 362 73 947 84
1475 29 162 -17 234 -11 343 29 101 37 1496 796 1536 836 109 109 103 278 -13
395 -68 68 -124 90 -225 91 -82 0 -104 -6 -603 -159 l-517 -159 -35 35 c-47
47 -114 82 -205 108 -61 17 -120 23 -310 31 -329 12 -513 40 -785 116 -112 31
-148 36 -260 40 -114 3 -142 0 -225 -22z"/>
</g>
</svg>
