<?xml version="1.0" standalone="no"?>
<!DOCTYPE svg PUBLIC "-//W3C//DTD SVG 20010904//EN"
 "http://www.w3.org/TR/2001/REC-SVG-20010904/DTD/svg10.dtd">
<svg version="1.0" xmlns="http://www.w3.org/2000/svg"
 width="100.000000pt" height="76.000000pt" viewBox="0 0 100.000000 76.000000"
 preserveAspectRatio="xMidYMid meet">

<g transform="translate(0.000000,76.000000) scale(0.100000,-0.100000)"
fill="#000000" stroke="none">
<path d="M120 500 l0 -210 353 2 352 3 0 205 0 205 -352 3 -353 2 0 -210z
m480 44 c28 -26 50 -54 50 -63 0 -25 -84 -104 -106 -99 -29 5 -29 38 0 65 31
29 32 35 6 58 -24 22 -21 24 -55 -45 -36 -72 -53 -90 -84 -90 -30 0 -121 82
-121 109 0 25 84 104 106 99 30 -5 28 -37 -2 -69 l-28 -29 27 -27 c25 -25 27
-26 34 -7 35 86 72 130 121 143 2 1 25 -20 52 -45z"/>
<path d="M90 212 c0 -5 -20 -46 -45 -92 -25 -46 -45 -85 -45 -87 0 -2 212 -3
471 -3 l470 0 -49 93 -48 92 -377 3 c-207 1 -377 -2 -377 -6z"/>
</g>
</svg>
