<?xml version="1.0" standalone="no"?>
<!DOCTYPE svg PUBLIC "-//W3C//DTD SVG 20010904//EN"
 "http://www.w3.org/TR/2001/REC-SVG-20010904/DTD/svg10.dtd">
<svg version="1.0" xmlns="http://www.w3.org/2000/svg"
 width="225.000000pt" height="225.000000pt" viewBox="0 0 225.000000 225.000000"
 preserveAspectRatio="xMidYMid meet">

<g transform="translate(0.000000,225.000000) scale(0.100000,-0.100000)"
fill="#000000" stroke="none">
<path d="M815 2049 c-45 -12 -115 -77 -136 -123 -48 -105 -7 -234 91 -294 51
-31 60 -33 131 -30 95 4 144 33 189 111 90 157 -24 350 -205 346 -22 0 -54 -5
-70 -10z"/>
<path d="M795 1494 c-111 -17 -214 -65 -280 -127 -42 -41 -45 -47 -45 -95 l0
-52 420 0 420 0 0 52 c0 48 -3 54 -45 95 -84 80 -196 122 -345 128 -52 2 -108
1 -125 -1z"/>
<path d="M1612 1488 c-20 -20 -15 -66 8 -73 49 -15 81 21 55 61 -17 26 -44 31
-63 12z"/>
<path d="M1581 1343 c-39 -20 -67 -55 -77 -95 l-6 -28 142 0 142 0 -7 28 c-22
89 -117 136 -194 95z"/>
<path d="M190 1030 l0 -90 935 0 935 0 0 90 0 90 -935 0 -935 0 0 -90z"/>
<path d="M280 515 l0 -325 845 0 845 0 0 325 0 325 -845 0 -845 0 0 -325z"/>
</g>
</svg>
