<?xml version="1.0" standalone="no"?>
<!DOCTYPE svg PUBLIC "-//W3C//DTD SVG 20010904//EN"
 "http://www.w3.org/TR/2001/REC-SVG-20010904/DTD/svg10.dtd">
<svg version="1.0" xmlns="http://www.w3.org/2000/svg"
 width="860.000000pt" height="1003.000000pt" viewBox="0 0 860.000000 1003.000000"
 preserveAspectRatio="xMidYMid meet">

<g transform="translate(0.000000,1003.000000) scale(0.100000,-0.100000)"
fill="#000000" stroke="none">
<path d="M7464 9524 c-186 -231 -453 -433 -799 -603 -278 -136 -514 -224
-1109 -412 -668 -211 -942 -304 -1226 -417 -969 -385 -1675 -906 -2232 -1647
-380 -506 -599 -989 -674 -1485 -21 -141 -24 -425 -6 -560 63 -450 255 -854
581 -1215 261 -290 638 -550 961 -663 98 -34 271 -66 313 -58 16 3 26 2 22 -4
-3 -5 -85 -63 -183 -128 -765 -514 -1378 -826 -1872 -952 -172 -44 -276 -59
-480 -71 -102 -6 -208 -17 -236 -25 -235 -65 -285 -335 -94 -507 72 -64 142
-90 263 -95 87 -3 109 0 204 28 340 100 904 386 1522 772 795 496 1261 853
1841 1412 927 893 1712 1962 2294 3126 135 271 283 592 332 720 21 56 38 77
28 35 -21 -89 -103 -367 -165 -558 -382 -1180 -961 -2287 -1687 -3229 -292
-378 -631 -755 -926 -1028 -86 -79 -156 -148 -156 -153 0 -21 92 -141 175
-226 273 -284 661 -468 1170 -556 458 -79 961 40 1400 331 430 285 776 700
1041 1249 271 563 427 1178 500 1976 21 234 30 927 15 1198 -60 1080 -254
2148 -617 3410 -69 239 -124 421 -128 421 -1 0 -34 -39 -72 -86z"/>
</g>
</svg>
