<?xml version="1.0" standalone="no"?>
<!DOCTYPE svg PUBLIC "-//W3C//DTD SVG 20010904//EN"
 "http://www.w3.org/TR/2001/REC-SVG-20010904/DTD/svg10.dtd">
<svg version="1.0" xmlns="http://www.w3.org/2000/svg"
 width="880.000000pt" height="638.000000pt" viewBox="0 0 880.000000 638.000000"
 preserveAspectRatio="xMidYMid meet">

<g transform="translate(0.000000,638.000000) scale(0.100000,-0.100000)"
fill="#000000" stroke="none">
<path d="M4213 5960 c-111 -14 -373 -81 -373 -95 0 -3 38 -59 85 -126 66 -95
83 -126 80 -147 -2 -15 -19 -210 -36 -434 -31 -388 -32 -408 -15 -427 25 -28
104 -59 209 -83 123 -29 379 -31 512 -5 91 18 185 54 217 84 24 21 23 38 -8
505 l-26 388 54 82 c76 116 98 154 98 166 0 10 -45 24 -80 26 -38 2 -160 30
-160 36 0 4 -12 5 -26 2 -16 -3 -24 -1 -21 4 3 6 -2 10 -11 10 -9 0 -30 3 -45
7 -22 6 -27 5 -21 -5 5 -8 1 -8 -10 2 -22 17 -306 24 -423 10z m502 -155 c95
-21 135 -35 135 -46 0 -21 -46 -79 -59 -74 -8 3 -55 13 -105 22 -133 24 -390
22 -521 -5 l-100 -21 -27 32 c-15 18 -28 37 -28 43 0 12 86 38 201 59 97 19
405 13 504 -10z"/>
<path d="M5690 5933 c-131 -13 -368 -67 -409 -93 -11 -6 5 -35 69 -127 98
-140 92 -64 46 -608 -18 -209 -31 -384 -29 -390 6 -18 67 -53 128 -74 249 -83
653 -58 823 50 28 18 28 -3 -4 491 l-27 407 73 111 c40 61 74 119 77 129 4 16
-11 21 -112 40 -64 12 -137 29 -162 36 -25 7 -51 11 -59 8 -8 -3 -14 1 -14 8
0 11 -3 11 -10 -1 -8 -12 -10 -12 -10 -1 0 10 -8 12 -30 8 -17 -4 -30 -2 -30
3 0 9 -238 12 -320 3z m477 -166 c57 -13 106 -27 110 -30 6 -7 -7 -37 -31 -70
-13 -16 -18 -16 -80 -2 -154 36 -429 36 -601 0 l-70 -14 -27 32 c-16 17 -28
36 -28 43 0 12 84 36 205 59 123 22 390 14 522 -18z"/>
<path d="M2765 5920 c-75 -8 -341 -71 -372 -89 -11 -6 -3 -24 37 -82 28 -41
67 -96 85 -124 l34 -50 -34 -400 c-19 -220 -35 -418 -35 -441 0 -40 1 -42 60
-73 102 -54 217 -75 425 -75 127 0 202 5 255 16 96 21 178 52 212 80 l26 23
-13 190 c-7 105 -21 301 -30 436 l-16 246 80 124 c43 68 77 127 75 131 -2 3
-17 9 -32 12 -209 39 -259 50 -269 58 -24 19 -357 31 -488 18z m384 -140 c41
-6 114 -20 162 -31 l88 -22 -14 -26 c-35 -62 -36 -63 -107 -46 -153 35 -433
35 -598 0 l-75 -16 -28 33 c-15 18 -26 37 -24 43 5 14 108 44 207 60 101 16
286 18 389 5z"/>
<path d="M3835 4545 c-404 -15 -661 -28 -1075 -56 -364 -24 -857 -68 -887 -80
l-22 -8 0 -1124 c1 -619 4 -1130 8 -1136 17 -27 679 -102 1161 -131 96 -6 239
-15 316 -20 221 -15 361 -9 355 15 -1 6 -14 9 -29 7 -18 -2 -31 4 -40 18 -7
12 -8 20 -2 20 5 0 10 5 10 10 0 12 -30 13 -57 3 -16 -6 -15 -8 7 -14 19 -5
15 -7 -20 -8 -31 0 -41 2 -30 9 16 10 8 15 -40 23 -17 3 -14 5 13 6 58 2 43
21 -17 21 -59 0 -90 19 -34 21 l33 1 -33 9 c-25 8 -36 6 -48 -6 -11 -11 -33
-15 -77 -14 -34 1 -48 4 -32 6 17 2 46 6 65 9 30 6 32 8 15 14 -11 5 -47 9
-79 9 -141 2 15 30 202 36 105 4 120 -2 90 -34 -11 -12 -9 -13 7 -6 11 4 31
10 44 13 20 4 22 2 16 -17 -3 -11 -3 -21 0 -21 12 0 34 27 28 34 -13 13 34 5
53 -9 10 -8 30 -14 44 -15 14 0 21 4 15 8 -5 4 -11 14 -13 22 -3 12 -1 13 9 3
7 -7 25 -13 40 -13 15 0 31 -4 34 -10 3 -5 -1 -10 -9 -10 -8 0 -17 -4 -20 -8
-2 -4 11 -6 30 -4 25 3 34 9 34 23 0 15 -7 19 -32 19 -56 0 -20 13 47 17 57 3
66 1 76 -18 12 -24 -1 -39 -34 -39 -10 0 -15 -4 -12 -10 3 -5 -3 -10 -14 -10
-11 0 -23 -5 -27 -11 -8 -13 90 -7 150 9 22 6 46 7 54 3 14 -8 -22 -15 -148
-30 l-55 -6 79 -8 c128 -12 214 -9 240 8 13 9 45 18 71 20 56 6 65 11 36 20
-12 3 -21 10 -21 15 0 5 7 7 15 4 8 -4 15 -1 15 6 0 9 6 8 18 -3 20 -19 37
-23 27 -7 -3 6 0 10 7 10 11 0 10 2 0 9 -11 7 -10 10 3 15 25 9 37 7 29 -6 -5
-8 5 -9 36 -5 25 3 38 2 31 -3 -9 -5 12 -14 60 -25 111 -25 140 -63 49 -66
-19 0 -44 -4 -55 -9 -12 -5 3 -6 38 -3 39 4 57 2 57 -6 0 -6 5 -11 11 -11 5 0
8 4 5 9 -3 5 5 12 19 15 39 10 30 33 -23 60 -38 19 -38 32 -1 18 13 -5 48 -13
77 -17 38 -5 55 -12 64 -28 8 -16 8 -22 -1 -25 -6 -2 -11 -8 -11 -13 0 -12 47
-12 55 0 3 5 19 12 35 16 17 4 30 10 30 14 0 12 -160 60 -225 66 -33 4 -75 10
-92 15 -20 5 -33 5 -33 -1 0 -5 -10 -9 -22 -9 -17 0 -19 3 -9 9 11 7 8 11 -10
17 -13 4 -37 8 -54 10 -16 1 -84 11 -150 23 -138 24 -145 24 -145 12 0 -6 19
-14 43 -20 38 -10 35 -10 -27 -5 -83 6 -90 9 -69 34 14 16 27 18 117 14 56 -2
124 -7 152 -10 30 -4 54 -2 57 3 4 6 32 8 63 6 37 -2 60 0 65 8 4 6 12 8 18 5
6 -4 9 -12 6 -17 -4 -5 3 -9 14 -9 10 0 21 5 23 12 3 8 9 8 23 0 18 -9 16 -11
-15 -20 -31 -9 -32 -10 -10 -12 44 -4 73 2 87 16 12 12 17 12 30 -2 9 -8 22
-13 30 -10 8 3 17 6 19 6 3 0 2 4 -1 10 -8 14 8 13 22 -1 6 -6 38 -14 70 -16
64 -6 59 -6 157 3 50 5 67 3 62 -5 -4 -6 -16 -11 -27 -11 -13 0 -18 -4 -13
-12 5 -8 -12 -10 -66 -5 -53 4 -70 3 -62 -5 6 -6 71 -14 144 -18 73 -4 123 -8
111 -8 -38 -3 -37 -22 1 -22 20 0 36 -4 36 -10 0 -13 71 -13 90 1 12 8 8 9
-15 8 -48 -3 -75 0 -75 10 0 25 352 16 386 -11 7 -5 110 -11 230 -14 120 -3
223 -9 229 -14 7 -6 15 -7 18 -3 4 3 7 1 7 -5 0 -7 14 -11 33 -11 17 1 48 -1
67 -5 40 -7 370 14 370 23 0 4 44 8 98 9 53 1 144 8 202 15 l105 12 0 315 0
315 -30 6 -30 7 33 1 32 1 -2 813 -3 812 -255 32 c-577 72 -826 90 -1645 118
-495 17 -741 17 -1230 0z m1108 -352 c-13 -2 -33 -2 -45 0 -13 2 -3 4 22 4 25
0 35 -2 23 -4z m494 -39 c-3 -3 -12 -4 -19 -1 -8 3 -5 6 6 6 11 1 17 -2 13 -5z
m-530 -20 c-3 -3 -12 -4 -19 -1 -8 3 -5 6 6 6 11 1 17 -2 13 -5z m60 0 c-3 -3
-12 -4 -19 -1 -8 3 -5 6 6 6 11 1 17 -2 13 -5z m993 -218 c14 -2 -81 -3 -210
-2 -220 0 -225 1 -75 6 149 5 225 4 285 -4z m190 -2 c0 -2 -30 -3 -67 -3 -52
1 -60 3 -33 8 34 6 100 3 100 -5z m149 0 c2 -2 -20 -4 -50 -3 -41 1 -48 3 -29
9 22 7 68 3 79 -6z m-3534 -14 c18 -1 18 -2 -3 -11 -15 -6 -30 -5 -43 1 -26
14 -24 24 4 16 12 -3 31 -6 42 -6z m605 -14 c0 -8 -10 -20 -22 -29 -13 -8 -34
-25 -48 -37 l-25 -23 65 6 c36 3 58 3 50 0 -8 -2 -35 -14 -60 -25 -25 -12 -46
-16 -48 -10 -1 5 -12 8 -22 5 -11 -3 -20 0 -20 6 0 7 -22 11 -60 11 -33 0 -60
4 -60 9 0 5 -8 12 -17 14 -10 3 1 3 25 0 28 -4 42 -2 42 6 0 6 -12 11 -27 12
-16 0 -22 3 -13 6 8 3 23 13 32 22 43 41 48 43 48 22 0 -11 -7 -24 -16 -29
-10 -6 -14 -14 -9 -22 5 -8 14 -5 34 12 39 36 74 56 107 60 35 4 44 1 44 -16z
m54 -41 c-23 -35 -28 -26 -7 16 9 18 18 28 20 22 3 -7 -3 -23 -13 -38z m1281
-4 c22 -11 33 -20 24 -20 -18 -1 -89 26 -89 34 0 10 26 4 65 -14z m295 -4 c8
-2 -16 -3 -55 -1 -100 4 -107 6 -45 13 30 4 62 4 70 0 8 -3 22 -9 30 -12z
m-1505 -17 c-3 -5 -12 -10 -18 -10 -7 0 -6 4 3 10 19 12 23 12 15 0z m1550
-10 c3 -6 -1 -7 -9 -4 -18 7 -21 14 -7 14 6 0 13 -4 16 -10z m59 3 c3 -4 14
-8 24 -9 9 -1 55 -7 102 -13 46 -6 112 -11 145 -12 33 0 69 -4 79 -8 18 -7 18
-8 -5 -14 -30 -8 -144 -9 -151 -1 -4 3 -37 7 -75 10 -111 6 -140 13 -146 35
-5 19 12 27 27 12z m-389 -27 c32 -14 48 -36 26 -36 -16 0 -80 30 -86 40 -9
14 20 12 60 -4z m-1590 -6 c8 -13 -35 -13 -55 0 -11 7 -7 10 17 10 17 0 35 -4
38 -10z m375 -20 c-20 -13 -40 -13 -40 0 0 6 12 10 28 10 21 0 24 -2 12 -10z
m1485 0 c3 -5 1 -10 -4 -10 -6 0 -11 5 -11 10 0 6 2 10 4 10 3 0 8 -4 11 -10z
m-1545 -10 c0 -5 -19 -9 -42 -9 l-43 2 35 7 c19 4 38 8 43 9 4 0 7 -3 7 -9z
m1107 4 c-3 -3 -12 -4 -19 -1 -8 3 -5 6 6 6 11 1 17 -2 13 -5z m980 0 c-3 -3
-12 -4 -19 -1 -8 3 -5 6 6 6 11 1 17 -2 13 -5z m-2269 -19 c13 -4 22 -2 22 4
0 6 15 11 33 10 l32 -1 -35 -13 c-47 -18 -72 -18 -96 1 -19 15 -19 15 1 10 11
-2 30 -7 43 -11z m1775 -32 c-7 -2 -21 -2 -30 0 -10 3 -4 5 12 5 17 0 24 -2
18 -5z m-837 -48 c16 -8 41 -15 57 -15 15 0 27 -5 27 -11 0 -15 -82 -1 -96 17
-7 9 -19 12 -29 7 -13 -4 -16 -3 -11 5 9 16 18 15 52 -3z m792 1 c21 5 24 4
16 -5 -8 -8 -24 -10 -50 -5 -31 6 -35 8 -19 14 11 4 21 3 23 -1 2 -5 16 -6 30
-3z m124 5 c-5 -3 -11 -14 -15 -24 -5 -14 -11 -16 -27 -7 -35 19 -25 37 20 37
17 0 27 -3 22 -6z m153 -10 c28 -9 26 -9 -20 -12 l-50 -2 40 -7 40 -7 -37 -2
c-20 0 -40 4 -43 9 -3 6 -15 10 -25 10 -10 0 -21 4 -24 9 -7 11 82 13 119 2z
m-407 -29 c4 -14 -14 -16 -23 -2 -3 6 -15 10 -26 10 -11 0 -18 4 -15 9 8 12
59 -2 64 -17z m-2258 -3 c0 -5 -7 -9 -15 -9 -15 0 -20 12 -9 23 8 8 24 -1 24
-14z m2003 -26 c-7 -2 -21 -2 -30 0 -10 3 -4 5 12 5 17 0 24 -2 18 -5z m847
-48 c0 -17 -4 -18 -40 -8 l-25 7 25 7 c38 11 40 10 40 -6z m-236 -19 c-21 -15
-30 -14 -19 3 3 6 14 11 23 11 13 0 13 -2 -4 -14z m293 -2 c-3 -3 -12 -4 -19
-1 -8 3 -5 6 6 6 11 1 17 -2 13 -5z m696 -1 c-7 -2 -19 -2 -25 0 -7 3 -2 5 12
5 14 0 19 -2 13 -5z m-2193 -38 c0 -5 -5 -3 -10 5 -5 8 -10 20 -10 25 0 6 5 3
10 -5 5 -8 10 -19 10 -25z m1619 22 c-13 -6 -36 -9 -51 -8 -14 1 -29 -2 -33
-8 -4 -7 4 -11 20 -11 14 0 28 -7 31 -14 4 -10 29 -17 75 -22 38 -4 68 -9 65
-11 -2 -3 -38 -6 -78 -8 -41 -3 -83 -7 -93 -11 -13 -6 -16 -4 -10 6 6 10 -26
11 -179 5 -103 -4 -199 -8 -214 -10 -15 -2 -94 -7 -177 -10 -151 -7 -206 -15
-102 -15 31 0 59 -4 62 -10 4 -6 -22 -10 -69 -10 -68 0 -97 11 -63 23 6 2 0 8
-15 12 -32 8 -49 0 -41 -20 4 -11 -3 -15 -27 -15 -28 0 -31 2 -20 15 7 8 11
15 9 15 -2 1 -58 3 -124 6 -66 3 -145 9 -175 12 l-55 7 55 18 c47 15 284 46
358 47 13 0 21 3 19 8 -3 4 34 5 81 2 48 -3 193 0 322 5 317 13 459 14 429 2z
m181 -7 c0 -5 -2 -10 -4 -10 -3 0 -8 5 -11 10 -3 6 -1 10 4 10 6 0 11 -4 11
-10z m-1950 -11 c0 -4 26 -10 58 -14 31 -4 65 -11 74 -16 11 -6 19 -5 24 2 3
6 19 9 34 7 19 -3 32 2 41 14 15 20 93 26 104 7 4 -6 22 -8 46 -4 31 5 40 3
45 -10 4 -9 4 -18 1 -21 -7 -8 -121 16 -127 27 -3 4 -12 4 -20 -1 -13 -8 -12
-10 3 -10 27 0 20 -29 -9 -36 -14 -4 -72 -1 -128 5 -57 6 -110 9 -119 5 -10
-3 -17 -1 -17 4 0 6 -12 10 -27 10 -37 -1 -113 21 -113 32 0 4 29 8 65 7 36 0
65 -4 65 -8z m530 -5 c0 -2 -17 -4 -37 -3 -33 1 -35 2 -13 8 23 7 50 4 50 -5z
m-90 -74 c-29 -8 -117 -1 -102 9 5 3 36 4 69 2 43 -3 51 -6 33 -11z m1100 0
c0 -5 -7 -10 -15 -10 -8 0 -15 5 -15 10 0 6 7 10 15 10 8 0 15 -4 15 -10z
m120 0 c0 -5 -5 -10 -11 -10 -5 0 -7 5 -4 10 3 6 8 10 11 10 2 0 4 -4 4 -10z
m-161 -4 c-12 -10 -79 -16 -79 -6 0 5 19 10 42 10 23 0 39 -2 37 -4z m111 0
c0 -2 -9 -6 -20 -9 -11 -3 -20 -1 -20 4 0 5 9 9 20 9 11 0 20 -2 20 -4z m-780
-26 c0 -5 -5 -10 -11 -10 -5 0 -7 5 -4 10 3 6 8 10 11 10 2 0 4 -4 4 -10z
m325 0 c-3 -5 -15 -10 -26 -10 -11 0 -17 5 -14 10 3 6 15 10 26 10 11 0 17 -4
14 -10z m95 6 c0 -2 -16 -6 -35 -8 -19 -2 -35 0 -35 4 0 4 16 8 35 8 19 0 35
-2 35 -4z m-512 -13 c-10 -2 -28 -2 -40 0 -13 2 -5 4 17 4 22 1 32 -1 23 -4z
m-243 -13 c-96 -14 -351 -22 -340 -11 11 11 83 15 270 17 83 1 105 -1 70 -6z
m765 -31 c0 -12 -37 -12 -44 0 -7 11 14 20 32 13 6 -2 12 -8 12 -13z m-427 4
c-7 -2 -19 -2 -25 0 -7 3 -2 5 12 5 14 0 19 -2 13 -5z m362 -3 c-3 -5 -21 -9
-38 -9 l-32 1 30 8 c43 11 47 11 40 0z m178 3 c-7 -2 -19 -2 -25 0 -7 3 -2 5
12 5 14 0 19 -2 13 -5z m144 0 c-11 -10 -102 -12 -118 -2 -9 5 11 9 55 9 38 0
66 -3 63 -7z m138 -2 c3 -6 -19 -10 -55 -9 -33 0 -60 5 -60 9 0 12 107 11 115
0z m-587 -18 c-10 -2 -26 -2 -35 0 -10 3 -2 5 17 5 19 0 27 -2 18 -5z m-273
-13 c-11 -5 -56 -8 -100 -7 l-80 1 80 6 c44 3 89 7 100 7 l20 2 -20 -9z m92 4
c-3 -3 -12 -4 -19 -1 -8 3 -5 6 6 6 11 1 17 -2 13 -5z m456 -15 c-5 -5 -35
-13 -66 -16 -43 -4 -54 -9 -52 -22 1 -9 6 -14 11 -12 5 1 8 7 7 12 -2 5 2 9 7
9 6 0 10 -11 10 -25 0 -19 -5 -25 -22 -25 -22 -1 -22 -1 -4 -12 20 -11 19 -12
61 47 14 20 15 20 29 1 14 -17 16 -17 21 -3 4 8 14 18 22 21 23 9 74 -16 68
-33 -3 -8 0 -11 9 -8 20 8 28 -4 14 -20 -15 -18 7 -35 37 -29 11 3 27 1 35 -4
12 -8 10 -10 -10 -10 -17 0 -21 -3 -12 -9 10 -6 9 -11 -4 -22 -13 -11 -18 -11
-21 -1 -3 6 -12 12 -21 12 -15 0 -15 -2 -2 -10 26 -16 -16 -24 -53 -10 -62 25
-62 38 0 51 35 7 34 8 -15 6 -28 -1 -52 0 -52 3 0 3 14 11 31 19 21 9 27 16
19 21 -23 14 -47 -2 -68 -45 l-21 -44 -291 4 c-231 3 -294 7 -310 18 -18 13
-19 15 -5 21 9 3 39 6 66 6 28 0 48 4 45 9 -3 5 1 12 10 15 25 10 34 7 35 -11
1 -17 2 -17 6 0 5 20 14 22 31 5 9 -9 15 -9 24 0 7 7 27 12 44 12 23 0 39 8
53 26 17 22 26 25 53 20 18 -4 44 -8 58 -9 30 -2 33 -7 24 -30 -11 -31 6 -32
33 -3 21 23 23 30 12 37 -20 13 4 27 61 34 25 4 50 8 55 10 6 2 19 4 30 4 13
1 16 -2 8 -10z m200 4 c-7 -2 -19 -2 -25 0 -7 3 -2 5 12 5 14 0 19 -2 13 -5z
m450 0 c-7 -2 -21 -2 -30 0 -10 3 -4 5 12 5 17 0 24 -2 18 -5z m375 0 c-10 -2
-28 -2 -40 0 -13 2 -5 4 17 4 22 1 32 -1 23 -4z m-719 -12 c9 -6 -1 -13 -35
-25 -32 -11 -51 -13 -58 -6 -7 7 -6 10 3 10 8 0 11 6 7 15 -4 12 3 15 32 15
20 0 43 -4 51 -9z m838 3 c-3 -3 -12 -4 -19 -1 -8 3 -5 6 6 6 11 1 17 -2 13
-5z m-2087 -8 c0 -2 -7 -7 -16 -10 -8 -3 -12 -2 -9 4 6 10 25 14 25 6z m1100
-6 c0 -5 -9 -10 -19 -10 -11 0 -23 5 -26 10 -4 6 5 10 19 10 14 0 26 -4 26
-10z m-1780 -26 c0 -2 -9 -4 -20 -4 -11 0 -20 4 -20 9 0 5 9 7 20 4 11 -3 20
-7 20 -9z m690 -5 c0 -6 -4 -7 -10 -4 -5 3 -10 11 -10 16 0 6 5 7 10 4 6 -3
10 -11 10 -16z m1334 6 c-4 -10 -21 -15 -54 -15 -27 0 -52 -5 -55 -10 -8 -13
87 -2 142 16 15 5 16 4 3 -5 -12 -9 -13 -13 -2 -20 14 -8 -6 -18 -53 -26 -11
-2 -37 -6 -57 -10 -25 -5 -38 -4 -38 3 0 10 16 15 90 25 14 2 -13 4 -60 4 -50
0 -76 -3 -65 -8 11 -4 15 -8 8 -8 -6 -1 -20 -4 -30 -7 -10 -3 -14 -2 -8 3 6 4
10 14 10 22 0 16 32 27 115 40 30 5 56 9 57 10 1 0 0 -6 -3 -14z m393 9 c-3
-3 -12 -4 -19 -1 -8 3 -5 6 6 6 11 1 17 -2 13 -5z m80 0 c-3 -3 -12 -4 -19 -1
-8 3 -5 6 6 6 11 1 17 -2 13 -5z m-1267 -13 c0 -5 -13 -11 -29 -13 -18 -3 -27
0 -25 7 5 13 54 19 54 6z m1377 3 c-3 -3 -12 -4 -19 -1 -8 3 -5 6 6 6 11 1 17
-2 13 -5z m-404 -11 c-7 -2 -19 -2 -25 0 -7 3 -2 5 12 5 14 0 19 -2 13 -5z
m-58 -13 c-25 -11 -68 -13 -61 -2 2 4 22 9 43 9 30 2 34 0 18 -7z m-1972 -7
c-7 -2 -19 -2 -25 0 -7 3 -2 5 12 5 14 0 19 -2 13 -5z m2392 -3 c3 -5 -3 -10
-14 -10 -12 0 -21 5 -21 10 0 6 6 10 14 10 8 0 18 -4 21 -10z m-2570 -10 c3
-5 -1 -10 -10 -10 -9 0 -13 5 -10 10 3 6 8 10 10 10 2 0 7 -4 10 -10z m2292
-6 c-3 -3 -12 -4 -19 -1 -8 3 -5 6 6 6 11 1 17 -2 13 -5z m66 -1 c-7 -2 -21
-2 -30 0 -10 3 -4 5 12 5 17 0 24 -2 18 -5z m-2020 -20 c-7 -2 -21 -2 -30 0
-10 3 -4 5 12 5 17 0 24 -2 18 -5z m2020 0 c-13 -2 -33 -2 -45 0 -13 2 -3 4
22 4 25 0 35 -2 23 -4z m-283 -12 c0 -10 -139 -26 -148 -17 -3 3 10 6 29 7 19
0 43 4 54 9 27 11 65 12 65 1z m347 -17 c-3 -3 -12 -4 -19 -1 -8 3 -5 6 6 6
11 1 17 -2 13 -5z m-510 -40 c-3 -3 -12 -4 -19 -1 -8 3 -5 6 6 6 11 1 17 -2
13 -5z m-390 -20 c-3 -3 -12 -4 -19 -1 -8 3 -5 6 6 6 11 1 17 -2 13 -5z m466
-1 c-7 -2 -21 -2 -30 0 -10 3 -4 5 12 5 17 0 24 -2 18 -5z m-189 -73 c-32 -12
-85 -14 -124 -5 l-35 9 29 5 c43 9 156 1 130 -9z m-1419 0 l50 -7 -70 -1 c-38
0 -79 3 -90 8 -26 11 39 12 110 0z m709 1 c7 -11 -102 -28 -166 -25 -96 4
-178 15 -178 24 0 11 337 12 344 1z m81 -1 c4 -6 -5 -10 -20 -10 -15 0 -24 4
-20 10 3 6 12 10 20 10 8 0 17 -4 20 -10z m181 0 c-44 -5 -89 -4 -100 0 -13 6
17 8 79 8 l100 -1 -79 -7z m226 -3 c20 -21 142 -40 203 -33 29 3 72 15 96 26
36 16 66 20 160 20 107 0 117 -2 122 -19 3 -12 19 -24 38 -30 29 -8 22 -9 -51
-11 -62 -1 -79 -4 -62 -10 31 -13 27 -30 -8 -30 -18 0 -33 7 -39 19 -12 21
-78 33 -119 21 -22 -7 -17 -8 29 -9 42 -1 56 -5 56 -16 0 -9 -10 -15 -26 -15
-14 0 -36 -3 -48 -6 -17 -5 -23 -2 -23 11 0 11 -5 15 -15 11 -8 -3 -23 -9 -32
-12 -15 -5 -16 -4 -3 6 12 9 9 10 -15 6 -80 -14 -185 -18 -185 -7 0 6 -9 11
-21 11 -12 0 -17 -4 -13 -11 5 -8 -6 -9 -37 -4 -54 9 -65 15 -48 26 9 6 -2 9
-31 8 -40 0 -42 -1 -20 -10 l25 -10 -25 -14 c-14 -8 -31 -10 -39 -5 -8 4 -33
6 -55 3 -34 -3 -38 -2 -23 7 12 8 35 9 64 5 43 -6 45 -6 29 10 -16 17 -37 17
-136 2 -52 -8 -54 -10 -25 -17 19 -5 -20 -8 -102 -9 -73 0 -133 3 -133 7 0 4
45 6 100 4 92 -3 126 6 84 22 -24 9 -54 7 -54 -4 0 -5 -5 -10 -11 -10 -5 0 -8
4 -5 9 4 5 0 12 -6 14 -7 3 16 6 52 8 36 1 72 3 80 4 8 0 58 5 110 10 52 5 85
11 73 13 -13 2 -23 8 -23 13 0 14 97 11 112 -4z m635 7 c-3 -3 -12 -4 -19 -1
-8 3 -5 6 6 6 11 1 17 -2 13 -5z m223 -14 c11 -21 36 -27 42 -10 2 5 14 1 28
-10 l25 -19 -65 6 c-81 7 -152 25 -157 38 -2 7 21 12 56 13 51 2 62 0 71 -18z
m429 6 c54 -15 87 -32 41 -22 -14 3 -52 8 -85 10 -33 3 -73 10 -90 15 -52 16
71 13 134 -3z m-1954 -76 c4 -6 -6 -10 -22 -9 -25 0 -26 1 -8 9 11 5 21 9 22
9 1 1 5 -3 8 -9z m145 3 c0 -5 -20 -8 -44 -8 -25 0 -40 3 -33 7 16 10 77 10
77 1z m1683 -10 c-7 -2 -19 -2 -25 0 -7 3 -2 5 12 5 14 0 19 -2 13 -5z m-2170
-10 c-13 -2 -33 -2 -45 0 -13 2 -3 4 22 4 25 0 35 -2 23 -4z m1660 -14 c7 -1
-6 -5 -28 -8 -22 -4 -44 -5 -50 -2 -13 7 36 20 53 15 8 -2 19 -5 25 -5z m160
4 c-7 -2 -21 -2 -30 0 -10 3 -4 5 12 5 17 0 24 -2 18 -5z m-263 -13 c0 -6 -10
-10 -22 -8 -44 5 -293 -14 -312 -24 -11 -6 -16 -6 -12 0 7 11 -136 3 -144 -8
-3 -4 -10 -2 -17 5 -16 17 29 21 475 43 17 1 32 -3 32 -8z m903 -7 c-7 -2 -21
-2 -30 0 -10 3 -4 5 12 5 17 0 24 -2 18 -5z m-1950 -10 c-7 -2 -21 -2 -30 0
-10 3 -4 5 12 5 17 0 24 -2 18 -5z m94 1 c-3 -3 -12 -4 -19 -1 -8 3 -5 6 6 6
11 1 17 -2 13 -5z m1631 -3 c12 -7 -28 -11 -303 -27 -49 -3 -94 -10 -99 -15
-12 -11 12 -11 69 -1 22 4 62 4 89 0 28 -4 55 -3 61 2 6 5 26 8 45 7 19 0 58
2 85 6 29 4 42 4 31 -1 -19 -8 -19 -9 3 -15 27 -7 91 2 91 14 0 10 112 -1 125
-13 14 -13 -14 -28 -50 -27 -29 2 -29 2 5 8 22 4 29 9 20 12 -27 10 -81 1
-101 -17 -15 -13 -22 -15 -31 -6 -7 7 -32 11 -57 10 l-46 -1 45 -7 45 -8 -53
1 c-44 1 -60 -4 -87 -26 -19 -15 -42 -27 -52 -27 -15 0 -16 2 -3 11 11 8 4 9
-29 5 -30 -3 -40 -1 -30 5 9 6 0 8 -31 8 -37 -1 -40 -2 -20 -9 14 -4 -8 -5
-50 -2 -59 3 -83 1 -108 -12 -19 -10 -32 -12 -32 -6 0 7 -28 10 -77 8 -57 -2
-77 1 -75 10 1 7 -5 12 -14 12 -8 0 -12 -5 -8 -11 4 -7 -6 -10 -32 -7 -23 2
-39 -2 -42 -10 -4 -14 -32 -16 -32 -2 0 6 6 11 13 11 6 1 -17 5 -53 9 -67 8
-84 5 -61 -9 33 -20 -133 -26 -492 -18 -70 2 -101 -1 -109 -10 -12 -15 -48
-17 -48 -3 0 6 -17 10 -37 11 -21 1 -49 5 -63 9 -25 8 -25 8 -2 9 14 1 21 5
16 12 -3 6 -14 9 -25 6 -10 -3 -25 3 -35 14 -14 15 -14 19 -3 20 8 0 1 5 -16
10 -16 5 -39 6 -50 2 -11 -4 -23 -6 -27 -5 -5 1 -8 -2 -8 -7 0 -5 18 -11 39
-15 30 -4 39 -10 37 -23 -3 -15 -13 -18 -74 -16 -40 0 -72 -3 -72 -8 0 -5 -11
-9 -25 -9 -16 0 -25 6 -25 15 0 8 -4 16 -10 16 -13 2 -22 4 -40 12 -8 3 -24 8
-35 10 -11 3 12 6 50 7 l70 3 -55 7 c-30 3 -82 3 -115 -1 -59 -6 -59 -6 -15
-9 42 -2 43 -3 15 -10 l-30 -8 28 -1 c17 -1 26 -5 22 -11 -4 -6 -15 -8 -25 -5
-11 3 -29 1 -41 -5 -17 -10 -24 -9 -38 4 -14 15 -14 18 -1 26 25 16 3 23 -47
14 -44 -8 -45 -9 -15 -12 17 -2 32 -7 32 -11 0 -31 -84 -43 -104 -15 -10 13
-18 13 -59 3 -38 -11 -54 -11 -82 0 -28 10 -39 10 -50 1 -16 -14 -58 -3 -52
13 2 8 46 11 138 10 98 -1 125 1 99 7 -19 5 -86 9 -147 9 -108 -1 -119 -4
-114 -32 1 -4 -11 -7 -26 -7 -16 0 -37 0 -48 -2 -11 -1 -54 -1 -95 0 -53 2
-71 5 -60 12 13 8 13 10 1 10 -11 0 -9 4 5 15 18 13 17 14 -18 15 -20 0 -44 3
-54 7 -12 4 -15 3 -10 -5 5 -8 -4 -12 -31 -11 -30 0 -34 2 -18 9 16 7 12 9
-18 9 -23 1 -36 -3 -32 -9 3 -5 0 -10 -9 -10 -8 0 -16 4 -18 9 -1 4 -27 5 -55
1 -29 -3 -53 -3 -53 1 0 4 -10 10 -22 12 -13 3 132 2 322 -1 565 -8 924 -1
961 18 10 6 27 6 41 1 33 -12 440 -17 460 -5 4 3 8 0 8 -6 0 -8 16 -10 53 -6
93 10 141 12 167 5 29 -7 53 -1 44 12 -8 13 8 11 28 -4 12 -10 33 -11 75 -6
32 4 116 8 186 8 105 1 131 4 145 17 10 11 17 13 20 5 2 -6 20 -11 40 -11 28
0 33 3 22 10 -8 5 -10 10 -4 10 5 0 14 -4 20 -8 7 -7 201 1 429 16 11 1 26 -2
33 -7z m90 2 c-10 -2 -28 -2 -40 0 -13 2 -5 4 17 4 22 1 32 -1 23 -4z m-1968
-13 c-8 -5 -19 -10 -25 -10 -5 0 -3 5 5 10 8 5 20 10 25 10 6 0 3 -5 -5 -10z
m407 4 c-3 -3 -12 -4 -19 -1 -8 3 -5 6 6 6 11 1 17 -2 13 -5z m141 -1 c-10 -2
-26 -2 -35 0 -10 3 -2 5 17 5 19 0 27 -2 18 -5z m647 -3 c3 -5 1 -10 -4 -10
-6 0 -11 5 -11 10 0 6 2 10 4 10 3 0 8 -4 11 -10z m-2458 -46 c-3 -3 -12 -4
-19 -1 -8 3 -5 6 6 6 11 1 17 -2 13 -5z m378 -24 c4 -6 -6 -10 -22 -9 -25 0
-26 1 -8 9 11 5 21 9 22 9 1 1 5 -3 8 -9z m-118 -6 c-3 -3 -12 -4 -19 -1 -8 3
-5 6 6 6 11 1 17 -2 13 -5z m-104 -21 c-7 -2 -19 -2 -25 0 -7 3 -2 5 12 5 14
0 19 -2 13 -5z m206 -9 c8 -7 -64 -3 -104 6 -31 7 -24 7 30 3 39 -3 72 -7 74
-9z m3279 11 c-15 -15 -333 -32 -341 -18 -4 6 22 8 71 6 42 -2 104 0 137 5 69
11 141 14 133 7z m-419 -21 c2 -2 -18 -4 -45 -3 -36 0 -44 3 -29 9 18 7 63 3
74 -6z m-2066 -11 c-7 -2 -19 -2 -25 0 -7 3 -2 5 12 5 14 0 19 -2 13 -5z
m1590 0 c-7 -2 -19 -2 -25 0 -7 3 -2 5 12 5 14 0 19 -2 13 -5z m-1266 -29 c-3
-3 -12 -4 -19 -1 -8 3 -5 6 6 6 11 1 17 -2 13 -5z m50 -10 c-3 -3 -12 -4 -19
-1 -8 3 -5 6 6 6 11 1 17 -2 13 -5z m176 -1 c-7 -2 -19 -2 -25 0 -7 3 -2 5 12
5 14 0 19 -2 13 -5z m44 1 c-3 -3 -12 -4 -19 -1 -8 3 -5 6 6 6 11 1 17 -2 13
-5z m-524 -11 c-7 -2 -13 -9 -13 -15 0 -7 20 -9 58 -4 39 4 52 3 42 -4 -8 -5
-46 -9 -85 -9 -38 1 -62 3 -52 6 9 2 17 11 17 19 0 8 9 14 23 13 12 0 16 -3
10 -6z m374 -6 c4 -7 24 -18 43 -24 32 -10 27 -11 -45 -11 -91 0 -142 10 -112
23 9 4 33 5 51 3 19 -2 34 -1 34 2 -2 23 16 28 29 7z m850 7 c-3 -3 -12 -4
-19 -1 -8 3 -5 6 6 6 11 1 17 -2 13 -5z m-707 -24 c-21 -7 -18 -8 20 -11 40
-2 41 -3 12 -6 -19 -3 -41 -2 -49 1 -20 8 -6 26 20 25 20 -1 20 -2 -3 -9z
m613 3 c-7 -2 -19 -2 -25 0 -7 3 -2 5 12 5 14 0 19 -2 13 -5z m-1070 -40 c-7
-2 -21 -2 -30 0 -10 3 -4 5 12 5 17 0 24 -2 18 -5z m240 0 c-7 -2 -21 -2 -30
0 -10 3 -4 5 12 5 17 0 24 -2 18 -5z m280 0 c-13 -2 -35 -2 -50 0 -16 2 -5 4
22 4 28 0 40 -2 28 -4z m-313 -28 c8 -10 17 -12 22 -7 5 5 28 7 51 5 23 -2 70
0 104 5 34 5 60 5 57 0 -3 -4 4 -8 15 -8 12 0 21 5 21 10 0 6 7 10 15 10 8 0
15 -3 15 -7 0 -5 18 -9 40 -10 22 0 48 -4 56 -7 29 -11 -4 -36 -47 -36 -43 0
-56 -25 -16 -33 12 -3 -23 -5 -78 -5 -104 0 -167 -16 -178 -47 -4 -8 -16 -15
-27 -15 -11 0 -20 -4 -20 -10 0 -5 -6 -10 -14 -10 -10 0 -13 8 -11 21 6 29 13
35 27 21 19 -19 38 -14 38 9 0 19 -4 20 -47 13 -50 -7 -112 -33 -81 -34 9 0
19 -6 21 -12 4 -10 8 -9 16 2 9 13 11 13 11 -2 0 -10 -6 -18 -12 -18 -82 -2
-325 -2 -365 0 -35 2 -53 8 -53 16 0 7 8 15 18 17 10 3 5 5 -12 6 -16 0 -34
-6 -40 -14 -14 -18 -83 -34 -72 -17 4 7 1 12 -8 12 -9 0 -16 -5 -16 -11 0 -6
-6 -9 -12 -6 -7 2 -12 10 -10 16 4 20 -16 12 -21 -9 -5 -20 -37 -29 -37 -10 0
6 5 10 11 10 8 0 8 5 -1 15 -11 13 -4 15 51 16 47 1 57 3 39 9 -14 4 -41 9
-60 10 -19 1 -29 4 -22 7 6 2 12 11 12 18 0 10 17 15 58 18 l57 3 -64 2 c-85
3 -70 15 22 19 40 1 115 7 167 12 52 5 154 12 225 15 159 7 161 7 105 16 l-45
7 41 1 c27 1 46 -4 54 -13z m103 8 c-7 -2 -19 -2 -25 0 -7 3 -2 5 12 5 14 0
19 -2 13 -5z m1244 1 c-3 -3 -12 -4 -19 -1 -8 3 -5 6 6 6 11 1 17 -2 13 -5z
m-437 -18 c-10 -13 -3 -16 47 -19 l58 -3 -67 -2 c-46 -1 -68 -6 -69 -14 0 -10
-2 -10 -6 0 -2 6 -17 13 -31 13 -20 1 -17 4 13 9 l40 7 -35 2 c-46 2 -20 21
29 21 28 0 32 -2 21 -14z m-1831 -12 c2 -2 -29 -3 -70 -3 -61 2 -67 3 -34 9
36 6 94 2 104 -6z m1471 6 c0 -5 19 -11 43 -11 26 -1 12 -5 -38 -9 -79 -8
-132 1 -120 20 8 13 115 13 115 0z m240 0 c0 -6 -28 -10 -67 -9 -53 1 -61 3
-38 9 45 11 105 11 105 0z m400 1 l45 -8 -40 -1 c-22 -1 -58 3 -80 7 l-40 9
35 0 c19 0 55 -3 80 -7z m410 1 c0 -5 -13 -7 -30 -4 -16 2 -30 6 -30 8 0 2 14
4 30 4 17 0 30 -4 30 -8z m-2990 -12 c-20 -13 -60 -13 -60 0 0 6 17 10 38 10
27 0 33 -3 22 -10z m220 0 c0 -5 -19 -10 -42 -9 -37 1 -39 2 -18 9 36 12 60
12 60 0z m343 3 c-13 -2 -35 -2 -50 0 -16 2 -5 4 22 4 28 0 40 -2 28 -4z
m2180 0 c-7 -2 -19 -2 -25 0 -7 3 -2 5 12 5 14 0 19 -2 13 -5z m152 -14 c13
-12 58 -11 50 1 -3 6 3 10 15 10 12 0 19 -4 16 -8 -2 -4 12 -7 32 -5 l37 2
-40 -11 c-45 -12 -200 3 -219 22 -13 14 94 2 109 -11z m-2842 4 c-7 -2 -19 -2
-25 0 -7 3 -2 5 12 5 14 0 19 -2 13 -5z m2140 -13 c27 0 38 -3 31 -10 -10 -10
-201 -16 -211 -6 -4 3 10 6 30 6 20 0 39 5 43 11 4 6 19 9 36 5 17 -3 49 -6
71 -6z m444 4 c-3 -3 -12 -4 -19 -1 -8 3 -5 6 6 6 11 1 17 -2 13 -5z m-2192
-14 c4 -6 -15 -9 -52 -9 -56 2 -56 2 -18 9 60 11 63 11 70 0z m268 3 c-18 -2
-48 -2 -65 0 -18 2 -4 4 32 4 36 0 50 -2 33 -4z m-409 -18 c3 -8 12 -15 21
-15 8 0 15 -4 15 -9 0 -4 11 -6 25 -3 15 2 25 0 25 -7 0 -8 -19 -10 -65 -5
-52 5 -65 4 -65 -7 0 -10 -2 -11 -8 -2 -4 7 -19 12 -32 11 -68 -4 -130 3 -130
15 0 9 23 11 90 9 56 -2 90 0 90 7 0 5 -10 12 -22 14 -15 3 -10 5 13 6 25 1
39 -4 43 -14z m211 5 c0 -1 16 -3 35 -5 46 -4 46 -3 33 -16 -16 -16 -113 -1
-113 17 0 9 8 12 23 10 12 -3 22 -5 22 -6z m1390 0 c-3 -5 -25 -10 -48 -9 -36
1 -38 2 -17 9 36 12 72 12 65 0z m62 4 c-3 -3 -12 -4 -19 -1 -8 3 -5 6 6 6 11
1 17 -2 13 -5z m-1929 -10 c18 -4 32 -12 32 -20 0 -16 -43 -36 -48 -23 -2 5
-21 9 -42 9 -21 0 -41 4 -44 8 -3 5 8 6 24 4 15 -2 36 1 47 7 21 12 -63 13
-215 3 -83 -6 -113 -2 -79 11 18 7 286 8 325 1z m1739 0 c-3 -3 -12 -4 -19 -1
-8 3 -5 6 6 6 11 1 17 -2 13 -5z m-1070 -10 c-3 -3 -12 -4 -19 -1 -8 3 -5 6 6
6 11 1 17 -2 13 -5z m1511 -4 c19 0 23 -3 15 -11 -7 -7 -27 -8 -53 -4 -30 5
-39 10 -29 16 8 5 20 7 27 4 8 -3 25 -5 40 -5z m-2338 -10 c0 -5 -6 -10 -12
-11 -7 0 -4 -4 7 -9 16 -7 17 -9 3 -9 -9 -1 -20 4 -23 9 -7 12 2 30 16 30 5 0
9 -4 9 -10z m565 0 c-3 -5 -10 -10 -16 -10 -5 0 -9 5 -9 10 0 6 7 10 16 10 8
0 12 -4 9 -10z m1892 4 c-3 -3 -12 -4 -19 -1 -8 3 -5 6 6 6 11 1 17 -2 13 -5z
m-2537 -20 c0 -2 -7 -4 -15 -4 -8 0 -15 4 -15 10 0 5 7 7 15 4 8 -4 15 -8 15
-10z m2130 -4 c-20 -13 -40 -13 -40 0 0 6 12 10 28 10 21 0 24 -2 12 -10z
m-1942 -7 c-16 -2 -40 -2 -55 0 -16 2 -3 4 27 4 30 0 43 -2 28 -4z m1725 0
c-18 -7 -16 -21 5 -26 11 -3 7 -5 -10 -6 -21 -1 -26 3 -25 19 1 13 8 20 22 19
11 0 14 -3 8 -6z m397 -29 c0 -8 -8 -14 -17 -14 -15 0 -16 2 -3 10 11 7 -2 10
-45 11 l-60 2 55 6 c62 7 70 6 70 -15z m185 16 c2 -3 -23 -6 -56 -5 -32 0 -59
3 -59 7 0 9 109 7 115 -2z m-2158 -6 c-3 -3 -12 -4 -19 -1 -8 3 -5 6 6 6 11 1
17 -2 13 -5z m1813 -9 c0 -8 -2 -15 -4 -15 -2 0 -6 7 -10 15 -3 8 -1 15 4 15
6 0 10 -7 10 -15z m553 8 c-7 -2 -19 -2 -25 0 -7 3 -2 5 12 5 14 0 19 -2 13
-5z m-341 -26 c-24 -11 -38 -5 -28 11 3 6 16 8 28 4 l22 -5 -22 -10z m-629 -4
c-7 -2 -19 -2 -25 0 -7 3 -2 5 12 5 14 0 19 -2 13 -5z m286 -19 c2 -2 -28 -2
-67 -1 -78 2 -84 7 -19 17 35 5 68 -1 86 -16z m445 20 c29 -11 17 -24 -22 -24
-28 0 -39 4 -39 15 0 15 32 20 61 9z m61 -4 c3 -5 -1 -10 -10 -10 -9 0 -13 5
-10 10 3 6 8 10 10 10 2 0 7 -4 10 -10z m1268 -47 c-13 -2 -35 -2 -50 0 -16 2
-5 4 22 4 28 0 40 -2 28 -4z m-1626 -9 c-3 -3 -12 -4 -19 -1 -8 3 -5 6 6 6 11
1 17 -2 13 -5z m-1149 -27 c22 -14 13 -27 -20 -28 -31 0 -31 -1 -10 -10 13 -5
28 -7 33 -3 5 3 9 0 9 -5 0 -17 -119 -14 -136 3 -18 19 -18 43 1 54 17 9 102
1 123 -11z m-163 -7 c3 -5 1 -10 -4 -10 -6 0 -11 5 -11 10 0 6 2 10 4 10 3 0
8 -4 11 -10z m-212 -21 c5 -3 2 -9 -7 -12 -12 -5 -16 0 -16 15 0 12 3 17 8 12
4 -5 11 -12 15 -15z m917 9 c0 -4 -7 -8 -16 -8 -8 0 -13 -4 -10 -8 3 -5 -9 -8
-27 -8 -18 0 -52 -4 -77 -7 -40 -7 -42 -6 -20 5 14 7 31 18 38 25 14 13 112
14 112 1z m-627 -85 c-7 -2 -19 -2 -25 0 -7 3 -2 5 12 5 14 0 19 -2 13 -5z
m-69 -18 c3 -8 1 -15 -4 -15 -6 0 -10 7 -10 15 0 8 2 15 4 15 2 0 6 -7 10 -15z
m2069 8 c-7 -2 -21 -2 -30 0 -10 3 -4 5 12 5 17 0 24 -2 18 -5z m-2683 -29 c0
-2 -24 -3 -52 -3 -52 2 -53 2 -13 8 37 6 65 4 65 -5z m2170 6 l-45 -7 45 -3
c28 -2 36 -4 21 -7 -31 -6 -91 5 -91 17 0 6 26 9 58 8 l57 -1 -45 -7z m-380
-21 c0 -5 -11 -9 -25 -9 -26 0 -34 15 -12 23 16 5 37 -3 37 -14z m198 13 c-10
-2 -18 -7 -18 -11 0 -5 -17 -7 -37 -6 -21 1 -57 3 -80 4 -24 0 -43 4 -43 9 0
4 44 7 98 8 53 0 89 -2 80 -4z m315 -2 c-12 -5 -34 -5 -50 0 -24 7 -21 8 22 9
38 0 45 -2 28 -9z m82 -10 c4 -6 -9 -10 -32 -9 -38 1 -38 1 -8 9 17 4 31 8 32
9 1 0 5 -3 8 -9z m92 4 c-3 -3 -12 -4 -19 -1 -8 3 -5 6 6 6 11 1 17 -2 13 -5z
m-1794 -11 c-7 -2 -13 -13 -13 -24 0 -13 7 -19 23 -18 33 1 115 16 95 18 -30
2 -20 21 10 21 27 0 92 -43 92 -61 0 -18 -28 -8 -33 11 -4 14 -10 18 -23 13
-12 -4 -14 -8 -5 -11 26 -9 -21 -42 -58 -41 -20 1 -28 3 -18 6 35 9 16 22 -43
29 -33 3 -57 10 -54 15 3 5 -1 9 -9 9 -8 0 -18 7 -21 16 -4 12 -1 14 14 9 11
-4 20 -2 20 4 0 6 8 11 18 10 10 0 12 -3 5 -6z m1360 0 c-7 -2 -19 -2 -25 0
-7 3 -2 5 12 5 14 0 19 -2 13 -5z m57 -3 c0 -5 -7 -7 -15 -4 -8 4 -15 8 -15
10 0 2 7 4 15 4 8 0 15 -4 15 -10z m-1363 -6 c-3 -3 -12 -4 -19 -1 -8 3 -5 6
6 6 11 1 17 -2 13 -5z m1628 -13 l40 -9 -50 0 c-27 0 -90 6 -140 13 l-90 14
100 -5 c55 -2 118 -8 140 -13z m158 12 c-13 -2 -35 -2 -50 0 -16 2 -5 4 22 4
28 0 40 -2 28 -4z m225 0 c-16 -2 -40 -2 -55 0 -16 2 -3 4 27 4 30 0 43 -2 28
-4z m-210 -20 c-16 -2 -40 -2 -55 0 -16 2 -3 4 27 4 30 0 43 -2 28 -4z m195 0
c-7 -2 -21 -2 -30 0 -10 3 -4 5 12 5 17 0 24 -2 18 -5z m-470 -10 c-7 -2 -19
-2 -25 0 -7 3 -2 5 12 5 14 0 19 -2 13 -5z m-2245 -46 c7 -5 22 -5 35 -2 17 5
19 4 7 -4 -13 -10 -13 -11 0 -11 13 0 13 -1 0 -10 -9 -6 -17 -5 -21 2 -4 6
-51 13 -105 16 -59 3 -89 8 -74 12 34 9 142 7 158 -3z m-78 -27 c0 -5 -7 -10
-15 -10 -8 0 -15 5 -15 10 0 6 7 10 15 10 8 0 15 -4 15 -10z m833 3 c-13 -2
-33 -2 -45 0 -13 2 -3 4 22 4 25 0 35 -2 23 -4z m-570 -40 c-7 -2 -21 -2 -30
0 -10 3 -4 5 12 5 17 0 24 -2 18 -5z m-73 -13 c0 -5 -10 -10 -22 -10 -19 0
-20 2 -8 10 19 13 30 13 30 0z m-87 -7 c-7 -2 -21 -2 -30 0 -10 3 -4 5 12 5
17 0 24 -2 18 -5z m177 -3 c-8 -5 -24 -9 -35 -9 -16 1 -16 2 5 9 35 11 48 11
30 0z"/>
<path d="M4983 3483 c-29 -6 -29 -16 0 -32 15 -8 56 -11 120 -9 53 2 97 0 97
-4 0 -15 35 -7 60 12 17 14 41 20 77 20 28 0 54 4 58 9 3 6 -46 9 -126 8 -97
-1 -132 -4 -136 -14 -6 -16 -103 -18 -103 -2 0 5 3 8 8 6 4 -3 25 -1 47 3 37
7 36 8 -20 7 -33 0 -70 -2 -82 -4z"/>
<path d="M4720 3463 c-86 -5 -122 -23 -44 -23 38 0 46 -3 34 -11 -12 -9 -11
-9 5 -3 11 4 39 10 63 13 23 3 43 11 43 16 0 12 -4 12 -101 8z"/>
<path d="M4895 3460 c-3 -5 -1 -10 4 -10 6 0 11 5 11 10 0 6 -2 10 -4 10 -3 0
-8 -4 -11 -10z"/>
<path d="M4613 3163 c20 -2 54 -2 75 0 20 2 3 4 -38 4 -41 0 -58 -2 -37 -4z"/>
<path d="M5273 2943 c9 -2 23 -2 30 0 6 3 -1 5 -18 5 -16 0 -22 -2 -12 -5z"/>
<path d="M5785 2820 c-4 -6 7 -10 24 -10 17 0 31 5 31 10 0 6 -11 10 -24 10
-14 0 -28 -4 -31 -10z"/>
<path d="M5903 2823 c9 -2 23 -2 30 0 6 3 -1 5 -18 5 -16 0 -22 -2 -12 -5z"/>
<path d="M5723 2813 c9 -2 23 -2 30 0 6 3 -1 5 -18 5 -16 0 -22 -2 -12 -5z"/>
<path d="M3695 2800 c3 -5 17 -10 31 -10 14 0 22 4 19 10 -3 6 -17 10 -31 10
-14 0 -22 -4 -19 -10z"/>
<path d="M3795 2800 c-3 -5 1 -10 10 -10 9 0 13 5 10 10 -3 6 -8 10 -10 10 -2
0 -7 -4 -10 -10z"/>
<path d="M3845 2800 c-3 -5 1 -10 10 -10 9 0 13 5 10 10 -3 6 -8 10 -10 10 -2
0 -7 -4 -10 -10z"/>
<path d="M5512 2796 c7 -8 15 -12 17 -11 5 6 -10 25 -20 25 -5 0 -4 -6 3 -14z"/>
<path d="M5648 2803 c6 -2 18 -2 25 0 6 3 1 5 -13 5 -14 0 -19 -2 -12 -5z"/>
<path d="M4568 2793 c6 -2 18 -2 25 0 6 3 1 5 -13 5 -14 0 -19 -2 -12 -5z"/>
<path d="M5810 2770 c0 -5 7 -10 16 -10 8 0 12 5 9 10 -3 6 -10 10 -16 10 -5
0 -9 -4 -9 -10z"/>
<path d="M6235 2770 c4 -6 11 -8 16 -5 14 9 11 15 -7 15 -8 0 -12 -5 -9 -10z"/>
<path d="M4648 2763 c7 -3 16 -2 19 1 4 3 -2 6 -13 5 -11 0 -14 -3 -6 -6z"/>
<path d="M4838 2753 c7 -3 16 -2 19 1 4 3 -2 6 -13 5 -11 0 -14 -3 -6 -6z"/>
<path d="M4978 2573 c12 -2 32 -2 45 0 12 2 2 4 -23 4 -25 0 -35 -2 -22 -4z"/>
<path d="M4493 2553 c9 -2 25 -2 35 0 9 3 1 5 -18 5 -19 0 -27 -2 -17 -5z"/>
<path d="M4958 2533 c7 -3 16 -2 19 1 4 3 -2 6 -13 5 -11 0 -14 -3 -6 -6z"/>
<path d="M5008 2533 c7 -3 16 -2 19 1 4 3 -2 6 -13 5 -11 0 -14 -3 -6 -6z"/>
<path d="M4660 2520 c20 -13 33 -13 25 0 -3 6 -14 10 -23 10 -15 0 -15 -2 -2
-10z"/>
<path d="M4720 2520 c0 -5 14 -10 30 -10 17 0 30 5 30 10 0 6 -13 10 -30 10
-16 0 -30 -4 -30 -10z"/>
<path d="M4286 2506 c3 -8 -2 -16 -13 -19 -10 -3 -3 -5 16 -6 26 -1 32 2 27
15 -3 9 -6 18 -6 20 0 2 -7 4 -15 4 -8 0 -12 -6 -9 -14z"/>
<path d="M4406 2501 c-2 -3 -4 -18 -4 -33 1 -30 12 -37 22 -13 3 8 10 15 17
15 6 0 9 -7 5 -15 -4 -12 5 -15 52 -13 40 1 46 2 22 5 -39 5 -57 17 -41 27 6
4 11 2 11 -3 0 -15 37 -14 43 2 4 10 6 10 6 0 1 -16 33 -16 86 -2 l40 11 -48
16 c-29 9 -51 12 -55 6 -6 -8 -68 -11 -82 -4 -13 6 -71 7 -74 1z"/>
<path d="M4358 2453 c7 -3 16 -2 19 1 4 3 -2 6 -13 5 -11 0 -14 -3 -6 -6z"/>
<path d="M4590 2449 c-22 -6 -20 -7 13 -8 38 -1 47 3 25 11 -7 3 -24 1 -38 -3z"/>
<path d="M495 3813 c-4 -16 -9 -41 -11 -58 -2 -16 -9 -52 -14 -80 -6 -27 -16
-78 -22 -112 -5 -35 -13 -61 -17 -59 -10 6 -15 -88 -15 -279 0 -194 16 -299
69 -473 30 -95 19 -94 139 -10 39 27 87 60 106 73 l35 23 395 -34 c217 -19
417 -33 445 -31 49 2 50 2 77 57 61 120 95 409 69 591 -27 189 -80 319 -131
319 -14 0 -214 -11 -445 -26 l-420 -27 -115 77 c-63 42 -120 76 -126 76 -7 0
-15 -12 -19 -27z m148 -144 c52 -27 55 -34 40 -102 -37 -179 -37 -430 2 -607
l14 -65 -32 -27 c-18 -15 -37 -28 -43 -28 -13 0 -39 89 -60 212 -20 114 -14
386 11 488 38 155 33 147 68 129z"/>
<path d="M8162 3760 c-98 -70 -118 -80 -155 -80 -23 1 -220 16 -437 34 -217
18 -401 31 -407 29 -24 -9 -74 -129 -92 -220 -40 -195 -36 -402 10 -582 21
-78 61 -158 83 -167 7 -3 186 6 397 20 211 14 407 26 436 27 48 2 57 -2 168
-74 65 -42 121 -77 126 -77 10 0 22 44 45 170 9 52 21 106 27 120 5 14 10 36
12 50 1 14 6 41 10 60 5 26 4 31 -4 20 -7 -9 -11 -10 -11 -3 0 6 4 14 9 18 10
6 11 22 11 200 0 134 -12 224 -50 375 -41 161 -41 160 -54 160 -6 -1 -62 -37
-124 -80z m43 -142 c44 -149 61 -337 45 -493 -11 -110 -45 -272 -60 -289 -7
-7 -33 6 -79 40 -1 2 5 47 15 101 26 138 26 399 0 542 l-20 104 30 23 c16 13
34 24 41 24 7 0 19 -23 28 -52z"/>
<path d="M4528 2213 c7 -3 16 -2 19 1 4 3 -2 6 -13 5 -11 0 -14 -3 -6 -6z"/>
<path d="M4990 2190 c0 -5 11 -10 25 -10 14 0 25 5 25 10 0 6 -11 10 -25 10
-14 0 -25 -4 -25 -10z"/>
<path d="M3498 2173 c7 -3 16 -2 19 1 4 3 -2 6 -13 5 -11 0 -14 -3 -6 -6z"/>
<path d="M4855 2170 c3 -5 15 -10 26 -10 10 0 19 5 19 10 0 6 -12 10 -26 10
-14 0 -23 -4 -19 -10z"/>
<path d="M4418 2116 c-10 -7 -18 -18 -18 -23 0 -12 -33 -23 -72 -23 -16 0 -28
-5 -28 -11 0 -8 11 -9 33 -5 17 4 46 9 62 11 17 3 43 7 58 11 26 5 27 7 10 20
-14 10 -15 13 -3 14 24 0 43 -17 37 -33 -3 -8 -23 -17 -44 -21 -21 -3 -65 -11
-98 -16 -33 -5 -89 -8 -125 -6 -49 3 -55 2 -25 -4 l40 -7 -34 -1 c-19 -1 -32
-4 -29 -7 9 -9 229 16 291 33 49 13 57 19 55 37 -2 12 -12 21 -25 23 -13 2
-23 8 -23 13 0 13 -42 10 -62 -5z"/>
<path d="M5400 2120 c34 -11 60 -11 35 0 -11 5 -29 8 -40 8 -16 0 -15 -2 5 -8z"/>
<path d="M3670 2110 c-8 -5 -11 -13 -6 -17 5 -4 11 -3 13 3 2 6 15 9 30 6 18
-3 24 -1 19 7 -9 13 -35 14 -56 1z"/>
<path d="M3748 2113 c6 -2 18 -2 25 0 6 3 1 5 -13 5 -14 0 -19 -2 -12 -5z"/>
<path d="M5490 2110 c0 -6 7 -10 15 -10 8 0 15 -4 15 -10 0 -5 19 -14 43 -21
23 -6 50 -20 60 -30 15 -16 26 -18 55 -13 49 9 53 14 11 14 -22 0 -29 3 -21 9
9 5 -6 14 -45 25 -32 10 -67 21 -78 26 -40 16 -55 19 -55 10z"/>
<path d="M3610 2090 c0 -5 4 -10 9 -10 6 0 13 5 16 10 3 6 -1 10 -9 10 -9 0
-16 -4 -16 -10z"/>
<path d="M3818 2083 c7 -3 16 -2 19 1 4 3 -2 6 -13 5 -11 0 -14 -3 -6 -6z"/>
<path d="M3860 2076 c0 -8 -6 -17 -12 -19 -7 -3 2 -6 21 -6 27 -1 31 2 22 12
-6 8 -8 17 -4 20 3 4 -1 7 -10 7 -9 0 -17 -6 -17 -14z"/>
<path d="M5073 2083 c9 -2 25 -2 35 0 9 3 1 5 -18 5 -19 0 -27 -2 -17 -5z"/>
<path d="M5040 2054 l-25 -15 25 7 c14 3 29 10 35 15 15 14 -7 10 -35 -7z"/>
<path d="M5133 2063 c20 -2 35 -8 32 -14 -4 -5 9 -9 27 -9 19 0 39 -5 44 -10
15 -15 44 -2 37 17 -5 12 -3 14 8 8 11 -6 12 -5 2 5 -11 11 -17 11 -38 0 -19
-10 -30 -11 -50 -2 -14 7 -43 11 -63 10 l-37 -1 38 -4z"/>
<path d="M5435 2060 c3 -5 16 -10 28 -11 20 -1 20 -2 -3 -8 -24 -7 -24 -7 9
-14 19 -4 36 -5 39 -2 3 3 -2 5 -12 5 -9 0 -14 5 -11 10 3 6 -6 15 -20 20 -33
13 -38 13 -30 0z"/>
<path d="M3642 2051 c4 -13 18 -16 19 -4 0 4 -5 9 -11 12 -7 2 -11 -2 -8 -8z"/>
<path d="M4248 2053 c6 -2 18 -2 25 0 6 3 1 5 -13 5 -14 0 -19 -2 -12 -5z"/>
<path d="M3744 2038 c-3 -5 -9 -6 -14 -3 -7 4 -24 -24 -18 -30 2 -2 18 -6 36
-10 25 -5 32 -3 32 9 0 9 6 16 14 16 32 0 24 18 -10 22 -19 2 -38 0 -40 -4z"/>
<path d="M3904 2029 c-3 -5 6 -9 20 -9 31 0 34 6 6 13 -11 3 -23 1 -26 -4z"/>
<path d="M4048 2033 c17 -2 47 -2 65 0 17 2 3 4 -33 4 -36 0 -50 -2 -32 -4z"/>
<path d="M3985 2020 c11 -5 31 -8 45 -8 l25 0 -25 8 c-14 4 -34 8 -45 8 l-20
1 20 -9z"/>
<path d="M4595 2020 c-3 -5 -1 -10 4 -10 6 0 11 5 11 10 0 6 -2 10 -4 10 -3 0
-8 -4 -11 -10z"/>
<path d="M4713 2023 c9 -2 23 -2 30 0 6 3 -1 5 -18 5 -16 0 -22 -2 -12 -5z"/>
<path d="M6662 2003 c1 -37 10 -42 56 -36 23 4 32 11 32 24 0 11 7 19 15 19 8
0 15 -9 15 -19 0 -16 18 -31 36 -31 2 0 4 14 4 31 0 16 -4 28 -9 24 -5 -3 -12
-1 -15 4 -8 13 -48 1 -63 -18 -11 -14 -13 -14 -27 4 -11 14 -15 16 -16 6 0
-11 -4 -9 -14 5 -14 18 -15 17 -14 -13z"/>
<path d="M4363 2013 c9 -2 23 -2 30 0 6 3 -1 5 -18 5 -16 0 -22 -2 -12 -5z"/>
<path d="M6844 2009 c-4 -8 -3 -9 4 -5 7 4 12 1 12 -8 0 -8 -6 -17 -12 -19 -8
-3 -6 -6 5 -6 10 -1 17 6 17 18 0 24 -16 36 -26 20z"/>
<path d="M6886 2004 c-7 -18 0 -34 15 -34 5 0 9 11 9 25 0 28 -15 34 -24 9z"/>
<path d="M3840 2000 c0 -5 7 -10 16 -10 8 0 12 5 9 10 -3 6 -10 10 -16 10 -5
0 -9 -4 -9 -10z"/>
<path d="M4093 2003 c9 -2 23 -2 30 0 6 3 -1 5 -18 5 -16 0 -22 -2 -12 -5z"/>
<path d="M6630 1990 c0 -11 4 -20 9 -20 5 0 7 9 4 20 -3 11 -7 20 -9 20 -2 0
-4 -9 -4 -20z"/>
<path d="M6922 1990 c0 -14 2 -19 5 -12 2 6 2 18 0 25 -3 6 -5 1 -5 -13z"/>
<path d="M3798 1993 c6 -2 18 -2 25 0 6 3 1 5 -13 5 -14 0 -19 -2 -12 -5z"/>
<path d="M3933 1993 c9 -2 23 -2 30 0 6 3 -1 5 -18 5 -16 0 -22 -2 -12 -5z"/>
<path d="M4008 1993 c6 -2 18 -2 25 0 6 3 1 5 -13 5 -14 0 -19 -2 -12 -5z"/>
<path d="M4213 1993 c9 -2 23 -2 30 0 6 3 -1 5 -18 5 -16 0 -22 -2 -12 -5z"/>
<path d="M3783 1973 c26 -2 68 -2 95 0 26 2 4 3 -48 3 -52 0 -74 -1 -47 -3z"/>
<path d="M5718 1940 c-160 -19 -304 -64 -339 -107 -8 -9 -4 -121 15 -410 14
-219 26 -417 26 -440 0 -34 -13 -61 -75 -158 -41 -65 -75 -121 -75 -125 0 -9
39 -20 85 -26 34 -4 84 -15 205 -46 120 -30 382 -37 535 -14 111 16 323 70
339 86 5 5 -27 59 -74 127 l-83 118 32 405 c18 223 35 421 38 441 5 35 3 38
-41 64 -123 72 -379 109 -588 85z m-133 -1076 c117 -24 388 -24 527 0 117 20
120 19 150 -32 l18 -30 -78 -20 c-214 -56 -453 -61 -659 -12 -119 28 -120 29
-91 74 27 41 27 41 133 20z"/>
<path d="M2820 1929 c-114 -13 -225 -44 -289 -80 l-53 -31 6 -76 c3 -43 13
-187 22 -322 8 -135 19 -298 23 -364 l9 -118 -79 -121 c-44 -66 -79 -124 -79
-128 0 -9 43 -21 90 -25 46 -5 123 -21 184 -40 74 -24 116 -27 331 -28 213 -1
259 5 448 55 59 16 110 29 112 29 17 0 -5 41 -75 141 -44 63 -80 123 -80 133
0 11 5 70 10 130 40 437 60 729 50 741 -20 24 -132 67 -222 85 -112 23 -295
32 -408 19z m-125 -1076 c110 -23 418 -22 530 1 108 22 111 21 140 -21 l25
-38 -37 -13 c-198 -70 -537 -73 -761 -7 -29 9 -52 18 -52 21 0 15 47 74 60 74
8 0 51 -7 95 -17z"/>
<path d="M4262 1899 c-110 -10 -231 -42 -295 -76 l-52 -28 3 -115 c2 -63 14
-263 26 -444 l21 -330 -55 -85 c-78 -121 -103 -162 -99 -165 14 -10 72 -25
116 -30 29 -4 87 -16 130 -27 104 -28 111 -29 238 -37 137 -9 315 1 419 22
126 26 266 68 266 79 0 5 -37 62 -82 126 l-81 116 36 435 c40 494 44 454 -48
495 -70 31 -173 53 -306 65 -124 11 -118 11 -237 -1z m-147 -1076 c118 -24
407 -24 544 1 l105 18 23 -28 c13 -16 23 -34 23 -41 0 -24 -191 -67 -350 -78
-47 -4 -134 -1 -195 5 -109 11 -272 45 -288 60 -10 9 33 80 48 80 6 0 46 -7
90 -17z"/>
</g>
</svg>
