<?xml version="1.0" standalone="no"?>
<!DOCTYPE svg PUBLIC "-//W3C//DTD SVG 20010904//EN"
 "http://www.w3.org/TR/2001/REC-SVG-20010904/DTD/svg10.dtd">
<svg version="1.0" xmlns="http://www.w3.org/2000/svg"
 width="224.000000pt" height="225.000000pt" viewBox="0 0 224.000000 225.000000"
 preserveAspectRatio="xMidYMid meet">

<g transform="translate(0.000000,225.000000) scale(0.100000,-0.100000)"
fill="#FF0C0E" stroke="none">
<path d="M970 2239 c-230 -30 -469 -149 -641 -321 -427 -427 -436 -1123 -18
-1562 93 -99 180 -164 299 -225 87 -44 227 -98 234 -90 2 2 15 25 30 50 l27
47 -71 21 c-39 12 -113 43 -163 69 -545 279 -720 959 -378 1466 353 522 1089
593 1538 148 386 -382 400 -1002 30 -1397 -42 -46 -107 -106 -145 -133 -82
-61 -226 -133 -316 -157 l-66 -18 22 -36 c39 -66 38 -66 115 -41 37 12 111 44
163 71 412 211 654 661 601 1118 -74 629 -637 1071 -1261 990z"/>
<path d="M930 2021 c-295 -63 -550 -280 -660 -563 -84 -217 -80 -471 12 -695
55 -131 167 -273 288 -365 115 -87 355 -187 382 -160 6 6 31 47 57 93 l48 83
-121 248 -121 249 -38 -6 c-53 -9 -124 10 -177 49 -89 65 -145 219 -138 376 5
97 23 142 68 165 43 22 77 19 149 -15 125 -59 250 -212 267 -326 8 -55 -17
-139 -54 -183 l-28 -34 114 -196 c63 -108 120 -202 127 -209 9 -11 35 28 130
193 l117 207 -21 43 c-24 49 -27 111 -7 159 19 45 267 428 273 422 5 -4 -68
-147 -174 -343 -20 -37 -25 -55 -17 -63 8 -8 44 45 128 185 65 108 121 193
124 190 3 -3 -38 -93 -91 -201 -53 -107 -97 -199 -97 -205 0 -5 6 -9 13 -9 7
0 52 71 100 158 166 301 178 305 48 16 -83 -181 -93 -214 -72 -214 4 0 54 90
111 201 57 111 106 197 107 192 6 -18 -176 -446 -205 -481 -35 -44 -87 -72
-132 -72 l-36 0 -117 -247 -117 -246 52 -93 c34 -60 59 -94 70 -94 27 0 179
50 233 78 227 114 395 317 471 567 25 81 27 106 28 245 1 169 -10 230 -65 363
-63 151 -201 317 -344 412 -191 126 -454 174 -685 126z"/>
<path d="M1092 255 l-22 -45 45 0 45 0 -21 43 c-12 23 -22 43 -23 44 -1 2 -12
-18 -24 -42z"/>
<path d="M1004 69 c-14 -28 -23 -54 -20 -57 9 -8 254 -8 262 1 4 4 -3 30 -16
57 l-23 50 -89 0 -88 0 -26 -51z"/>
</g>
</svg>
