<?xml version="1.0" standalone="no"?>
<!DOCTYPE svg PUBLIC "-//W3C//DTD SVG 20010904//EN"
 "http://www.w3.org/TR/2001/REC-SVG-20010904/DTD/svg10.dtd">
<svg version="1.0" xmlns="http://www.w3.org/2000/svg"
 width="200.000000pt" height="200.000000pt" viewBox="0 0 200.000000 200.000000"
 preserveAspectRatio="xMidYMid meet">

<g transform="translate(0.000000,200.000000) scale(0.100000,-0.100000)"
fill="#000000" stroke="none">
<path d="M820 1270 c-173 -10 -340 -36 -475 -75 -94 -28 -234 -89 -285 -125
l-30 -21 0 -240 0 -239 231 0 231 0 39 34 c81 69 278 142 363 134 l35 -3 -16
-34 c-10 -20 -29 -39 -45 -45 -20 -7 -30 -19 -34 -43 -3 -17 -3 -36 1 -42 7
-12 163 -15 239 -5 46 7 46 7 46 45 0 28 -5 39 -18 43 -16 5 -62 72 -62 89 0
9 97 -3 187 -24 97 -22 186 -64 238 -114 l38 -35 228 0 229 0 0 239 0 239 -39
32 c-183 144 -603 217 -1101 190z m535 -91 c167 -21 298 -55 403 -107 41 -20
51 -29 46 -44 -12 -40 -75 -168 -82 -168 -4 0 -34 18 -67 40 -54 37 -59 43
-57 72 8 91 -142 147 -453 170 -266 19 -555 -12 -682 -73 -70 -34 -88 -57 -80
-104 5 -29 2 -34 -51 -66 -31 -19 -60 -36 -64 -37 -12 -5 -90 170 -81 179 4 4
41 21 82 38 143 60 327 98 541 111 153 9 425 4 545 -11z m-48 -134 c102 -17
181 -40 202 -60 11 -11 3 -16 -44 -34 -108 -40 -233 -55 -475 -55 -242 0 -367
15 -475 55 -46 17 -54 23 -44 35 22 26 160 59 319 74 117 12 406 3 517 -15z
m-1133 -190 l45 -100 96 -3 95 -3 0 -49 0 -50 -150 0 -150 0 0 162 c0 100 4
158 9 153 5 -6 30 -55 55 -110z m1706 -45 l0 -160 -150 0 -150 0 0 50 0 50 94
0 93 0 49 110 c27 60 52 110 57 110 4 0 7 -72 7 -160z m-1400 63 c-1 -17 -52
-44 -78 -41 -27 3 -26 4 13 25 41 23 65 29 65 16z m1095 -18 l40 -24 -30 -1
c-17 0 -43 10 -60 25 -26 21 -27 24 -10 25 11 0 38 -11 60 -25z m-830 -31 l79
-7 -79 -22 c-86 -22 -178 -62 -226 -95 l-29 -21 0 50 c0 47 2 52 32 67 54 28
102 43 123 39 11 -3 56 -8 100 -11z m703 -20 l52 -23 0 -51 0 -52 -32 22 c-61
40 -155 81 -229 98 l-73 17 85 11 c97 13 125 10 197 -22z"/>
</g>
</svg>
