<?xml version="1.0" standalone="no"?>
<!DOCTYPE svg PUBLIC "-//W3C//DTD SVG 20010904//EN"
 "http://www.w3.org/TR/2001/REC-SVG-20010904/DTD/svg10.dtd">
<svg version="1.0" xmlns="http://www.w3.org/2000/svg"
 width="900.000000pt" height="800.000000pt" viewBox="0 0 900.000000 800.000000"
 preserveAspectRatio="xMidYMid meet">

<g transform="translate(0.000000,800.000000) scale(0.100000,-0.100000)"
fill="#000000" stroke="none">
<path d="M4280 7588 c-58 -5 -121 -10 -140 -12 -99 -9 -177 -19 -196 -26 -12
-5 -24 -7 -27 -4 -7 7 -287 -54 -393 -86 -54 -17 -109 -33 -122 -36 -98 -21
-485 -190 -657 -287 -80 -44 -140 -80 -145 -86 -3 -4 -50 -35 -105 -71 -55
-36 -106 -71 -113 -77 -7 -7 -17 -13 -20 -13 -4 0 -18 -10 -32 -22 -14 -13
-52 -45 -85 -71 -198 -160 -422 -385 -566 -570 -72 -92 -164 -223 -219 -312
-95 -154 -114 -188 -177 -315 -31 -63 -62 -126 -69 -140 -31 -63 -161 -417
-163 -445 0 -3 -7 -29 -15 -58 -9 -28 -17 -63 -20 -77 -2 -14 -7 -32 -10 -40
-6 -16 -15 -59 -21 -97 -2 -12 -5 -26 -8 -30 -3 -5 -8 -31 -12 -58 -4 -28 -8
-59 -10 -70 -25 -134 -26 -145 -46 -431 -9 -122 -9 -199 0 -320 22 -289 29
-358 41 -389 5 -12 7 -25 4 -27 -2 -3 3 -36 11 -74 8 -38 18 -85 20 -104 11
-75 90 -348 126 -435 7 -16 14 -38 15 -47 2 -10 12 -37 23 -60 10 -24 24 -59
31 -78 14 -37 145 -306 183 -375 33 -61 80 -138 89 -150 5 -5 36 -53 71 -105
34 -52 65 -99 70 -105 249 -319 458 -534 689 -711 35 -27 68 -53 75 -59 24
-20 38 -30 82 -59 25 -16 50 -33 55 -37 21 -17 118 -79 124 -79 3 0 13 -6 21
-14 35 -30 299 -168 439 -228 120 -52 439 -161 502 -173 19 -3 40 -7 45 -9 66
-19 101 -28 125 -31 16 -2 33 -6 38 -8 4 -3 30 -8 57 -12 28 -4 59 -8 70 -10
134 -25 145 -26 431 -46 153 -11 212 -9 514 15 93 8 176 19 196 26 12 5 24 7
26 4 3 -2 36 3 74 11 87 19 101 22 144 30 93 16 423 118 448 137 6 6 12 8 12
5 0 -8 165 61 290 120 95 45 229 117 285 154 17 10 38 22 48 25 9 4 17 10 17
15 0 5 4 9 8 9 12 0 190 118 245 162 12 10 27 21 32 26 161 127 217 176 349
307 113 112 241 255 311 350 17 22 35 45 40 52 6 7 15 18 20 25 19 23 155 230
155 235 0 2 13 24 30 47 26 39 155 286 188 361 51 116 90 215 85 215 -3 0 0 6
6 13 6 8 12 22 14 33 2 10 7 26 10 34 18 42 35 100 30 100 -3 0 -1 6 5 13 6 7
13 24 15 37 3 14 10 37 15 51 6 14 13 41 17 60 3 19 7 39 9 44 19 66 28 101
31 125 2 16 6 33 8 38 3 4 8 30 12 57 4 28 8 59 10 70 18 95 26 153 30 202 25
333 27 395 16 549 -23 297 -31 375 -42 395 -4 9 -6 19 -3 21 2 3 -3 36 -11 74
-8 38 -18 85 -20 104 -15 103 -103 387 -177 575 -62 156 -245 516 -289 569 -5
6 -36 52 -69 101 -82 123 -84 126 -95 139 -6 6 -26 31 -45 56 -142 185 -390
442 -555 575 -21 17 -46 38 -58 48 -11 9 -23 17 -26 17 -3 0 -20 13 -37 28
-18 15 -42 34 -54 42 -13 8 -41 29 -64 45 -41 31 -87 61 -118 80 -9 5 -43 26
-75 45 -32 19 -71 42 -88 52 -74 45 -321 163 -435 207 -212 83 -454 156 -587
176 -12 2 -26 5 -30 8 -5 3 -31 8 -58 12 -28 4 -59 8 -70 10 -96 18 -153 26
-202 30 -32 2 -114 8 -183 14 -145 12 -272 12 -420 -1z m550 -697 c47 -7 99
-14 115 -15 17 -2 41 -6 55 -9 14 -4 39 -8 55 -11 17 -2 86 -18 155 -36 69
-18 130 -33 135 -34 6 -1 15 -4 20 -7 6 -4 48 -19 95 -34 263 -86 651 -297
842 -457 15 -13 44 -36 65 -53 39 -30 298 -287 343 -340 94 -111 198 -253 257
-350 77 -127 209 -388 242 -480 6 -16 16 -43 22 -60 7 -16 13 -32 14 -35 0 -3
9 -30 20 -60 11 -30 20 -57 20 -60 4 -26 29 -117 34 -125 3 -5 7 -19 8 -30 2
-11 13 -63 24 -115 24 -109 26 -121 34 -210 4 -36 10 -81 14 -101 10 -46 11
-481 0 -528 -4 -20 -10 -63 -13 -96 -3 -33 -10 -86 -16 -117 -6 -31 -13 -72
-16 -90 -9 -57 -12 -71 -42 -180 -16 -60 -27 -108 -25 -108 3 0 0 -6 -6 -13
-6 -8 -12 -22 -14 -33 -2 -10 -9 -32 -16 -48 -6 -16 -13 -36 -14 -45 -1 -9 -5
-20 -9 -26 -3 -5 -18 -41 -33 -80 -47 -120 -168 -355 -244 -475 -40 -63 -76
-117 -80 -120 -3 -3 -15 -18 -25 -35 -11 -16 -40 -55 -65 -85 -25 -30 -55 -66
-66 -80 -60 -76 -373 -374 -424 -404 -9 -5 -21 -14 -27 -20 -6 -6 -22 -18 -34
-26 -12 -8 -28 -21 -36 -28 -7 -6 -17 -12 -23 -12 -6 0 -11 -4 -11 -8 0 -5
-30 -26 -66 -48 -36 -21 -77 -47 -92 -56 -46 -29 -313 -164 -382 -193 -144
-61 -353 -125 -535 -165 -106 -23 -112 -24 -215 -35 -36 -4 -85 -10 -109 -15
-24 -4 -152 -6 -285 -4 -234 4 -277 6 -361 19 -22 4 -51 8 -65 10 -14 1 -36 5
-50 8 -14 4 -41 9 -60 12 -19 4 -44 8 -55 10 -33 6 -268 73 -300 85 -16 6 -31
11 -32 11 -32 -6 -562 244 -593 278 -3 3 -18 13 -33 22 -190 106 -589 470
-717 653 -15 21 -27 37 -45 59 -19 21 -167 246 -185 279 -50 94 -146 293 -174
363 -45 108 -49 118 -51 130 -3 14 -66 216 -73 235 -3 8 -7 24 -9 35 -2 11
-13 63 -24 115 -24 109 -26 121 -34 210 -4 36 -10 82 -15 102 -11 54 -5 499 9
597 7 46 14 100 16 120 3 20 10 59 15 86 6 28 13 61 15 75 5 34 61 239 73 270
5 14 10 27 10 30 0 3 3 12 6 20 3 8 17 49 31 90 30 87 32 91 120 272 37 76
103 195 147 265 68 110 105 163 188 267 114 144 333 359 472 465 51 39 98 75
103 79 27 21 135 92 140 92 4 0 19 8 33 19 56 39 177 103 322 170 99 45 314
129 352 136 9 2 50 13 90 24 130 37 281 66 388 76 36 4 81 10 100 14 52 12
502 6 600 -8z"/>
<path d="M2873 4264 c-9 -4 -12 -74 -13 -263 0 -229 1 -259 16 -265 20 -8
3227 -8 3248 0 14 5 16 38 16 264 0 226 -2 259 -16 264 -18 7 -3233 7 -3251 0z"/>
</g>
</svg>
