<?xml version="1.0" standalone="no"?>
<!DOCTYPE svg PUBLIC "-//W3C//DTD SVG 20010904//EN"
 "http://www.w3.org/TR/2001/REC-SVG-20010904/DTD/svg10.dtd">
<svg version="1.0" xmlns="http://www.w3.org/2000/svg"
 width="225.000000pt" height="225.000000pt" viewBox="0 0 225.000000 225.000000"
 preserveAspectRatio="xMidYMid meet">

<g transform="translate(0.000000,225.000000) scale(0.100000,-0.100000)"
fill="#000000" stroke="none">
<path d="M1536 2215 c-8 -8 -25 -15 -38 -15 -13 0 -29 -5 -36 -12 -7 -7 -12
-23 -12 -36 0 -13 -7 -30 -15 -38 -8 -9 -15 -24 -15 -33 0 -10 7 -24 15 -31 8
-7 15 -22 15 -34 0 -33 16 -50 47 -51 27 -2 28 -3 31 -68 l3 -67 -47 0 c-40 0
-45 -2 -39 -17 19 -44 17 -128 -4 -181 -12 -29 -21 -74 -21 -100 0 -50 26
-118 53 -141 22 -18 22 -24 -8 -60 l-26 -30 130 -3 c115 -3 128 -1 121 13 -5
9 -16 21 -24 29 -21 16 -20 34 1 51 51 43 67 154 33 239 -22 55 -26 123 -10
164 9 25 8 26 -30 26 l-40 0 0 70 c0 66 1 70 23 70 30 0 47 18 47 48 0 13 7
30 15 38 8 9 15 24 15 34 0 10 -7 25 -15 34 -8 8 -15 26 -15 40 0 27 -31 51
-54 43 -7 -3 -20 3 -29 14 -20 23 -50 25 -71 4z"/>
<path d="M925 1600 c-457 -33 -744 -173 -631 -307 158 -188 947 -255 1426
-122 l85 24 -278 5 -279 5 62 78 62 78 -21 49 c-15 34 -21 70 -21 118 l0 69
-82 6 c-96 8 -183 7 -323 -3z m183 -146 c113 -25 157 -62 132 -110 -29 -53
-158 -85 -350 -85 -262 0 -406 65 -329 147 61 65 358 92 547 48z"/>
<path d="M1810 1479 c0 -11 -9 -42 -21 -69 l-21 -48 53 -66 52 -65 30 17 c105
61 101 147 -10 216 -66 41 -83 44 -83 15z"/>
<path d="M236 1198 c-14 -42 -216 -967 -216 -989 0 -99 84 -189 175 -189 81 0
137 56 172 169 27 90 60 135 107 147 72 18 129 -32 157 -136 24 -88 54 -132
111 -161 117 -60 250 30 265 178 3 32 12 70 19 85 33 65 107 87 158 47 36 -29
47 -52 56 -126 5 -34 17 -80 27 -100 48 -93 153 -128 243 -81 64 33 92 79 115
191 3 15 21 45 40 65 29 32 39 37 78 37 80 0 112 -39 152 -188 9 -31 28 -72
44 -89 24 -27 36 -32 89 -36 53 -4 67 -1 106 22 49 29 96 107 96 160 0 25
-200 949 -216 994 -3 10 -12 7 -34 -11 -72 -61 -246 -121 -440 -151 -477 -76
-1087 -3 -1270 151 -22 18 -31 21 -34 11z"/>
</g>
</svg>
