<?xml version="1.0" standalone="no"?>
<!DOCTYPE svg PUBLIC "-//W3C//DTD SVG 20010904//EN"
 "http://www.w3.org/TR/2001/REC-SVG-20010904/DTD/svg10.dtd">
<svg version="1.0" xmlns="http://www.w3.org/2000/svg"
 width="512.000000pt" height="340.000000pt" viewBox="0 0 512.000000 340.000000"
 preserveAspectRatio="xMidYMid meet">

<g transform="translate(0.000000,340.000000) scale(0.100000,-0.100000)"
fill="#000000" stroke="none">
<path d="M3818 3381 c-31 -10 -72 -28 -91 -40 -54 -33 -126 -116 -154 -179
-56 -121 -37 -289 44 -397 21 -27 38 -60 38 -73 0 -15 -47 -75 -133 -172 -119
-135 -136 -150 -165 -150 -39 0 -90 -30 -114 -66 -10 -16 -18 -49 -19 -77 -2
-34 -8 -55 -23 -71 -19 -21 -20 -24 -6 -36 13 -11 19 -10 35 5 18 16 21 16 62
-16 24 -19 44 -35 46 -36 2 -1 -1 -10 -7 -21 -8 -15 -7 -23 5 -33 14 -11 18
-10 30 5 13 18 15 18 53 -7 40 -26 44 -27 203 -27 l163 0 160 201 c175 220
197 239 285 239 79 0 133 -37 165 -112 19 -46 19 -89 1 -131 -7 -18 -86 -125
-176 -236 l-162 -203 21 -127 c12 -69 21 -146 21 -170 l0 -43 -299 7 c-263 7
-304 6 -348 -9 -48 -16 -109 -67 -131 -112 -6 -11 -56 -252 -112 -534 -93
-474 -100 -518 -90 -561 14 -58 70 -125 124 -150 108 -49 243 2 290 109 8 21
50 211 92 425 l77 387 341 0 c434 0 497 12 588 107 79 82 108 192 108 411 0
242 -29 420 -107 645 -80 236 -150 335 -282 400 -58 28 -75 32 -151 32 -74 0
-91 -3 -131 -27 -56 -33 -77 -64 -179 -269 -45 -90 -84 -165 -85 -167 -5 -5
-264 172 -265 181 0 4 47 78 105 164 113 171 133 187 195 170 63 -17 198 -4
263 26 73 33 155 115 193 192 26 55 29 69 29 165 0 99 -2 110 -33 172 -42 85
-129 168 -209 198 -80 31 -191 36 -265 11z m72 -466 c89 -46 95 -168 10 -219
-43 -25 -67 -21 -73 13 -9 44 -44 71 -90 71 l-39 0 7 36 c9 49 29 79 68 98 40
20 80 20 117 1z m-289 -454 l-102 -152 -29 18 c-17 9 -30 21 -30 26 0 5 55 69
121 143 160 178 174 165 40 -35z"/>
<path d="M1201 3345 c-172 -38 -296 -183 -308 -363 -18 -271 245 -482 504
-404 175 53 284 200 284 381 0 199 -138 359 -338 391 -69 12 -62 12 -142 -5z"/>
<path d="M2381 3134 c-34 -52 -56 -132 -46 -166 4 -13 18 -51 31 -85 30 -78
30 -107 -1 -169 -24 -48 -26 -74 -6 -74 20 0 54 85 59 145 4 50 0 73 -22 126
-14 36 -26 80 -26 98 0 35 29 100 54 120 9 8 16 22 16 32 0 34 -30 20 -59 -27z"/>
<path d="M2582 3144 c-57 -69 -67 -160 -27 -250 32 -73 32 -128 -1 -189 -16
-31 -22 -51 -15 -58 14 -14 31 1 52 47 27 60 25 145 -7 233 -31 85 -28 121 16
182 50 69 35 99 -18 35z"/>
<path d="M2776 3147 c-32 -42 -56 -109 -56 -156 0 -20 12 -61 26 -91 33 -70
35 -133 6 -189 -40 -76 -17 -100 25 -25 34 60 39 128 13 199 -44 125 -43 158
9 232 29 41 33 63 11 63 -5 0 -20 -15 -34 -33z"/>
<path d="M1770 2696 c-9 -12 -5 -21 22 -45 18 -17 36 -31 40 -31 4 0 -13 -21
-39 -46 l-46 -47 -29 18 c-31 18 -58 14 -58 -8 0 -8 11 -19 25 -25 14 -6 25
-15 25 -20 0 -12 -280 -322 -291 -322 -6 0 -105 56 -222 125 -117 69 -222 128
-235 131 -68 18 -154 -39 -167 -109 -9 -47 -1 -78 30 -115 27 -32 537 -338
592 -355 23 -7 44 -7 72 2 33 10 74 50 260 255 l221 244 72 -41 73 -42 -48 -3
c-57 -4 -59 -14 -21 -91 37 -73 121 -137 236 -180 l27 -10 -34 -101 -34 -100
60 -1 c32 0 156 0 274 0 118 0 235 0 259 0 l45 1 -34 100 -34 101 27 10 c115
43 199 107 236 180 48 97 79 89 -358 89 l-384 0 -145 121 c-108 90 -147 128
-152 150 -9 38 -64 85 -111 94 -22 4 -58 23 -85 46 -53 44 -52 44 -69 25z
m389 -348 c85 -71 96 -83 76 -86 -15 -2 -63 20 -130 59 -98 57 -105 63 -90 79
8 9 15 22 15 29 0 22 25 6 129 -81z"/>
<path d="M829 2557 c-108 -31 -203 -113 -263 -226 -44 -84 -119 -302 -145
-423 -40 -186 -54 -472 -30 -618 19 -124 85 -226 173 -272 79 -41 152 -48 512
-48 l342 0 77 -392 c43 -216 85 -409 95 -428 72 -141 258 -162 362 -40 70 81
71 76 -38 628 -52 268 -102 508 -110 533 -18 56 -74 113 -134 134 -40 15 -81
16 -347 10 l-303 -7 0 45 c0 59 35 260 69 401 l28 114 -149 87 c-81 48 -159
100 -172 116 -77 92 -49 227 59 279 66 32 114 24 222 -38 49 -27 90 -48 92
-46 3 2 -11 34 -30 71 -45 89 -98 124 -196 129 -38 2 -89 -2 -114 -9z"/>
<path d="M2457 2476 c-3 -7 -9 -50 -12 -95 l-8 -81 123 0 123 0 -7 73 c-12
126 -4 117 -116 117 -74 0 -99 -3 -103 -14z"/>
<path d="M100 2380 c-100 -20 -93 8 -56 -230 62 -395 80 -681 73 -1120 -5
-320 -18 -508 -52 -755 -16 -112 -32 -212 -40 -252 -5 -23 -4 -23 94 -23 114
0 102 -12 121 125 6 44 13 90 16 103 l4 22 360 0 360 0 0 -125 0 -125 95 0 95
0 0 339 0 340 23 3 c21 3 22 7 22 98 l0 95 -450 3 -450 2 -1 293 c-1 377 -24
668 -79 1017 -31 190 -35 210 -43 209 -4 -1 -45 -9 -92 -19z m880 -1865 l0
-165 -356 0 -355 0 5 43 c8 57 26 245 26 268 0 18 13 19 340 19 l340 0 0 -165z"/>
<path d="M4912 2353 c-65 -303 -121 -968 -110 -1315 l5 -158 -451 -2 -451 -3
0 -95 c0 -90 1 -95 22 -98 l22 -3 0 -272 c0 -150 0 -302 0 -339 l1 -68 95 0
95 0 0 125 0 125 360 0 360 0 4 -22 c3 -13 10 -59 16 -103 19 -137 7 -125 122
-125 90 0 99 2 94 18 -11 36 -46 285 -67 472 -26 248 -37 805 -20 1055 15 224
45 486 76 665 13 79 21 147 17 151 -4 3 -41 12 -82 19 -41 7 -80 15 -87 17 -6
3 -15 -15 -21 -44z m-83 -1810 c7 -76 15 -150 18 -165 l6 -28 -357 0 -356 0 0
165 0 165 339 0 338 0 12 -137z"/>
<path d="M4155 2372 c-16 -11 -102 -110 -189 -220 l-159 -202 -336 0 c-315 0
-338 -1 -368 -20 -92 -56 -94 -177 -4 -237 34 -23 35 -23 416 -23 259 0 392 4
415 11 45 16 426 491 436 543 9 52 -2 85 -45 128 -34 34 -44 38 -87 38 -30 0
-61 -7 -79 -18z"/>
<path d="M1180 1610 l0 -90 620 0 620 0 2 -757 3 -758 135 0 135 0 3 758 2
757 515 0 515 0 0 55 0 55 -297 0 c-267 0 -302 2 -338 19 -22 10 -46 25 -54
34 -12 16 -89 17 -937 17 l-924 0 0 -90z"/>
</g>
</svg>
