<?xml version="1.0" standalone="no"?>
<!DOCTYPE svg PUBLIC "-//W3C//DTD SVG 20010904//EN"
 "http://www.w3.org/TR/2001/REC-SVG-20010904/DTD/svg10.dtd">
<svg version="1.0" xmlns="http://www.w3.org/2000/svg"
 width="238.000000pt" height="250.000000pt" viewBox="0 0 238.000000 250.000000"
 preserveAspectRatio="xMidYMid meet">

<g transform="translate(0.000000,250.000000) scale(0.100000,-0.100000)"
fill="#000000" stroke="none">
<path d="M1095 2189 c-227 -22 -427 -121 -592 -292 -253 -264 -326 -636 -195
-992 95 -258 313 -463 585 -553 526 -174 1085 135 1219 674 30 123 30 333 0
446 -48 178 -126 316 -247 439 -200 204 -484 306 -770 278z m143 -382 c8 -6
12 -21 9 -33 -3 -20 1 -24 37 -29 234 -36 421 -209 458 -423 10 -58 16 -72 31
-74 29 -4 45 -34 31 -55 -10 -16 -34 -18 -221 -21 l-211 -2 -13 -32 c-27 -66
-91 -147 -164 -208 -45 -38 -74 -69 -71 -77 7 -16 -3 -43 -15 -43 -5 0 -9 10
-9 23 -1 37 -36 103 -82 153 -36 39 -39 46 -20 42 19 -5 26 0 43 34 11 22 19
53 17 71 l-3 32 -231 3 c-210 2 -233 4 -248 21 -22 24 -11 51 23 57 24 5 28
12 37 73 34 211 228 391 459 427 36 5 41 9 40 32 0 45 62 62 103 29z m-316
-854 c36 -55 62 -132 93 -273 31 -141 55 -210 91 -257 13 -17 24 -34 24 -38 0
-8 -52 1 -220 40 -80 19 -165 38 -190 42 -44 8 -45 10 -57 58 -9 36 -11 79 -4
153 7 94 2 172 -14 213 -5 14 7 20 62 34 37 9 91 27 118 40 28 13 55 24 61 24
6 1 22 -16 36 -36z"/>
<path d="M1120 1151 c5 -11 10 -33 10 -50 0 -63 69 -51 105 19 24 47 20 50
-55 50 -67 0 -70 -1 -60 -19z"/>
</g>
</svg>
