<?xml version="1.0" standalone="no"?>
<!DOCTYPE svg PUBLIC "-//W3C//DTD SVG 20010904//EN"
 "http://www.w3.org/TR/2001/REC-SVG-20010904/DTD/svg10.dtd">
<svg version="1.0" xmlns="http://www.w3.org/2000/svg"
 width="512.000000pt" height="512.000000pt" viewBox="0 0 512.000000 512.000000"
 preserveAspectRatio="xMidYMid meet">

<g transform="translate(0.000000,512.000000) scale(0.100000,-0.100000)"
fill="#000000" stroke="none">
<path d="M2480 4441 l0 -199 -127 -4 c-118 -3 -133 -6 -195 -35 -92 -43 -151
-100 -194 -189 -31 -63 -37 -85 -42 -163 l-5 -91 202 0 c179 0 201 -2 201 -16
0 -108 125 -224 240 -224 115 0 240 116 240 224 0 14 22 16 201 16 l202 0 -5
91 c-5 78 -11 100 -42 163 -43 89 -102 146 -194 189 -62 29 -77 32 -194 35
l-128 4 0 199 0 199 -80 0 -80 0 0 -199z m394 -373 c45 -13 146 -105 146 -132
0 -14 -49 -16 -460 -16 -386 0 -460 2 -460 14 0 27 89 114 133 129 55 20 577
24 641 5z m-234 -323 c0 -27 -47 -65 -80 -65 -33 0 -80 38 -80 65 0 12 15 15
80 15 65 0 80 -3 80 -15z"/>
<path d="M640 3107 c-49 -16 -133 -102 -148 -153 -25 -85 -14 -204 68 -749 73
-486 80 -542 80 -682 l0 -153 -80 -360 c-66 -295 -80 -375 -80 -445 l0 -85 80
0 80 0 0 73 c-1 54 17 153 72 400 l72 327 282 0 281 0 -33 -85 c-71 -177 -114
-409 -114 -611 l0 -104 78 0 79 0 6 153 c9 219 43 373 124 565 l35 82 79 0 79
0 0 -400 0 -400 80 0 80 0 0 400 0 400 40 0 40 0 0 136 c0 170 -9 204 -75 269
-50 50 -102 75 -158 75 -26 0 -26 2 -21 48 3 26 7 62 10 80 l5 32 879 0 879 0
5 -32 c3 -18 7 -54 10 -80 5 -46 5 -48 -21 -48 -56 0 -108 -25 -158 -75 -66
-65 -75 -99 -75 -269 l0 -136 40 0 40 0 0 -400 0 -400 80 0 80 0 0 400 0 400
79 0 79 0 35 -82 c81 -192 115 -346 124 -565 l6 -153 80 0 80 0 -6 153 c-9
222 -44 400 -115 575 l-30 72 282 0 282 0 72 -327 c54 -245 73 -346 72 -400
l0 -73 80 0 80 0 0 81 c0 65 -16 155 -80 444 l-80 363 0 154 c0 141 6 196 80
683 101 668 102 732 22 825 -51 60 -104 84 -182 84 -73 0 -126 -22 -171 -71
-52 -55 -62 -89 -70 -233 -5 -107 -117 -901 -144 -1027 -5 -23 -6 -23 -199
-23 l-194 0 -6 28 c-4 15 -10 123 -13 240 l-6 212 162 0 161 0 0 80 0 80
-1360 0 -1360 0 0 -80 0 -80 161 0 162 0 -6 -212 c-3 -117 -9 -226 -13 -242
l-7 -28 -193 4 c-106 2 -195 6 -197 8 -3 3 -37 216 -76 475 -52 343 -71 497
-71 569 0 130 -13 169 -75 231 -70 71 -152 91 -245 62z m128 -167 c27 -26 30
-40 35 -170 4 -97 158 -1138 172 -1160 4 -6 103 -10 246 -10 177 0 239 -3 239
-12 0 -6 -10 -42 -22 -80 l-22 -68 -308 0 -308 0 0 121 c0 101 -13 202 -80
633 -92 589 -100 697 -55 741 30 31 73 32 103 5z m3687 -5 c44 -43 36 -143
-55 -729 -69 -441 -80 -532 -80 -640 l0 -126 -309 0 -308 0 -22 68 c-11 37
-21 73 -21 79 0 8 72 12 239 14 132 2 243 7 247 11 14 14 165 1051 172 1181 6
119 9 130 31 148 32 26 77 24 106 -6z m-1015 -775 l0 -80 -880 0 -880 0 0 80
0 80 880 0 880 0 0 -80z m-1705 -585 c21 -20 25 -34 25 -80 l0 -55 -86 0 -86
0 7 28 c3 15 13 51 21 80 15 51 16 52 55 52 29 0 47 -7 64 -25z m1769 -27 c8
-29 18 -65 21 -80 l7 -28 -86 0 -86 0 0 55 c0 72 28 105 89 105 39 0 40 -1 55
-52z"/>
</g>
</svg>
