<?xml version="1.0" standalone="no"?>
<!DOCTYPE svg PUBLIC "-//W3C//DTD SVG 20010904//EN"
 "http://www.w3.org/TR/2001/REC-SVG-20010904/DTD/svg10.dtd">
<svg version="1.0" xmlns="http://www.w3.org/2000/svg"
 width="396.000000pt" height="55.000000pt" viewBox="0 0 396.000000 55.000000"
 preserveAspectRatio="xMidYMid meet">

<g transform="translate(0.000000,55.000000) scale(0.100000,-0.100000)"
fill="#000000" stroke="none">
<path d="M3565 534 c-56 -57 -64 -139 -19 -193 38 -46 61 -41 29 6 -33 50 -34
108 0 156 25 38 19 59 -10 31z"/>
<path d="M3875 540 c-4 -6 3 -22 15 -35 35 -37 38 -101 6 -148 -30 -44 -31
-47 -12 -47 21 0 55 47 62 87 4 19 2 52 -5 72 -13 43 -55 89 -66 71z"/>
<path d="M3622 493 c-21 -20 -32 -41 -32 -60 0 -35 34 -93 55 -93 20 0 19 7
-5 37 -26 33 -25 63 1 97 32 41 17 56 -19 19z"/>
<path d="M3807 513 c-4 -3 3 -17 13 -31 26 -32 25 -82 -1 -116 -27 -34 -2 -36
30 -2 38 40 27 121 -18 145 -10 6 -21 8 -24 4z"/>
<path d="M574 497 c-2 -7 -3 -76 -2 -152 l3 -140 253 -3 253 -2 -3 152 -3 153
-248 3 c-197 2 -249 0 -253 -11z m196 -132 c-23 -24 -23 -25 -5 -45 18 -20 19
-20 48 34 16 30 38 56 49 59 20 6 88 -45 88 -66 0 -16 -61 -77 -77 -77 -20 0
-15 27 9 49 21 20 21 21 3 41 -19 21 -19 21 -47 -34 -24 -47 -33 -56 -55 -56
-30 0 -83 44 -83 69 0 8 14 30 32 48 28 29 34 31 47 18 13 -13 12 -17 -9 -40z"/>
<path d="M81 472 c-53 -26 -76 -65 -75 -123 0 -44 5 -55 37 -87 l37 -37 146
-5 c131 -4 147 -7 160 -25 16 -21 12 -71 -7 -90 -6 -6 -84 -11 -189 -13 l-180
-3 0 -35 0 -34 175 0 c192 0 225 7 263 55 31 39 36 83 16 133 -26 67 -65 82
-217 82 -143 0 -161 7 -161 64 0 20 6 42 12 49 9 8 62 13 172 15 l160 3 0 35
0 34 -157 0 c-131 0 -164 -3 -192 -18z"/>
<path d="M1242 478 c-9 -9 -12 -75 -12 -235 l0 -223 40 0 40 0 0 200 0 200
175 0 175 0 0 35 0 35 -203 0 c-145 0 -206 -3 -215 -12z"/>
<path d="M1720 478 c0 -27 72 -414 81 -436 7 -18 16 -23 36 -20 22 2 40 25
111 141 l84 138 27 -43 c15 -24 53 -87 86 -140 51 -85 63 -98 86 -98 15 0 29
7 33 16 3 8 22 104 41 212 19 108 37 207 40 220 5 20 2 22 -34 22 -47 0 -42 9
-72 -160 -12 -69 -25 -131 -29 -139 -8 -14 -29 15 -111 152 -32 54 -64 77 -88
63 -5 -3 -38 -52 -73 -108 -80 -129 -76 -123 -82 -118 -2 3 -17 74 -32 158
l-27 152 -39 0 c-24 0 -38 -5 -38 -12z"/>
<path d="M2442 478 c-8 -8 -12 -66 -12 -195 l0 -183 34 -38 34 -37 181 -3 181
-3 0 35 0 36 -159 0 c-132 0 -162 3 -175 16 -13 13 -16 42 -16 165 l0 149 175
0 175 0 0 35 0 35 -203 0 c-145 0 -206 -3 -215 -12z"/>
<path d="M2960 471 c-6 -12 -10 -106 -10 -235 l0 -216 40 0 40 0 0 171 c0 94
4 169 8 167 4 -1 79 -77 166 -168 157 -164 196 -192 217 -158 5 7 9 113 9 236
l0 222 -40 0 -40 0 0 -172 0 -173 -166 173 c-172 178 -200 197 -224 153z"/>
<path d="M3684 455 c-23 -24 -25 -28 -12 -47 21 -31 61 -42 95 -26 37 18 43
60 11 82 -32 23 -65 20 -94 -9z m80 -17 c15 -25 -17 -57 -42 -42 -22 14 -28
44 -10 55 18 12 39 7 52 -13z"/>
<path d="M3637 183 c-47 -87 -82 -162 -77 -166 4 -5 44 12 87 37 44 25 83 46
87 46 4 0 43 -21 87 -46 44 -26 83 -43 87 -40 10 11 -155 317 -174 323 -6 2
-50 -67 -97 -154z m128 57 c32 -63 31 -76 -2 -94 -24 -12 -31 -12 -60 2 -18 9
-33 20 -33 25 0 11 59 117 66 117 2 0 15 -22 29 -50z m-65 -121 c0 -10 -71
-51 -78 -44 -4 3 2 21 12 40 17 30 21 32 42 23 13 -6 24 -15 24 -19z m135 -10
c22 -41 14 -46 -29 -19 -38 23 -44 35 -23 43 26 11 37 6 52 -24z"/>
<path d="M1350 255 l0 -35 135 0 135 0 0 35 0 35 -135 0 -135 0 0 -35z"/>
<path d="M2550 255 l0 -35 135 0 135 0 0 35 0 35 -135 0 -135 0 0 -35z"/>
<path d="M528 98 c-18 -35 -34 -66 -36 -70 -2 -5 148 -8 332 -8 l336 0 -35 70
-35 70 -265 0 -265 0 -32 -62z"/>
</g>
</svg>
