<?xml version="1.0" standalone="no"?>
<!DOCTYPE svg PUBLIC "-//W3C//DTD SVG 20010904//EN"
 "http://www.w3.org/TR/2001/REC-SVG-20010904/DTD/svg10.dtd">
<svg version="1.0" xmlns="http://www.w3.org/2000/svg"
 width="225.000000pt" height="225.000000pt" viewBox="0 0 225.000000 225.000000"
 preserveAspectRatio="xMidYMid meet">

<g transform="translate(0.000000,225.000000) scale(0.100000,-0.100000)"
fill="#000000" stroke="none">
<path d="M340 2218 c-52 -15 -86 -43 -109 -92 -21 -43 -21 -45 -19 -1013 l3
-969 27 -41 c50 -76 60 -78 426 -78 l324 0 24 28 c32 37 32 87 0 124 l-24 28
-282 5 c-281 5 -282 5 -301 29 -18 22 -19 52 -19 887 l0 863 24 28 24 28 687
0 687 0 24 -28 24 -28 0 -454 0 -454 24 -28 c34 -40 98 -39 132 1 l25 28 -3
512 -3 512 -27 41 c-14 22 -43 48 -65 59 -36 18 -73 19 -803 21 -489 1 -778
-2 -800 -9z"/>
<path d="M619 1755 c-52 -28 -58 -109 -11 -145 24 -19 42 -20 519 -20 l494 0
24 25 c38 37 35 95 -6 129 l-31 26 -481 0 c-399 -1 -487 -3 -508 -15z"/>
<path d="M619 1385 c-52 -28 -58 -109 -11 -145 24 -19 42 -20 519 -20 l494 0
24 25 c28 27 34 88 12 116 -29 38 -44 39 -534 39 -396 -1 -483 -3 -504 -15z"/>
<path d="M1430 986 c-240 -67 -387 -286 -359 -534 31 -275 301 -473 570 -418
155 33 282 127 347 257 38 79 51 135 52 219 1 224 -149 418 -365 475 -70 18
-182 18 -245 1z m169 -192 c18 -23 21 -41 21 -120 l0 -94 94 0 c79 0 97 -3
120 -21 31 -25 34 -61 6 -89 -17 -17 -33 -20 -120 -20 l-100 0 0 -98 c0 -116
-12 -142 -65 -142 -53 0 -65 26 -65 142 l0 98 -102 0 c-112 0 -138 11 -138 59
0 56 33 71 149 71 l91 0 0 100 c0 87 3 103 20 120 28 28 64 25 89 -6z"/>
</g>
</svg>
