<?xml version="1.0" standalone="no"?>
<!DOCTYPE svg PUBLIC "-//W3C//DTD SVG 20010904//EN"
 "http://www.w3.org/TR/2001/REC-SVG-20010904/DTD/svg10.dtd">
<svg version="1.0" xmlns="http://www.w3.org/2000/svg"
 width="200.000000pt" height="200.000000pt" viewBox="0 0 200.000000 200.000000"
 preserveAspectRatio="xMidYMid meet">

<g transform="translate(0.000000,200.000000) scale(0.100000,-0.100000)"
fill="#000000" stroke="none">
<path d="M303 1525 c-17 -12 -28 -13 -50 -4 -44 16 -112 2 -145 -31 -22 -23
-28 -37 -28 -73 0 -38 8 -55 65 -134 97 -135 105 -174 112 -533 3 -157 7 -287
8 -289 2 -1 8 0 14 4 7 4 11 69 11 183 l0 177 83 -7 c45 -3 85 -7 90 -7 4 -1
7 -80 7 -176 0 -149 2 -175 15 -175 13 0 15 26 15 174 l0 175 43 5 c23 3 63 7
90 9 l47 5 0 -184 c0 -116 4 -184 10 -184 6 0 10 68 10 183 0 116 4 187 11
194 6 6 9 28 7 49 -4 46 -17 51 -170 60 l-108 7 0 41 c0 23 7 97 15 166 26
220 17 310 -37 355 -34 29 -82 33 -115 10z m106 -24 c32 -32 44 -96 37 -196
-3 -49 -9 -149 -12 -222 l-7 -132 -46 -6 c-25 -3 -60 -8 -77 -11 l-32 -4 -7
67 c-14 140 -33 198 -91 279 -69 97 -74 106 -74 148 0 65 85 104 154 71 62
-29 86 -108 48 -155 -22 -28 -70 -30 -89 -4 -17 23 -13 36 18 51 17 9 19 13 7
13 -20 0 -48 -26 -48 -46 0 -24 38 -54 69 -54 41 0 81 49 81 99 0 33 -20 77
-43 92 -20 14 6 29 49 29 30 0 50 -6 63 -19z m246 -590 c32 -13 -160 -24 -265
-15 -56 4 -87 10 -78 15 16 11 316 10 343 0z m35 -47 c0 -16 -74 -24 -214 -23
-131 0 -197 8 -203 24 -2 6 72 10 207 10 148 0 210 -3 210 -11z"/>
<path d="M1580 1513 c-47 -43 -57 -111 -41 -275 7 -73 15 -167 18 -209 l5 -76
-108 -7 c-60 -3 -122 -10 -139 -14 -28 -8 -30 -11 -27 -53 2 -24 6 -128 8
-231 6 -247 24 -250 24 -4 l0 184 48 -5 c26 -2 66 -6 89 -9 l43 -5 2 -171 c2
-126 6 -172 16 -176 9 -3 12 36 12 172 0 97 3 176 8 177 4 0 44 4 90 7 l82 7
0 -177 c0 -114 4 -179 11 -183 6 -4 12 -5 14 -4 2 2 5 130 8 284 6 371 15 406
137 574 52 70 55 127 12 171 -33 33 -101 47 -145 31 -22 -9 -33 -8 -50 4 -34
24 -83 19 -117 -12z m126 -4 c3 -5 -2 -17 -11 -26 -22 -21 -35 -57 -35 -93 0
-41 44 -90 81 -90 31 0 69 30 69 54 0 20 -28 46 -48 46 -12 0 -10 -4 7 -13 31
-15 35 -28 18 -51 -19 -26 -67 -24 -89 4 -38 47 -14 126 48 155 71 33 154 -6
154 -74 0 -38 -7 -51 -82 -156 -46 -64 -65 -122 -80 -240 l-11 -95 -31 4 c-17
3 -52 8 -77 11 l-46 6 -9 152 c-19 336 -10 397 59 415 35 9 74 5 83 -9z m-17
-598 c20 -13 -163 -24 -269 -15 -56 4 -87 10 -78 15 17 11 329 11 347 0z m38
-46 c-6 -16 -72 -24 -203 -24 -140 -1 -214 7 -214 23 0 8 62 11 210 11 135 0
209 -4 207 -10z"/>
<path d="M775 1316 c-94 -15 -150 -37 -163 -63 -12 -22 -5 -198 10 -236 20
-51 100 -74 146 -42 20 15 23 14 50 -16 30 -34 72 -43 120 -26 22 8 22 7 22
-75 0 -75 -3 -89 -29 -129 -31 -50 -80 -85 -130 -95 -37 -8 -41 -24 -6 -24 42
0 88 25 128 69 l37 41 0 -50 c0 -27 5 -50 10 -50 6 0 10 -16 10 -35 0 -19 5
-35 10 -35 6 0 10 16 10 35 0 19 5 35 10 35 6 0 10 23 10 52 l0 52 35 -41 c38
-44 89 -73 129 -73 40 0 31 15 -16 27 -45 12 -98 57 -130 108 -13 23 -18 50
-18 111 l0 81 50 -5 c45 -4 52 -2 80 27 l32 31 25 -20 c48 -37 130 -17 151 37
6 15 12 77 14 137 3 106 2 109 -22 127 -14 10 -52 26 -85 34 -83 23 -382 29
-490 11z m457 -30 c118 -23 144 -42 91 -70 -59 -30 -147 -41 -333 -41 -118 0
-207 5 -245 14 -63 14 -115 36 -115 49 0 23 97 49 250 66 65 8 274 -3 352 -18z
m-242 -130 c213 0 241 2 298 21 l62 21 0 -83 c0 -91 -17 -127 -65 -139 -26 -7
-85 17 -85 34 0 19 -39 10 -45 -10 -7 -21 -53 -50 -79 -50 -8 0 -31 14 -49 30
-19 17 -38 30 -41 30 -4 0 -19 -13 -33 -30 -39 -46 -102 -41 -129 11 -17 33
-30 36 -56 12 -27 -25 -84 -22 -111 5 -18 19 -23 36 -25 107 l-4 84 64 -22
c57 -19 84 -21 298 -21z"/>
</g>
</svg>
