<?xml version="1.0" standalone="no"?>
<!DOCTYPE svg PUBLIC "-//W3C//DTD SVG 20010904//EN"
 "http://www.w3.org/TR/2001/REC-SVG-20010904/DTD/svg10.dtd">
<svg version="1.0" xmlns="http://www.w3.org/2000/svg"
 width="512.000000pt" height="512.000000pt" viewBox="0 0 512.000000 512.000000"
 preserveAspectRatio="xMidYMid meet">

<g transform="translate(0.000000,512.000000) scale(0.100000,-0.100000)"
fill="#000000" stroke="none">
<path d="M3596 4632 c-26 -42 -929 -2234 -929 -2256 0 -35 42 -76 78 -76 13 0
35 10 48 23 18 15 160 348 468 1090 l443 1067 247 0 c234 0 248 1 273 21 20
16 26 29 26 59 0 30 -6 43 -26 59 -26 20 -38 21 -325 21 -164 0 -300 -3 -303
-8z"/>
<path d="M1330 4256 c-64 -19 -118 -42 -173 -78 l-48 -31 95 -97 c109 -110
116 -131 67 -181 -50 -49 -72 -41 -192 78 l-86 85 -37 -59 c-35 -56 -86 -194
-86 -234 0 -18 8 -19 130 -19 126 0 132 -1 155 -25 33 -32 33 -78 0 -110 -23
-24 -29 -25 -155 -25 -122 0 -130 -1 -130 -19 0 -40 51 -178 86 -234 l37 -59
86 85 c120 119 142 127 192 78 49 -50 42 -71 -67 -181 l-95 -97 49 -32 c61
-39 157 -78 213 -87 41 -7 42 -7 35 19 -49 196 -84 664 -54 720 24 46 24 46
406 47 l363 0 -6 23 c-12 38 -64 147 -86 179 l-22 30 -91 -90 c-52 -52 -103
-94 -119 -98 -55 -13 -107 48 -86 104 5 15 48 66 95 113 l86 86 -29 20 c-69
49 -205 103 -260 103 -23 0 -23 -1 -23 -130 0 -126 -1 -132 -25 -155 -26 -27
-70 -32 -96 -12 -32 25 -39 56 -39 176 0 137 4 133 -90 107z"/>
<path d="M1504 3518 c31 -557 198 -1003 489 -1305 244 -254 543 -390 811 -369
226 17 469 140 666 335 114 113 178 198 259 341 152 270 243 613 258 968 l6
152 -233 -2 -233 -3 -33 -77 -33 -78 185 0 185 0 -7 -67 c-9 -102 -32 -248
-55 -344 l-20 -87 -52 -5 c-29 -3 -143 -11 -254 -18 l-202 -13 -20 -45 c-10
-25 -70 -167 -131 -316 -62 -148 -123 -291 -136 -317 -56 -111 -194 -158 -309
-104 -88 40 -137 118 -138 216 0 48 14 89 112 324 62 147 110 270 108 273 -3
2 -78 15 -167 29 -289 43 -497 51 -761 28 l-66 -6 -21 108 c-25 131 -42 251
-42 305 l0 39 637 2 636 3 33 78 33 77 -756 0 -756 0 7 -122z"/>
<path d="M2670 1240 l0 -440 80 0 80 0 0 440 0 440 -80 0 -80 0 0 -440z"/>
<path d="M2129 627 c-44 -34 -47 -89 -7 -127 21 -20 33 -20 625 -20 l604 0 24
25 c33 32 33 78 0 110 l-24 25 -603 0 c-458 -1 -607 -4 -619 -13z"/>
</g>
</svg>
