<?xml version="1.0" standalone="no"?>
<!DOCTYPE svg PUBLIC "-//W3C//DTD SVG 20010904//EN"
 "http://www.w3.org/TR/2001/REC-SVG-20010904/DTD/svg10.dtd">
<svg version="1.0" xmlns="http://www.w3.org/2000/svg"
 width="626.000000pt" height="626.000000pt" viewBox="0 0 626.000000 626.000000"
 preserveAspectRatio="xMidYMid meet">

<g transform="translate(0.000000,626.000000) scale(0.100000,-0.100000)"
fill="#000000" stroke="none">
<path d="M4228 5051 c-204 -65 -338 -247 -338 -455 1 -136 39 -232 132 -332
144 -153 364 -194 554 -103 202 96 314 332 259 544 -44 166 -165 296 -324 345
-81 26 -205 26 -283 1z m318 -91 c91 -44 174 -128 205 -207 19 -47 23 -77 24
-163 0 -100 -2 -109 -34 -175 -43 -88 -108 -152 -195 -195 -125 -62 -281 -52
-401 24 -61 40 -106 91 -98 112 3 9 1 14 -7 12 -6 -2 -19 8 -28 22 -14 19 -14
22 -2 15 12 -7 13 -6 3 7 -7 8 -9 18 -5 22 4 4 0 6 -8 4 -10 -2 -18 11 -27 42
-13 49 -15 188 -2 195 4 3 5 15 1 27 -3 14 -1 19 6 14 7 -4 10 -2 7 6 -6 18
58 134 73 131 7 -2 11 0 10 5 -4 12 50 64 60 58 5 -3 18 1 28 10 18 14 18 15
-3 4 -41 -20 -24 -1 19 21 81 41 111 48 209 45 87 -2 104 -6 165 -36z"/>
<path d="M4256 4911 c-27 -11 -54 -17 -60 -14 -6 3 -8 3 -4 -2 4 -4 -7 -17
-24 -29 -18 -12 -46 -40 -64 -63 -18 -23 -35 -39 -39 -35 -4 4 -6 0 -4 -8 1
-8 -4 -28 -11 -45 -7 -17 -14 -68 -14 -115 -1 -72 3 -94 26 -142 32 -69 96
-135 163 -168 42 -21 64 -25 145 -25 84 0 101 3 145 27 106 55 175 160 183
274 6 95 -16 169 -71 236 -88 108 -253 156 -371 109z"/>
<path d="M4041 4777 c-13 -21 -12 -21 5 -5 10 10 16 20 13 22 -3 3 -11 -5 -18
-17z"/>
<path d="M1052 4838 c-23 -28 -18 -74 9 -88 52 -29 107 26 75 75 -18 27 -66
35 -84 13z"/>
<path d="M1507 4784 c-14 -14 -7 -54 12 -64 28 -15 71 21 55 47 -11 19 -54 29
-67 17z"/>
<path d="M1005 4363 c-9 -41 -20 -58 -41 -62 -10 -2 -30 -8 -43 -13 -30 -11
-17 -27 30 -37 28 -6 36 -14 49 -50 8 -24 20 -44 25 -44 6 -1 14 16 20 38 10
44 20 55 50 55 59 1 55 36 -6 49 -27 5 -34 13 -43 45 -14 48 -33 57 -41 19z"/>
<path d="M2738 4335 c-407 -58 -785 -274 -1039 -593 -32 -40 -61 -73 -64 -73
-3 0 -44 47 -90 105 -70 86 -92 107 -124 117 -116 35 -223 -76 -177 -185 8
-19 67 -96 130 -170 l116 -134 -26 -68 c-40 -106 -53 -150 -77 -266 l-23 -107
-238 227 c-131 125 -252 235 -269 245 -69 40 -175 -4 -198 -82 -17 -57 -4
-106 39 -149 21 -20 178 -162 348 -315 l311 -278 12 -82 c63 -452 319 -860
696 -1109 250 -166 566 -268 831 -268 l93 0 96 -85 c75 -67 102 -85 126 -85
41 0 66 15 85 51 18 36 8 78 -28 116 -24 25 -23 26 55 43 48 10 50 10 88 -25
50 -45 89 -47 131 -5 26 26 30 37 26 68 l-6 38 86 39 c180 83 388 242 518 396
337 398 462 901 350 1399 -140 618 -623 1089 -1251 1220 -132 27 -391 35 -527
15z m482 -71 c264 -44 559 -187 755 -365 253 -229 403 -484 481 -819 31 -131
43 -387 25 -525 -67 -510 -381 -952 -839 -1181 -101 -50 -115 -55 -128 -42
-25 25 -372 453 -369 456 1 1 28 9 60 17 304 80 562 318 666 616 26 78 29 81
86 115 72 44 114 84 160 153 113 170 115 397 5 567 -136 210 -397 297 -626
210 l-68 -26 6 28 c31 135 27 239 -14 342 -79 201 -271 330 -490 330 -143 0
-258 -48 -361 -150 -103 -102 -159 -232 -159 -370 0 -61 -2 -67 -27 -82 -46
-27 -151 -127 -198 -188 -25 -32 -63 -92 -86 -134 l-40 -76 -93 113 c-50 61
-136 167 -190 234 l-98 123 39 52 c249 340 650 570 1078 618 106 12 307 4 425
-16z m-175 -199 c226 -59 372 -277 339 -507 -45 -307 -355 -439 -665 -282 -95
47 -161 111 -202 193 -30 61 -32 72 -32 171 0 102 1 109 38 182 96 195 315
297 522 243z m-1683 -288 c15 -23 49 -67 75 -98 225 -263 232 -273 216 -291
-14 -16 -14 -20 9 -50 14 -18 46 -55 70 -83 39 -43 48 -48 61 -37 14 12 20 9
46 -20 33 -36 36 -44 21 -53 -16 -10 -11 -28 19 -63 25 -29 32 -32 49 -23 18
10 28 2 86 -68 37 -44 77 -92 90 -108 14 -15 48 -58 78 -94 29 -37 143 -173
253 -304 110 -131 213 -254 230 -274 16 -20 72 -87 125 -150 52 -63 180 -216
283 -340 279 -336 369 -442 403 -478 31 -32 31 -58 2 -51 -9 1 -372 419 -808
928 -436 509 -827 966 -870 1015 -42 50 -120 139 -171 199 -52 60 -147 170
-211 245 -64 75 -120 149 -123 164 -7 27 15 77 33 77 4 0 19 -20 34 -43z
m1097 -340 c37 -78 142 -177 238 -224 l80 -39 -129 -114 c-159 -141 -168 -152
-168 -203 0 -36 5 -45 47 -81 193 -167 341 -331 488 -545 85 -123 115 -147
165 -136 31 7 320 258 340 295 18 33 11 81 -15 116 -14 18 -25 35 -25 38 0 2
30 -9 68 -26 58 -27 81 -32 175 -36 59 -2 107 -8 107 -13 0 -14 -54 -133 -83
-184 -120 -207 -348 -373 -586 -429 l-62 -14 -447 556 c-531 660 -542 675
-542 690 0 23 62 137 112 204 52 71 182 198 202 198 6 -1 22 -24 35 -53z
m1314 -12 c95 -20 177 -66 234 -133 60 -69 74 -92 101 -165 l22 -58 -19 -72
c-11 -40 -23 -80 -27 -90 -5 -13 -1 -17 20 -17 14 0 26 -4 26 -10 0 -5 -13
-10 -28 -10 -27 0 -48 -15 -66 -48 -5 -8 3 -16 23 -23 17 -6 31 -15 31 -21 0
-6 -7 -7 -16 -4 -51 20 -59 17 -113 -39 l-54 -55 12 -41 c16 -54 6 -63 -15
-13 -20 49 -18 48 -46 33 -12 -7 -45 -18 -72 -24 l-49 -11 33 -37 c17 -20 26
-37 19 -37 -6 0 -27 18 -46 40 -27 31 -42 40 -66 40 -18 0 -49 5 -71 9 l-38 9
5 -34 c8 -46 -10 -43 -22 4 -9 31 -19 41 -66 64 -53 26 -55 27 -55 7 0 -27
-20 -14 -21 14 0 13 -19 38 -48 62 -54 45 -98 115 -105 166 -3 19 -8 50 -12
70 -8 44 11 140 38 194 63 124 189 213 333 235 74 11 84 11 158 -5z m-3023
-73 c0 -7 148 -145 337 -316 31 -27 41 -42 33 -50 -21 -21 -7 -42 68 -109 65
-57 79 -65 88 -52 16 21 25 19 58 -16 24 -25 28 -34 19 -49 -10 -14 -5 -24 26
-54 35 -34 38 -35 54 -19 16 16 18 15 47 -12 16 -15 27 -33 23 -38 -3 -6 -2
-7 4 -4 6 4 77 -55 159 -130 82 -75 196 -179 254 -232 57 -53 136 -125 175
-160 38 -36 102 -94 140 -130 101 -94 302 -279 355 -326 43 -39 183 -168 430
-396 63 -58 138 -126 167 -150 51 -44 60 -61 31 -67 -11 -2 -1499 1317 -1818
1612 -31 28 -110 99 -175 157 -542 481 -531 470 -506 525 10 23 31 33 31 16z
m1010 -266 l215 -252 6 -120 c8 -142 36 -257 90 -373 25 -54 33 -79 22 -70
-10 8 -157 146 -328 308 -170 162 -318 301 -328 310 -16 16 -16 22 -2 106 23
134 87 346 104 344 3 0 103 -114 221 -253z m1428 58 c-13 -47 -15 -154 -4
-208 7 -37 5 -36 -107 80 l-115 119 77 12 c42 6 94 18 116 26 22 8 41 14 42
13 1 -1 -2 -20 -9 -42z m-183 -148 c66 -66 154 -161 196 -211 103 -123 269
-336 269 -346 0 -5 -14 0 -31 10 -24 15 -47 18 -107 16 -53 -2 -66 0 -42 5
l35 7 -36 2 c-22 0 -43 9 -54 21 -10 11 -22 17 -28 13 -6 -4 -8 0 -4 11 4 10
3 15 -3 11 -6 -4 -9 3 -7 16 1 12 -4 24 -13 26 -13 4 -13 3 0 -6 8 -5 11 -13
7 -17 -4 -4 -16 1 -27 11 -11 10 -23 15 -27 11 -5 -4 -1 -11 7 -16 45 -26 55
-40 59 -84 1 -4 8 -6 16 -2 9 3 15 0 15 -9 0 -8 8 -15 18 -16 9 0 12 -3 5 -5
-7 -3 -21 -1 -31 5 -16 8 -21 7 -26 -5 -4 -10 3 -18 20 -24 33 -13 54 -13 34
0 -13 8 -13 10 2 10 9 0 24 -3 34 -7 16 -6 16 -7 -2 -14 -14 -6 -9 -8 18 -8
20 -1 40 -6 44 -12 3 -6 18 -8 33 -5 19 5 22 4 11 -4 -11 -7 -11 -10 -2 -10 7
0 10 -4 7 -10 -7 -11 -54 -10 -70 0 -5 4 -20 6 -32 5 -12 -1 -20 2 -17 7 8 12
-10 10 -47 -7 -34 -14 -34 -14 -6 -15 15 0 27 -4 27 -9 0 -6 -12 -6 -30 -1
-19 5 -30 5 -30 -1 0 -6 -5 -7 -11 -4 -6 5 -4 12 8 21 17 14 16 15 -7 9 -19
-5 -22 -4 -10 4 8 6 22 8 30 6 8 -2 21 -1 29 4 8 6 -7 11 -44 16 -31 3 -54 9
-51 12 10 10 -55 45 -71 39 -11 -5 -13 0 -8 17 5 19 4 20 -5 4 -6 -9 -8 -22
-5 -27 3 -6 -1 -13 -10 -16 -8 -4 -14 -14 -13 -23 2 -10 -3 -15 -12 -13 -12 2
-11 -1 2 -11 10 -8 15 -16 12 -19 -3 -4 0 -9 6 -13 7 -4 9 5 7 29 -4 38 3 48
38 52 48 5 50 -13 6 -55 -23 -23 -44 -41 -47 -41 -2 0 -16 19 -31 43 -16 23
-38 53 -50 66 -19 21 -22 58 -4 46 4 -2 8 2 8 10 0 11 -4 12 -13 4 -16 -13
-34 -4 -35 19 0 14 -2 13 -8 -3 -8 -19 -8 -19 -20 4 -7 13 -10 32 -8 43 5 16
3 17 -11 6 -13 -11 -15 -11 -10 3 4 11 1 16 -9 15 -9 0 -18 5 -21 13 -2 8 0
11 6 7 5 -3 13 1 16 9 5 13 2 14 -16 4 -19 -10 -26 -7 -59 32 -20 24 -35 47
-33 51 2 4 -1 10 -7 14 -8 4 -9 3 -5 -4 13 -22 -12 -12 -31 11 -10 13 -30 31
-45 41 -15 10 -25 23 -21 29 3 6 1 7 -5 3 -7 -4 -23 4 -37 18 -14 15 -30 26
-35 26 -6 0 -10 8 -10 19 0 17 215 220 279 263 35 24 46 16 186 -126z m-559
-711 c198 -231 363 -425 367 -431 15 -26 -175 27 -267 73 -205 103 -362 278
-446 495 -31 80 -60 221 -60 292 l0 41 24 -25 c13 -14 185 -214 382 -445z
m-276 -406 c366 -326 683 -611 705 -632 l40 -38 -80 6 c-608 49 -1132 454
-1334 1028 -24 69 -71 264 -71 295 0 3 17 -10 38 -30 20 -19 336 -302 702
-629z m1211 564 c12 -16 12 -17 -1 -7 -8 6 -22 14 -30 17 -13 5 -12 6 1 6 9 1
23 -7 30 -16z m59 -7 c0 -2 -7 -7 -16 -10 -8 -3 -12 -2 -9 4 6 10 25 14 25 6z
m-279 -57 c-14 -6 -28 -6 -33 -1 -5 5 5 9 24 10 31 0 31 -1 9 -9z m-31 -31 c0
6 4 12 10 12 5 0 7 -7 4 -15 -6 -16 -44 -21 -44 -7 0 16 14 22 22 10 6 -10 8
-10 8 0z m-40 -23 c9 -10 9 -15 1 -15 -6 0 -11 4 -11 10 0 5 -7 6 -17 3 -11
-4 -14 -3 -9 5 10 16 21 15 36 -3z m145 -5 c15 -6 11 -7 -17 -7 -23 1 -33 4
-25 9 14 9 16 9 42 -2z m56 -7 c13 -16 12 -17 -3 -4 -17 13 -22 21 -14 21 2 0
10 -8 17 -17z m-147 -2 c4 -5 -3 -7 -14 -4 -23 6 -26 13 -6 13 8 0 17 -4 20
-9z m-44 -19 c76 -4 166 -17 172 -26 11 -17 -2 -26 -29 -20 -17 5 -24 3 -19
-4 3 -6 1 -14 -5 -18 -8 -4 -9 -3 -5 4 11 18 -29 32 -76 28 -34 -4 -48 0 -65
16 -22 21 -22 47 0 30 7 -5 19 -10 27 -10z m137 2 c-3 -3 -12 -4 -19 -1 -8 3
-5 6 6 6 11 1 17 -2 13 -5z m-107 -60 c0 -8 -19 -13 -24 -6 -3 5 1 9 9 9 8 0
15 -2 15 -3z m36 -19 c10 -26 -1 -35 -13 -10 -6 14 -7 25 -2 25 5 0 12 -7 15
-15z m-22 -21 c5 -14 4 -15 -9 -4 -17 14 -19 20 -6 20 5 0 12 -7 15 -16z
m-384 -399 c47 -9 94 -19 106 -21 13 -2 107 -104 235 -254 118 -137 215 -254
217 -258 1 -5 -26 -15 -62 -22 -62 -11 -67 -11 -93 10 -15 11 -157 146 -317
298 -159 152 -305 291 -325 309 l-36 32 95 -39 c52 -21 133 -46 180 -55z"/>
<path d="M2863 3873 c0 -15 2 -22 4 -15 3 6 10 9 16 5 7 -4 5 2 -3 13 -8 10
-15 20 -16 22 -1 2 -1 -10 -1 -25z"/>
<path d="M2842 3860 c0 -14 2 -19 5 -12 2 6 2 18 0 25 -3 6 -5 1 -5 -13z"/>
<path d="M2778 3848 c-10 -10 -18 -22 -18 -27 0 -5 -5 -11 -10 -13 -6 -2 -1
-9 10 -16 11 -7 19 -8 18 -3 -2 5 6 16 17 25 20 15 20 15 -4 11 -23 -4 -23 -4
-6 15 23 26 16 33 -7 8z"/>
<path d="M2724 3778 c-5 -8 -2 -9 10 -5 14 6 16 3 11 -16 -5 -19 -4 -20 5 -4
11 17 6 37 -10 37 -5 0 -12 -5 -16 -12z"/>
<path d="M2713 3740 c-1 -11 4 -20 12 -20 7 0 16 -6 18 -12 3 -8 6 -6 6 5 1 9
-6 17 -14 17 -9 0 -12 6 -9 15 4 8 2 15 -3 15 -5 0 -9 -9 -10 -20z"/>
<path d="M2864 3744 c-7 -3 -10 -13 -7 -23 3 -12 -4 -24 -17 -34 l-22 -15 21
-7 c13 -4 18 -11 14 -18 -4 -7 4 -5 17 4 13 9 26 22 28 30 2 9 -1 8 -7 -3 -7
-10 -19 -14 -31 -11 -16 4 -18 8 -9 20 8 9 14 10 19 3 4 -6 6 5 6 25 -1 19 -1
35 -1 34 0 0 -5 -3 -11 -5z"/>
<path d="M2996 3713 c-6 -14 -5 -15 5 -6 7 7 10 15 7 18 -3 3 -9 -2 -12 -12z"/>
<path d="M2925 3690 c-7 -11 22 -26 32 -16 4 3 -1 6 -11 6 -9 0 -14 5 -11 10
3 6 4 10 1 10 -3 0 -8 -5 -11 -10z"/>
<path d="M2725 3682 c-11 -7 -14 -27 -5 -35 3 -2 23 -7 44 -10 37 -6 38 -5 19
8 -12 8 -30 12 -40 9 -16 -6 -16 -5 2 10 19 15 19 16 1 9 -13 -4 -17 -3 -12 5
8 14 5 15 -9 4z"/>
<path d="M2880 3628 c-12 -10 -17 -18 -11 -18 7 0 9 -4 6 -10 -3 -5 -2 -18 4
-27 7 -14 3 -22 -22 -40 -17 -13 -33 -20 -36 -17 -3 3 1 9 9 14 11 7 9 9 -8 7
-16 -1 -21 -6 -16 -19 3 -9 -2 -31 -11 -48 -9 -18 -15 -33 -13 -35 2 -1 13 -8
26 -14 19 -10 22 -9 22 9 0 32 1 34 18 53 15 17 15 17 -1 11 -9 -3 -17 -10
-17 -15 0 -5 -4 -9 -10 -9 -23 0 -7 21 26 35 19 8 33 19 29 25 -3 5 1 10 9 10
9 0 16 7 16 15 0 8 5 15 11 15 5 0 7 -4 4 -10 -11 -18 3 -11 34 18 31 28 30
59 -3 46 -13 -5 -14 -9 -5 -20 8 -9 8 -14 1 -14 -6 0 -14 5 -17 10 -4 6 -13 9
-20 8 -8 -2 -13 2 -12 7 1 6 7 9 13 7 6 -1 14 4 17 11 7 19 -16 17 -43 -5z
m85 -18 c3 -5 1 -10 -4 -10 -6 0 -11 5 -11 10 0 6 2 10 4 10 3 0 8 -4 11 -10z
m-64 -19 c7 12 11 11 25 -3 16 -16 16 -17 -11 -14 -16 2 -30 8 -31 15 -2 8 -1
8 3 0 4 -8 8 -7 14 2z m-94 -146 c0 -8 -4 -12 -9 -9 -5 3 -6 10 -3 15 9 13 12
11 12 -6z"/>
<path d="M2714 3593 c0 -18 3 -20 14 -11 9 8 16 8 20 1 15 -22 55 -35 88 -28
51 9 31 28 -24 22 -27 -3 -39 -1 -31 4 8 5 30 9 49 10 l35 1 -34 10 c-26 7
-36 6 -42 -4 -7 -11 -11 -10 -19 2 -5 8 -20 15 -33 15 -17 1 -23 -5 -23 -22z
m50 1 c5 -14 4 -15 -9 -4 -17 14 -19 20 -6 20 5 0 12 -7 15 -16z m69 -31 c-7
-2 -21 -2 -30 0 -10 3 -4 5 12 5 17 0 24 -2 18 -5z"/>
<path d="M3046 3612 c-3 -5 1 -9 9 -9 8 0 12 4 9 9 -3 4 -7 8 -9 8 -2 0 -6 -4
-9 -8z"/>
<path d="M3021 3584 c0 -11 3 -14 6 -6 3 7 2 16 -1 19 -3 4 -6 -2 -5 -13z"/>
<path d="M3055 3572 c3 -3 -1 -12 -7 -21 -8 -10 -4 -9 10 3 26 23 26 23 7 23
-8 0 -13 -3 -10 -5z"/>
<path d="M2967 3547 c3 -5 11 -6 18 -3 8 3 16 0 19 -7 2 -7 5 -4 5 5 1 13 -6
17 -23 16 -14 -1 -22 -6 -19 -11z"/>
<path d="M3086 3546 c5 -13 2 -17 -12 -14 -14 2 -18 -2 -16 -16 3 -17 2 -18
-12 -7 -9 8 -16 9 -16 3 0 -10 18 -20 35 -19 6 1 9 7 7 14 -3 14 13 18 21 6 2
-5 2 -3 1 4 -2 6 2 13 8 15 6 2 3 10 -6 17 -14 12 -16 12 -10 -3z"/>
<path d="M2729 3548 c-7 -23 -5 -38 4 -37 26 3 38 -2 31 -12 -5 -8 -9 -8 -14
1 -6 9 -9 9 -15 0 -4 -7 1 -14 15 -17 17 -4 19 -8 8 -15 -10 -8 -10 -9 2 -5
18 4 23 69 6 79 -10 7 -35 11 -37 6z"/>
<path d="M2935 3540 c-3 -6 -4 -14 0 -19 3 -5 1 -12 -5 -16 -5 -3 -10 -1 -10
5 0 6 -10 4 -25 -6 -14 -9 -22 -20 -19 -25 3 -5 12 -2 20 6 20 20 33 11 28
-18 -3 -13 1 -9 10 11 8 18 12 40 9 50 -6 15 -5 15 10 3 10 -8 19 -12 22 -10
2 3 -4 10 -15 17 -12 7 -21 8 -25 2z"/>
<path d="M3133 3523 c4 -3 1 -13 -6 -22 -11 -14 -10 -14 5 -2 16 12 16 31 1
31 -4 0 -3 -3 0 -7z"/>
<path d="M2965 3474 c-12 -9 -16 -18 -10 -22 14 -10 15 -42 1 -42 -6 0 -12 -9
-12 -19 0 -12 7 -19 18 -18 13 1 14 4 6 14 -13 17 4 17 21 1 11 -11 11 -8 0
12 -19 36 -20 63 -1 78 9 6 12 12 6 12 -5 0 -18 -7 -29 -16z"/>
<path d="M2893 3469 c-7 -7 -13 -10 -13 -5 0 4 -7 1 -15 -8 -22 -21 -15 -63
12 -75 30 -14 43 10 34 62 -5 31 -8 36 -18 26z m5 -69 c-1 -23 -1 -23 -5 -3
-3 14 -9 20 -19 16 -16 -6 -16 17 1 29 13 9 25 -12 23 -42z"/>
<path d="M2986 3461 c-4 -5 0 -12 6 -14 10 -4 9 -6 -1 -6 -11 -1 -11 -4 -1
-16 7 -8 17 -12 22 -9 6 4 14 0 19 -7 6 -10 8 -7 6 9 0 12 -5 22 -10 22 -4 0
-5 4 -2 10 4 6 -1 7 -11 3 -12 -4 -15 -3 -10 5 4 7 3 12 -3 12 -5 0 -12 -4
-15 -9z m34 -25 c0 -3 -4 -8 -10 -11 -5 -3 -10 -1 -10 4 0 6 5 11 10 11 6 0
10 -2 10 -4z"/>
<path d="M3049 3451 c6 -10 7 -22 3 -26 -4 -5 -1 -5 6 -1 9 5 9 12 2 27 -6 10
-13 19 -16 19 -2 0 0 -8 5 -19z"/>
<path d="M3080 3450 c0 -5 7 -7 15 -4 8 4 15 8 15 10 0 2 -7 4 -15 4 -8 0 -15
-4 -15 -10z"/>
<path d="M3567 3359 c7 -7 15 -10 18 -7 3 3 -2 9 -12 12 -14 6 -15 5 -6 -5z"/>
<path d="M3296 3177 c3 -10 9 -15 12 -12 3 3 0 11 -7 18 -10 9 -11 8 -5 -6z"/>
<path d="M3687 2996 c-4 -10 -1 -13 9 -9 15 6 19 23 5 23 -5 0 -11 -7 -14 -14z"/>
<path d="M3702 2960 c-17 -27 -15 -39 3 -16 14 18 15 18 34 -5 11 -13 20 -27
21 -31 0 -5 5 -8 11 -8 6 0 -1 14 -15 31 -14 17 -26 35 -26 40 0 16 -15 10
-28 -11z"/>
<path d="M3516 2948 c3 -5 9 -7 12 -4 3 3 12 0 21 -6 13 -10 14 -10 4 2 -15
16 -46 23 -37 8z"/>
<path d="M3570 2908 c0 -5 -5 -6 -12 -2 -7 4 -8 3 -4 -4 4 -6 14 -8 23 -5 12
5 14 3 8 -8 -4 -8 -5 -11 -1 -7 4 3 28 -4 52 -17 24 -13 42 -19 39 -14 -4 5 2
9 13 9 10 0 22 3 26 8 7 6 56 12 56 6 0 -17 -17 -34 -34 -33 -20 0 -20 1 -1 9
25 11 -2 12 -29 1 -19 -7 -19 -8 -1 -15 40 -15 85 -17 86 -4 0 7 4 4 9 -7 7
-16 9 -17 9 -3 1 9 -2 24 -5 32 -6 15 -8 15 -20 -1 -13 -16 -14 -16 -8 8 5 25
5 26 -55 27 -34 0 -61 -4 -61 -9 0 -5 -5 -9 -11 -9 -5 0 -7 5 -3 11 4 8 -1 9
-16 4 -16 -5 -20 -4 -16 4 5 7 2 10 -6 9 -7 -2 -12 2 -11 8 1 6 -5 11 -13 11
-7 0 -14 -4 -14 -9z m130 -32 c0 -2 -9 -6 -20 -9 -11 -3 -18 -1 -14 4 5 9 34
13 34 5z"/>
<path d="M3725 2910 c3 -5 11 -10 16 -10 6 0 7 5 4 10 -3 6 -11 10 -16 10 -6
0 -7 -4 -4 -10z"/>
<path d="M2680 2955 c-7 -9 -11 -17 -9 -20 3 -2 10 5 17 15 14 24 10 26 -8 5z"/>
<path d="M3033 2915 c0 -8 4 -12 9 -9 5 3 6 10 3 15 -9 13 -12 11 -12 -6z"/>
<path d="M2916 2883 c-6 -14 -5 -15 5 -6 7 7 10 15 7 18 -3 3 -9 -2 -12 -12z"/>
<path d="M3056 2892 c-3 -5 1 -9 9 -9 8 0 12 4 9 9 -3 4 -7 8 -9 8 -2 0 -6 -4
-9 -8z"/>
<path d="M3066 2857 c3 -10 9 -15 12 -12 3 3 0 11 -7 18 -10 9 -11 8 -5 -6z"/>
<path d="M3096 2821 c-3 -5 1 -11 9 -14 9 -4 12 -1 8 9 -6 16 -10 17 -17 5z"/>
<path d="M3162 2780 c2 -8 -3 -14 -10 -12 -8 1 -11 -2 -7 -8 3 -5 1 -10 -6
-10 -7 0 -9 -3 -6 -6 4 -4 12 -2 19 4 17 13 54 -7 53 -28 -1 -17 14 -40 26
-40 15 0 10 29 -7 38 -9 5 -15 13 -14 18 2 5 -7 14 -19 20 -12 6 -22 15 -21
19 1 3 -1 10 -5 13 -4 4 -5 0 -3 -8z m68 -80 c0 -5 -2 -10 -4 -10 -3 0 -8 5
-11 10 -3 6 -1 10 4 10 6 0 11 -4 11 -10z"/>
<path d="M3047 2759 c-9 -10 -12 -19 -7 -19 6 0 13 6 16 14 3 8 12 12 20 9 8
-3 14 -3 14 0 0 15 -29 13 -43 -4z"/>
<path d="M2750 2746 c0 -2 8 -10 18 -17 15 -13 16 -12 3 4 -13 16 -21 21 -21
13z"/>
<path d="M2840 2711 c0 -6 4 -13 10 -16 6 -3 7 1 4 9 -7 18 -14 21 -14 7z"/>
<path d="M3112 2670 c0 -19 2 -27 5 -17 2 9 2 25 0 35 -3 9 -5 1 -5 -18z"/>
<path d="M3204 2660 c0 -13 4 -16 10 -10 7 7 7 13 0 20 -6 6 -10 3 -10 -10z"/>
<path d="M2840 2665 c0 -9 42 -47 47 -42 2 3 -5 15 -16 26 -21 21 -31 26 -31
16z"/>
<path d="M3256 2661 c-4 -5 -3 -16 0 -24 3 -8 1 -18 -5 -22 -6 -3 -11 -1 -11
6 0 7 -2 10 -5 7 -3 -3 -2 -13 1 -22 5 -14 9 -15 15 -4 8 11 10 11 18 -1 6
-10 10 -10 16 -1 6 9 10 9 16 -1 6 -10 9 -8 9 9 0 19 -4 22 -22 18 -13 -3 -18
-3 -12 0 7 3 10 14 7 24 -6 21 -18 26 -27 11z"/>
<path d="M2950 2640 c0 -5 5 -10 11 -10 5 0 7 5 4 10 -3 6 -8 10 -11 10 -2 0
-4 -4 -4 -10z"/>
<path d="M2929 2628 c-1 -7 -1 -17 0 -22 1 -5 -3 -12 -10 -16 -8 -6 -8 -9 0
-14 6 -4 11 -2 11 4 0 6 5 8 11 4 8 -4 8 -1 1 12 -5 11 -7 25 -5 32 3 6 2 12
-1 12 -3 0 -7 -6 -7 -12z"/>
<path d="M3066 2615 c-9 -26 -7 -32 5 -12 6 10 9 21 6 23 -2 3 -7 -2 -11 -11z"/>
<path d="M3102 2610 c0 -14 2 -19 5 -12 2 6 2 18 0 25 -3 6 -5 1 -5 -13z"/>
<path d="M3080 2591 c0 -6 4 -13 10 -16 6 -3 7 1 4 9 -7 18 -14 21 -14 7z"/>
<path d="M3221 2595 c0 -5 6 -19 14 -29 8 -10 12 -22 10 -27 -3 -4 5 -5 17 -2
17 3 19 2 9 -5 -16 -11 -4 -19 27 -16 12 0 22 -3 22 -7 0 -10 41 -12 64 -3 12
5 10 11 -13 33 -15 14 -30 35 -34 44 -9 23 -28 12 -20 -11 5 -16 5 -16 -8 0
-14 17 -33 19 -56 5 -7 -4 -16 0 -22 10 -6 10 -10 14 -10 8z m59 -31 c0 11 29
-25 30 -37 0 -4 -11 0 -25 10 -13 10 -24 25 -25 33 0 13 1 13 10 0 5 -8 10
-11 10 -6z m70 -18 c0 -3 -4 -8 -10 -11 -5 -3 -10 -1 -10 4 0 6 5 11 10 11 6
0 10 -2 10 -4z"/>
<path d="M3006 2565 c4 -8 8 -15 10 -15 2 0 4 7 4 15 0 8 -4 15 -10 15 -5 0
-7 -7 -4 -15z"/>
<path d="M3063 2552 c-1 -22 0 -24 9 -8 6 10 6 22 2 26 -5 5 -10 -3 -11 -18z"/>
<path d="M2936 2529 c-11 -11 -17 -21 -14 -24 2 -3 13 4 23 15 24 26 16 33 -9
9z"/>
<path d="M2990 2410 c0 -5 5 -10 10 -10 6 0 10 5 10 10 0 6 -4 10 -10 10 -5 0
-10 -4 -10 -10z"/>
<path d="M5225 1890 c-22 -25 -13 -68 17 -79 54 -20 94 27 64 74 -20 30 -56
33 -81 5z"/>
<path d="M4798 1433 c-12 -44 -16 -47 -58 -57 -29 -7 -45 -17 -45 -26 0 -9 16
-19 45 -26 42 -10 46 -13 58 -57 17 -59 39 -62 48 -7 8 46 14 52 72 69 23 6
42 16 42 21 0 5 -19 15 -42 21 -58 17 -64 23 -72 69 -9 55 -31 52 -48 -7z"/>
<path d="M5254 1356 c-3 -8 -4 -23 -2 -33 5 -25 61 -25 66 0 7 37 -51 67 -64
33z"/>
</g>
</svg>
