<?xml version="1.0" standalone="no"?>
<!DOCTYPE svg PUBLIC "-//W3C//DTD SVG 20010904//EN"
 "http://www.w3.org/TR/2001/REC-SVG-20010904/DTD/svg10.dtd">
<svg version="1.0" xmlns="http://www.w3.org/2000/svg"
 width="256.000000pt" height="256.000000pt" viewBox="0 0 256.000000 256.000000"
 preserveAspectRatio="xMidYMid meet">

<g transform="translate(0.000000,256.000000) scale(0.100000,-0.100000)"
fill="#000000" stroke="none">
<path d="M1135 2429 c-505 -68 -907 -452 -996 -949 -17 -96 -17 -304 0 -400
85 -478 463 -856 941 -941 96 -17 304 -17 400 0 418 75 769 378 899 779 41
125 55 220 55 362 0 143 -14 237 -55 364 -128 392 -471 694 -878 772 -98 19
-277 25 -366 13z m330 -124 c492 -86 855 -522 855 -1025 0 -577 -463 -1040
-1040 -1040 -578 0 -1040 462 -1040 1040 0 443 271 829 688 980 162 59 361 75
537 45z"/>
<path d="M1194 2068 c-318 -26 -601 -272 -685 -594 -28 -109 -28 -279 0 -388
74 -282 296 -504 577 -576 109 -29 279 -28 389 0 280 72 503 295 575 575 29
110 29 280 0 390 -57 222 -211 413 -415 515 -136 68 -275 92 -441 78z m-32
-575 l118 -117 118 117 c95 94 124 117 147 117 38 0 65 -26 65 -63 0 -25 -20
-50 -117 -149 l-117 -118 117 -118 c94 -95 117 -124 117 -147 0 -38 -26 -65
-63 -65 -25 0 -50 20 -148 116 l-118 117 -123 -117 c-128 -121 -152 -133 -190
-99 -10 9 -18 30 -18 47 0 26 18 49 117 148 l116 116 -116 124 c-122 128 -134
152 -100 190 9 10 30 18 47 18 26 0 49 -18 148 -117z"/>
</g>
</svg>
